<?xml version="1.0" encoding="UTF-8" standalone="no"?>
<!DOCTYPE svg PUBLIC "-//W3C//DTD SVG 1.1//EN" "http://www.w3.org/Graphics/SVG/1.1/DTD/svg11.dtd">
<svg width="190px" height="80px" version="1.1" xmlns="http://www.w3.org/2000/svg" xmlns:xlink="http://www.w3.org/1999/xlink" xml:space="preserve" xmlns:serif="http://www.serif.com/" style="fill-rule:evenodd;clip-rule:evenodd;stroke-linejoin:round;stroke-miterlimit:2;">
    <g id="bg" transform="matrix(0.519031,0,0,0.781759,65.917,68.013)">
        <rect x="-127" y="-87" width="578" height="614" style="fill:rgb(251,251,245);"/>
    </g>
    <g id="patreon">
    </g>
    <g id="esa">
    </g>
    <g id="twitter">
    </g>
    <g id="discord">
    </g>
    <g transform="matrix(0.384615,0,0,0.689655,6.15385,88.9655)">
        <g id="soundcloud">
            <rect id="accent" x="-16" y="-13" width="26" height="116" style="fill:rgb(255,85,0);"/>
        </g>
    </g>
    <g id="activity_pub" transform="matrix(1,0,0,1,0,-400)">
        <g id="accent1" serif:id="accent" transform="matrix(0.384615,0,0,0.689655,6.15385,408.966)">
            <rect x="-16" y="-13" width="26" height="116" style="fill:rgb(119,181,140);"/>
        </g>
        <g transform="matrix(1,0,0,1,9,403)">
            <g id="text" transform="matrix(24,0,0,24,15,43.1641)">
                <path d="M-0.057,-0L0.301,-0.715L0.54,-0.715L0.692,-0L0.498,-0L0.469,-0.135L0.219,-0.135L0.151,-0L-0.057,-0ZM0.291,-0.294L0.442,-0.294L0.409,-0.461C0.406,-0.478 0.403,-0.492 0.402,-0.505C0.4,-0.518 0.399,-0.531 0.399,-0.542C0.392,-0.522 0.386,-0.505 0.38,-0.49C0.374,-0.476 0.37,-0.465 0.367,-0.458L0.291,-0.294Z" style="fill:rgb(58,42,16);fill-rule:nonzero;"/>
            </g>
            <g transform="matrix(24,0,0,24,32.5078,43.1641)">
                <path d="M0.434,-0.313C0.416,-0.332 0.398,-0.347 0.38,-0.356C0.361,-0.365 0.342,-0.37 0.322,-0.37C0.288,-0.37 0.259,-0.357 0.236,-0.33C0.213,-0.304 0.201,-0.271 0.201,-0.232C0.201,-0.199 0.21,-0.174 0.228,-0.155C0.246,-0.135 0.27,-0.126 0.301,-0.126C0.32,-0.126 0.339,-0.129 0.357,-0.136C0.375,-0.143 0.393,-0.153 0.411,-0.167L0.385,-0.005C0.362,0.003 0.339,0.009 0.318,0.013C0.296,0.017 0.275,0.019 0.254,0.019C0.184,0.019 0.128,-0.003 0.085,-0.049C0.042,-0.094 0.02,-0.153 0.02,-0.225C0.02,-0.31 0.047,-0.379 0.1,-0.432C0.153,-0.485 0.223,-0.511 0.31,-0.511C0.338,-0.511 0.364,-0.507 0.389,-0.499C0.414,-0.491 0.437,-0.479 0.458,-0.464L0.434,-0.313Z" style="fill:rgb(58,42,16);fill-rule:nonzero;"/>
            </g>
            <g transform="matrix(24,0,0,24,44.5078,43.1641)">
                <path d="M0.028,-0L0.086,-0.367L0.004,-0.367L0.024,-0.493L0.106,-0.493L0.128,-0.636L0.302,-0.636L0.279,-0.493L0.367,-0.493L0.347,-0.367L0.259,-0.367L0.201,-0L0.028,-0Z" style="fill:rgb(58,42,16);fill-rule:nonzero;"/>
            </g>
            <g transform="matrix(24,0,0,24,52.7695,43.1641)">
                <path d="M0.104,-0.64C0.104,-0.666 0.113,-0.687 0.131,-0.706C0.149,-0.724 0.171,-0.733 0.197,-0.733C0.224,-0.733 0.246,-0.724 0.264,-0.707C0.282,-0.689 0.291,-0.667 0.291,-0.64C0.291,-0.614 0.282,-0.591 0.264,-0.573C0.245,-0.555 0.223,-0.546 0.197,-0.546C0.171,-0.546 0.149,-0.555 0.131,-0.573C0.113,-0.592 0.104,-0.614 0.104,-0.64ZM0.013,-0L0.091,-0.493L0.266,-0.493L0.188,-0L0.013,-0Z" style="fill:rgb(58,42,16);fill-rule:nonzero;"/>
            </g>
            <g transform="matrix(24,0,0,24,60.2578,43.1641)">
                <path d="M0.153,-0L-0.016,-0.493L0.163,-0.493L0.232,-0.249C0.235,-0.238 0.238,-0.226 0.24,-0.212C0.243,-0.198 0.244,-0.183 0.245,-0.168C0.254,-0.189 0.262,-0.207 0.268,-0.221C0.275,-0.235 0.28,-0.245 0.284,-0.252L0.419,-0.493L0.609,-0.493L0.304,-0L0.153,-0Z" style="fill:rgb(58,42,16);fill-rule:nonzero;"/>
            </g>
            <g transform="matrix(24,0,0,24,74.2734,43.1641)">
                <path d="M0.104,-0.64C0.104,-0.666 0.113,-0.687 0.131,-0.706C0.149,-0.724 0.171,-0.733 0.197,-0.733C0.224,-0.733 0.246,-0.724 0.264,-0.707C0.282,-0.689 0.291,-0.667 0.291,-0.64C0.291,-0.614 0.282,-0.591 0.264,-0.573C0.245,-0.555 0.223,-0.546 0.197,-0.546C0.171,-0.546 0.149,-0.555 0.131,-0.573C0.113,-0.592 0.104,-0.614 0.104,-0.64ZM0.013,-0L0.091,-0.493L0.266,-0.493L0.188,-0L0.013,-0Z" style="fill:rgb(58,42,16);fill-rule:nonzero;"/>
            </g>
            <g transform="matrix(24,0,0,24,81.7617,43.1641)">
                <path d="M0.028,-0L0.086,-0.367L0.004,-0.367L0.024,-0.493L0.106,-0.493L0.128,-0.636L0.302,-0.636L0.279,-0.493L0.367,-0.493L0.347,-0.367L0.259,-0.367L0.201,-0L0.028,-0Z" style="fill:rgb(58,42,16);fill-rule:nonzero;"/>
            </g>
            <g transform="matrix(24,0,0,24,90.0234,43.1641)">
                <path d="M0.128,-0.025L-0.012,-0.493L0.168,-0.493L0.211,-0.28C0.212,-0.277 0.213,-0.273 0.214,-0.268C0.22,-0.239 0.223,-0.215 0.224,-0.194C0.228,-0.207 0.232,-0.221 0.238,-0.235C0.244,-0.25 0.251,-0.265 0.259,-0.282L0.361,-0.493L0.548,-0.493L0.165,0.218L-0.017,0.218L0.128,-0.025Z" style="fill:rgb(58,42,16);fill-rule:nonzero;"/>
            </g>
            <g transform="matrix(24,0,0,24,102.621,43.1641)">
                <path d="M0.274,-0.401L0.292,-0.401C0.354,-0.401 0.396,-0.407 0.417,-0.42C0.439,-0.433 0.45,-0.456 0.45,-0.487C0.45,-0.513 0.441,-0.532 0.422,-0.545C0.403,-0.557 0.374,-0.563 0.334,-0.563L0.3,-0.563L0.274,-0.401ZM0.02,-0L0.134,-0.715L0.33,-0.715C0.384,-0.715 0.425,-0.713 0.453,-0.708C0.48,-0.704 0.504,-0.696 0.524,-0.686C0.56,-0.667 0.588,-0.642 0.606,-0.61C0.624,-0.578 0.633,-0.539 0.633,-0.494C0.633,-0.45 0.623,-0.408 0.604,-0.37C0.584,-0.332 0.558,-0.303 0.525,-0.282C0.505,-0.27 0.482,-0.262 0.456,-0.257C0.429,-0.252 0.387,-0.249 0.33,-0.249L0.25,-0.249L0.21,-0L0.02,-0Z" style="fill:rgb(58,42,16);fill-rule:nonzero;"/>
            </g>
            <g transform="matrix(24,0,0,24,118.078,43.1641)">
                <path d="M0.074,-0.493L0.247,-0.493L0.215,-0.289C0.211,-0.262 0.208,-0.24 0.206,-0.221C0.203,-0.203 0.202,-0.192 0.202,-0.186C0.202,-0.163 0.208,-0.145 0.219,-0.132C0.23,-0.12 0.247,-0.114 0.268,-0.114C0.318,-0.114 0.352,-0.171 0.37,-0.284C0.371,-0.29 0.371,-0.295 0.372,-0.298L0.403,-0.493L0.576,-0.493L0.541,-0.27L0.54,-0.26C0.522,-0.154 0.495,-0.083 0.459,-0.048C0.436,-0.026 0.408,-0.009 0.374,0.002C0.341,0.013 0.303,0.019 0.261,0.019C0.189,0.019 0.131,0.003 0.09,-0.03C0.048,-0.063 0.027,-0.108 0.027,-0.164C0.027,-0.177 0.028,-0.193 0.03,-0.213C0.033,-0.233 0.037,-0.263 0.044,-0.304L0.074,-0.493Z" style="fill:rgb(58,42,16);fill-rule:nonzero;"/>
            </g>
            <g transform="matrix(24,0,0,24,132.738,43.1641)">
                <path d="M0.433,-0.265C0.433,-0.297 0.423,-0.322 0.404,-0.341C0.385,-0.361 0.359,-0.37 0.328,-0.37C0.293,-0.37 0.264,-0.357 0.241,-0.33C0.219,-0.304 0.207,-0.27 0.207,-0.23C0.207,-0.199 0.217,-0.175 0.236,-0.156C0.255,-0.136 0.28,-0.127 0.311,-0.127C0.347,-0.127 0.376,-0.14 0.399,-0.166C0.422,-0.192 0.433,-0.225 0.433,-0.265ZM0.257,-0.499C0.256,-0.489 0.253,-0.478 0.25,-0.466C0.247,-0.454 0.242,-0.44 0.237,-0.425C0.265,-0.452 0.293,-0.473 0.323,-0.487C0.352,-0.5 0.382,-0.507 0.413,-0.507C0.47,-0.507 0.517,-0.486 0.553,-0.443C0.59,-0.4 0.608,-0.345 0.608,-0.278C0.608,-0.193 0.583,-0.122 0.534,-0.065C0.485,-0.009 0.424,0.019 0.35,0.019C0.318,0.019 0.288,0.012 0.261,-0.002C0.234,-0.016 0.208,-0.038 0.182,-0.068L0.171,-0L0.009,-0L0.129,-0.757L0.298,-0.757L0.257,-0.499Z" style="fill:rgb(58,42,16);fill-rule:nonzero;"/>
            </g>
        </g>
    </g>
</svg>
