<svg xmlns="http://www.w3.org/2000/svg" viewBox="0 0 150 40">
  <defs>
    <style>
      .cls-1 {
        fill: #25282f;
      }

      .cls-2 {
        fill: none;
        stroke: #4284d1;
        stroke-miterlimit: 10;
        stroke-width: 3.54331px;
      }

      .cls-3 {
        fill: #fff;
      }
    </style>
  </defs>
  <title>link_activity_pub</title>
  <g id="レイヤー_2" data-name="レイヤー 2">
    <g id="レイヤー_1-2" data-name="レイヤー 1">
      <g>
        <rect class="cls-1" width="150" height="40"/>
        <line class="cls-2" y1="35" x2="150" y2="35"/>
        <g>
          <path class="cls-3" d="M12.18872,7.24707h3.291l3.623,17.01709h-3.5205l-.56153-2.78076H8.74438L7.36694,24.26416H3.61646Zm1.37793,6.86279a7.956,7.956,0,0,1-.22949-1.8623,6.90168,6.90168,0,0,1,.05078-.86719l-.22949-.02539a11.806,11.806,0,0,1-1.12256,3.06152l-1.88818,3.92871h4.26074Z"/>
          <path class="cls-3" d="M27.49585,24.21338a8.03419,8.03419,0,0,1-2.398.38232c-2.96,0-4.79687-1.939-4.79687-5.05127,0-3.521,2.24511-5.91894,5.562-5.91894a7.49967,7.49967,0,0,1,3.06152.63769l-.53564,2.85743a5.33469,5.33469,0,0,0-2.19434-.51026,2.473,2.473,0,0,0-2.52539,2.78076A1.98191,1.98191,0,0,0,25.863,21.56006a4.91507,4.91507,0,0,0,2.21972-.56152Z"/>
          <path class="cls-3" d="M30.83716,16.355H29.53589l.30615-2.398h1.30078l.43408-3.49512h3.11231L34.281,13.957h1.37793l-.28077,2.398H33.97485l-.96923,7.90918H29.86743Z"/>
          <path class="cls-3" d="M39.02563,24.26416H35.88794L37.16333,13.957h3.1123Zm2.041-14.21045a1.875,1.875,0,1,1-1.83691-1.86279A1.87814,1.87814,0,0,1,41.06665,10.05371Z"/>
          <path class="cls-3" d="M44.38257,13.957l1.25049,4.23486a7.16865,7.16865,0,0,1,.459,2.52588v.20411l.15332.02587a8.6563,8.6563,0,0,1,1.148-2.73l2.398-4.26074h3.24023L47.16333,24.26416H44.38257L41.219,13.957Z"/>
          <path class="cls-3" d="M55.96411,24.26416H52.82642L54.10181,13.957h3.1123Zm2.041-14.21045a1.875,1.875,0,1,1-1.83692-1.86279A1.87814,1.87814,0,0,1,58.00513,10.05371Z"/>
          <path class="cls-3" d="M59.5354,16.355H58.23462l.30615-2.398H59.842l.43359-3.49512h3.11231l-.4082,3.49512h1.37793l-.28077,2.398H62.67358l-.96923,7.90918H58.56616Z"/>
          <path class="cls-3" d="M68.10718,13.957l1.8623,6.45459L72.98022,13.957h3.31641L68.89819,28.9585h-3.2915l2.44922-5.05176-3.291-9.94971Z"/>
          <path class="cls-3" d="M78.49048,7.24707h3.9541a8.76251,8.76251,0,0,1,4.312.73975c1.32666.689,2.11768,2.34765,2.11768,4.36279a5.00365,5.00365,0,0,1-2.4751,4.72021,8.249,8.249,0,0,1-4.31152.81641H80.58228l-.791,6.37793H76.39819Zm3.46973,7.70508a3.5449,3.5449,0,0,0,2.24511-.45947,2.58469,2.58469,0,0,0,1.02051-2.16846,1.90742,1.90742,0,0,0-.6377-1.58154c-.35742-.28077-.8164-.35743-2.041-.35743H81.50073l-.561,4.5669Z"/>
          <path class="cls-3" d="M93.4397,13.957l-.66309,5.48535a6.86954,6.86954,0,0,0-.07666.81641c0,1.02051.63818,1.60693,1.76026,1.60693,1.25048,0,1.76074-.66308,2.01562-2.602l.6377-5.30664h3.13818l-.66309,5.3833a6.834,6.834,0,0,1-1.09716,3.59717c-.86719,1.148-2.14307,1.6582-4.1587,1.6582-3.06152,0-4.74511-1.42871-4.74511-4.03076,0-.4082.05078-.96973.10205-1.50537l.63769-5.10254Z"/>
          <path class="cls-3" d="M103.721,5.66553h3.13818l-1.22461,9.89892c1.27539-1.45459,2.16846-1.939,3.52051-1.939,2.4751,0,4.082,1.939,4.082,4.92383,0,3.5205-2.14307,6.04638-5.12793,6.04638a3.857,3.857,0,0,1-3.36767-1.78564l-.17872,1.4541h-3.13769ZM105.04761,19.519c0,1.50489.84179,2.5,2.11767,2.5a2.98591,2.98591,0,0,0,2.67871-3.24023c0-1.50488-.8164-2.44922-2.14306-2.44922A2.93333,2.93333,0,0,0,105.04761,19.519Z"/>
        </g>
      </g>
    </g>
  </g>
</svg>
