<?xml version="1.0" encoding="UTF-8" standalone="no"?>
<!DOCTYPE svg PUBLIC "-//W3C//DTD SVG 1.1//EN" "http://www.w3.org/Graphics/SVG/1.1/DTD/svg11.dtd">
<svg height="80px" style="fill-rule:evenodd;clip-rule:evenodd;stroke-linejoin:round;stroke-miterlimit:2;" version="1.1"
     width="190px"
     xml:space="preserve" xmlns="http://www.w3.org/2000/svg"
     xmlns:serif="http://www.serif.com/">
    <g transform="matrix(1,0,0,1,0,-160)">
        <g id="bg" transform="matrix(0.519031,0,0,0.781759,65.917,68.013)">
            <rect height="614" style="fill:rgb(251,251,245);" width="578" x="-127" y="-87"/>
        </g>
      <g id="patreon">
        </g>
      <g id="esa">
        </g>
      <g transform="matrix(0.384615,0,0,0.689655,6.15385,248.966)">
            <g id="twitter">
                <rect height="116" id="accent" style="fill:rgb(0,157,247);" width="26" x="-16" y="-13"/>
            </g>
        </g>
      <g id="discord" transform="matrix(1,0,0,1,0,-240)">
            <g id="accent1" serif:id="accent" transform="matrix(0.384615,0,0,0.689655,6.15385,408.966)">
                <rect height="116" style="fill:rgb(88,101,242);" width="26" x="-16" y="-13"/>
            </g>
        <g transform="matrix(1,0,0,1,9,403)">
                <g id="text" transform="matrix(24,0,0,24,15,43.1641)">
                    <path
                      d="M0.019,-0L0.131,-0.715L0.254,-0.715C0.346,-0.715 0.411,-0.712 0.45,-0.707C0.49,-0.702 0.521,-0.694 0.546,-0.681C0.599,-0.654 0.639,-0.615 0.667,-0.564C0.695,-0.512 0.709,-0.451 0.709,-0.38C0.709,-0.311 0.697,-0.251 0.672,-0.2C0.647,-0.148 0.609,-0.105 0.558,-0.069C0.522,-0.044 0.48,-0.026 0.431,-0.016C0.382,-0.005 0.299,-0 0.184,-0L0.019,-0ZM0.236,-0.159C0.249,-0.158 0.259,-0.158 0.265,-0.157C0.272,-0.157 0.278,-0.157 0.283,-0.157C0.36,-0.157 0.418,-0.176 0.458,-0.215C0.497,-0.253 0.517,-0.31 0.517,-0.384C0.517,-0.444 0.503,-0.488 0.474,-0.516C0.445,-0.543 0.398,-0.557 0.333,-0.557L0.297,-0.557L0.236,-0.159Z"
                      style="fill:rgb(58,42,16);fill-rule:nonzero;"/>
                </g>
          <g transform="matrix(24,0,0,24,33.1172,43.1641)">
                    <path
                      d="M0.104,-0.64C0.104,-0.666 0.113,-0.687 0.131,-0.706C0.149,-0.724 0.171,-0.733 0.197,-0.733C0.224,-0.733 0.246,-0.724 0.264,-0.707C0.282,-0.689 0.291,-0.667 0.291,-0.64C0.291,-0.614 0.282,-0.591 0.264,-0.573C0.245,-0.555 0.223,-0.546 0.197,-0.546C0.171,-0.546 0.149,-0.555 0.131,-0.573C0.113,-0.592 0.104,-0.614 0.104,-0.64ZM0.013,-0L0.091,-0.493L0.266,-0.493L0.188,-0L0.013,-0Z"
                      style="fill:rgb(58,42,16);fill-rule:nonzero;"/>
                </g>
          <g transform="matrix(24,0,0,24,40.6055,43.1641)">
                    <path
                      d="M0.418,-0.457L0.367,-0.346C0.345,-0.362 0.324,-0.374 0.305,-0.381C0.286,-0.388 0.268,-0.392 0.249,-0.392C0.233,-0.392 0.22,-0.389 0.21,-0.381C0.2,-0.374 0.195,-0.365 0.195,-0.355C0.195,-0.34 0.212,-0.326 0.246,-0.313C0.261,-0.307 0.272,-0.303 0.281,-0.299C0.328,-0.278 0.361,-0.257 0.38,-0.235C0.399,-0.213 0.408,-0.186 0.408,-0.153C0.408,-0.101 0.388,-0.059 0.348,-0.028C0.308,0.003 0.255,0.019 0.188,0.019C0.15,0.019 0.114,0.014 0.08,0.004C0.045,-0.006 0.012,-0.021 -0.02,-0.041L0.038,-0.159C0.071,-0.139 0.099,-0.124 0.122,-0.116C0.144,-0.107 0.165,-0.103 0.185,-0.103C0.202,-0.103 0.216,-0.107 0.227,-0.115C0.237,-0.122 0.242,-0.132 0.242,-0.144C0.242,-0.163 0.218,-0.182 0.17,-0.201C0.156,-0.207 0.145,-0.212 0.137,-0.215C0.099,-0.232 0.072,-0.25 0.056,-0.27C0.04,-0.29 0.032,-0.315 0.032,-0.344C0.032,-0.391 0.052,-0.431 0.091,-0.462C0.131,-0.493 0.181,-0.509 0.243,-0.509C0.274,-0.509 0.305,-0.504 0.334,-0.496C0.364,-0.487 0.392,-0.474 0.418,-0.457Z"
                      style="fill:rgb(58,42,16);fill-rule:nonzero;"/>
                </g>
          <g transform="matrix(24,0,0,24,51.6211,43.1641)">
                    <path
                      d="M0.434,-0.313C0.416,-0.332 0.398,-0.347 0.38,-0.356C0.361,-0.365 0.342,-0.37 0.322,-0.37C0.288,-0.37 0.259,-0.357 0.236,-0.33C0.213,-0.304 0.201,-0.271 0.201,-0.232C0.201,-0.199 0.21,-0.174 0.228,-0.155C0.246,-0.135 0.27,-0.126 0.301,-0.126C0.32,-0.126 0.339,-0.129 0.357,-0.136C0.375,-0.143 0.393,-0.153 0.411,-0.167L0.385,-0.005C0.362,0.003 0.339,0.009 0.318,0.013C0.296,0.017 0.275,0.019 0.254,0.019C0.184,0.019 0.128,-0.003 0.085,-0.049C0.042,-0.094 0.02,-0.153 0.02,-0.225C0.02,-0.31 0.047,-0.379 0.1,-0.432C0.153,-0.485 0.223,-0.511 0.31,-0.511C0.338,-0.511 0.364,-0.507 0.389,-0.499C0.414,-0.491 0.437,-0.479 0.458,-0.464L0.434,-0.313Z"
                      style="fill:rgb(58,42,16);fill-rule:nonzero;"/>
                </g>
          <g transform="matrix(24,0,0,24,63.6211,43.1641)">
                    <path
                      d="M0.302,-0.368C0.268,-0.368 0.239,-0.354 0.216,-0.325C0.192,-0.297 0.18,-0.262 0.18,-0.221C0.18,-0.191 0.189,-0.167 0.206,-0.149C0.223,-0.131 0.246,-0.122 0.275,-0.122C0.311,-0.122 0.341,-0.136 0.364,-0.163C0.387,-0.191 0.399,-0.226 0.399,-0.269C0.399,-0.3 0.39,-0.324 0.373,-0.342C0.355,-0.359 0.332,-0.368 0.302,-0.368ZM0.013,-0.223C0.013,-0.307 0.041,-0.375 0.095,-0.429C0.15,-0.483 0.22,-0.51 0.305,-0.51C0.384,-0.51 0.447,-0.487 0.494,-0.443C0.541,-0.398 0.565,-0.339 0.565,-0.264C0.565,-0.181 0.537,-0.113 0.482,-0.06C0.427,-0.007 0.355,0.02 0.268,0.02C0.191,0.02 0.129,-0.002 0.083,-0.046C0.036,-0.091 0.013,-0.15 0.013,-0.223Z"
                      style="fill:rgb(58,42,16);fill-rule:nonzero;"/>
                </g>
          <g transform="matrix(24,0,0,24,78.3281,43.1641)">
                    <path
                      d="M0.005,-0L0.083,-0.493L0.25,-0.493L0.238,-0.409C0.253,-0.44 0.274,-0.464 0.299,-0.48C0.325,-0.497 0.355,-0.505 0.389,-0.505C0.393,-0.505 0.397,-0.505 0.401,-0.504C0.406,-0.504 0.413,-0.503 0.423,-0.501L0.388,-0.346C0.377,-0.349 0.367,-0.351 0.357,-0.352C0.348,-0.353 0.34,-0.354 0.331,-0.354C0.298,-0.354 0.271,-0.344 0.252,-0.323C0.232,-0.302 0.219,-0.269 0.212,-0.225L0.177,-0L0.005,-0Z"
                      style="fill:rgb(58,42,16);fill-rule:nonzero;"/>
                </g>
          <g transform="matrix(24,0,0,24,88.3359,43.1641)">
                    <path
                      d="M0.202,-0.232C0.202,-0.2 0.212,-0.175 0.231,-0.156C0.25,-0.137 0.276,-0.127 0.307,-0.127C0.342,-0.127 0.37,-0.14 0.394,-0.167C0.417,-0.194 0.428,-0.228 0.428,-0.268C0.428,-0.299 0.419,-0.323 0.399,-0.343C0.38,-0.362 0.355,-0.371 0.324,-0.371C0.289,-0.371 0.26,-0.358 0.237,-0.332C0.214,-0.306 0.202,-0.272 0.202,-0.232ZM0.664,-0.757L0.545,-0L0.381,-0L0.391,-0.064C0.367,-0.036 0.34,-0.015 0.311,-0.001C0.282,0.013 0.25,0.02 0.217,0.02C0.16,0.02 0.114,-0.001 0.077,-0.044C0.041,-0.087 0.023,-0.142 0.023,-0.21C0.023,-0.295 0.047,-0.366 0.096,-0.422C0.145,-0.478 0.207,-0.506 0.281,-0.506C0.314,-0.506 0.344,-0.499 0.371,-0.485C0.398,-0.471 0.423,-0.45 0.447,-0.42L0.447,-0.434C0.447,-0.444 0.447,-0.454 0.448,-0.465C0.449,-0.475 0.451,-0.486 0.452,-0.497L0.493,-0.757L0.664,-0.757Z"
                      style="fill:rgb(58,42,16);fill-rule:nonzero;"/>
                </g>
            </g>
        </g>
      <g id="soundcloud" transform="matrix(1,0,0,1,0,-320)">
            <g id="accent2" serif:id="accent" transform="matrix(0.384615,0,0,0.689655,6.15385,408.966)">
                <rect height="116" style="fill:rgb(255,85,0);" width="26" x="-16" y="-13"/>
            </g>
        <g id="text1" serif:id="text">
            </g>
        </g>
      <g id="activity_pub">
        </g>
    </g>
</svg>
