<svg xmlns="http://www.w3.org/2000/svg" viewBox="0 0 150 40">
  <defs>
    <style>
      .cls-1 {
        fill: #7289da;
      }

      .cls-2 {
        fill: none;
        stroke: #99aab5;
        stroke-miterlimit: 10;
        stroke-width: 3.54331px;
      }

      .cls-3 {
        fill: #fff;
      }
    </style>
  </defs>
  <title>link_discord</title>
  <g id="レイヤー_2" data-name="レイヤー 2">
    <g id="レイヤー_1-2" data-name="レイヤー 1">
      <g>
        <rect class="cls-1" width="150" height="40"/>
        <line class="cls-2" y1="35" x2="150" y2="35"/>
        <g>
          <path class="cls-3" d="M7.34155,7.24707h4.33692c2.832,0,4.26074.30615,5.562,1.19922,1.76025,1.17334,2.7041,3.49512,2.7041,6.50586,0,3.77588-1.58154,6.96484-4.13281,8.26611A12.79164,12.79164,0,0,1,9.969,24.26416H5.24927ZM9.79077,21.20264a7.59634,7.59634,0,0,0,3.72461-.66309c1.76025-.86767,2.78076-3.01074,2.78076-5.7915,0-2.19434-.66308-3.49561-2.09179-4.082a7.94353,7.94353,0,0,0-2.90821-.35743H10.3772l-1.35205,10.894Z"/>
          <path class="cls-3" d="M24.02563,24.26416H20.88794L22.16333,13.957h3.1123Zm2.041-14.21045a1.875,1.875,0,1,1-1.83691-1.86279A1.87814,1.87814,0,0,1,26.06665,10.05371Z"/>
          <path class="cls-3" d="M26.70435,21.10059c1.6582.86767,2.24511,1.07177,3.21435,1.07177.791,0,1.22461-.30664,1.22461-.86767,0-.53565-.15283-.6377-1.8623-1.22461-1.91358-.66358-2.52588-1.32666-2.52588-2.80615,0-2.24512,1.582-3.64844,4.10742-3.64844a7.40736,7.40736,0,0,1,3.67383.96924L33.4397,16.78906a4.86777,4.86777,0,0,0-2.55127-.84228c-.76563,0-1.22461.332-1.22461.84228,0,.561.102.61231,2.0918,1.19873,1.81152.53614,2.47509,1.30127,2.47509,2.85742,0,2.34766-1.55664,3.75049-4.15869,3.75049a8.843,8.843,0,0,1-4.1333-1.0205Z"/>
          <path class="cls-3" d="M42.7,24.21338a8.03419,8.03419,0,0,1-2.398.38232c-2.96,0-4.79687-1.939-4.79687-5.05127,0-3.521,2.24511-5.91894,5.562-5.91894a7.49967,7.49967,0,0,1,3.06152.63769L43.593,17.12061a5.33466,5.33466,0,0,0-2.19434-.51026,2.473,2.473,0,0,0-2.52539,2.78076,1.98191,1.98191,0,0,0,2.19385,2.16895,4.91514,4.91514,0,0,0,2.21973-.56152Z"/>
          <path class="cls-3" d="M55.99146,18.93213a5.58983,5.58983,0,0,1-5.74024,5.66357c-3.34228,0-5.61279-2.11767-5.61279-5.25537a5.70263,5.70263,0,0,1,5.84228-5.71484A5.18631,5.18631,0,0,1,55.99146,18.93213Zm-7.98536.38281a2.21426,2.21426,0,0,0,2.14307,2.5c1.4541,0,2.47461-1.22461,2.47461-2.95947a2.17357,2.17357,0,0,0-2.16846-2.44922A2.629,2.629,0,0,0,48.0061,19.31494Z"/>
          <path class="cls-3" d="M58.46558,13.957h3.11279l-.23,1.98975c1.27588-1.86231,1.96435-2.34668,3.2915-2.34668l.53565.02539-.38282,3.21435a4.10783,4.10783,0,0,0-1.17334-.17822c-1.73535,0-2.44921.79053-2.73,2.959l-.56152,4.64355H57.1897Z"/>
          <path class="cls-3" d="M75.94116,24.26416H72.82837l.2041-1.55615A4.06344,4.06344,0,0,1,69.512,24.5957c-2.57715,0-4.23535-1.88769-4.23535-4.84716,0-3.49512,2.19434-6.123,5.15381-6.123a3.84766,3.84766,0,0,1,3.46973,1.83691l1.22461-9.79687h3.1123Zm-7.271-4.89844c0,1.50537.84179,2.5,2.11718,2.5A2.98708,2.98708,0,0,0,73.49194,18.626a2.15655,2.15655,0,0,0-2.14306-2.44922A2.93449,2.93449,0,0,0,68.67017,19.36572Z"/>
        </g>
      </g>
    </g>
  </g>
</svg>
