<svg xmlns="http://www.w3.org/2000/svg" viewBox="0 0 150 40">
  <defs>
    <style>
      .cls-1 {
        fill: #d88c12;
      }

      .cls-2 {
        fill: none;
        stroke: #f4d553;
        stroke-miterlimit: 10;
        stroke-width: 3.54331px;
      }

      .cls-3 {
        fill: #e2dfcf;
      }

      .cls-4 {
        fill: #585b35;
      }
    </style>
  </defs>
  <title>link_hoshi_imo</title>
  <g id="レイヤー_2" data-name="レイヤー 2">
    <g id="レイヤー_1-2" data-name="レイヤー 1">
      <g>
        <g>
          <rect class="cls-1" width="150" height="40"/>
          <line class="cls-2" y1="35" x2="150" y2="35"/>
        </g>
        <g>
          <g>
            <polygon class="cls-3" points="62.87 6.913 60.728 4.428 59.076 5.797 61.263 8.222 62.87 6.913"/>
            <polygon class="cls-3" points="60.802 8.847 58.541 6.213 56.949 7.642 59.21 10.26 60.802 8.847"/>
            <path class="cls-3" d="M24.80225,8.37061c.02978.22314.07421.55078.13379.96728a3.71915,3.71915,0,0,0-2.083.74365,2.29257,2.29257,0,0,0-.99658,1.88965,2.505,2.505,0,0,0,.68457,1.78516,2.21793,2.21793,0,0,0,1.71093.729,2.37109,2.37109,0,0,0,1.5918-.63965,3.35788,3.35788,0,0,0,.9668-1.47314,9.58034,9.58034,0,0,1,1.20508.90771l1.33886-1.83007A6.95828,6.95828,0,0,0,27.019,9.769c0-.4165-.02978-.89258-.0747-1.42822l.95214.35742.729-1.96386a27.37242,27.37242,0,0,0-4.18018-1.25L23.731,7.40381c.66943.17822,1.65136.44629,2.93066.833Zm-.13379,3.61523c-.13428.22314-.26807.32764-.38721.32764-.26758,0-.38672-.1045-.38672-.34229a.44416.44416,0,0,1,.25293-.40185.84913.84913,0,0,1,.47608-.13379,1.4415,1.4415,0,0,1,.25292.02978A1.53049,1.53049,0,0,1,24.66846,11.98584Z"/>
            <path class="cls-3" d="M65.17578,22.083l.17871-.89258-2.15722-.34229-.17872.71387c-.3125,0-.87744.04492-1.6958.10449a2.34067,2.34067,0,0,1-.02978-.50586,3.16954,3.16954,0,0,1,.04443-.50585c.41651-.02979.78858-.04493,1.08643-.04493a12.16062,12.16062,0,0,1,3.67431.64014l.521-2.083a18.9954,18.9954,0,0,0-5.02881-.60986,2.17336,2.17336,0,0,1,.13428-.56543l-2.2915-.04492a2.74677,2.74677,0,0,0-.14844.83349,12.73477,12.73477,0,0,0-2.24658.5503L57.499,21.5918a8.93361,8.93361,0,0,1,1.60694-.5503c-.01465.17871-.01465.29737-.01465.38672a7.91381,7.91381,0,0,0,.05908.9375,5.23357,5.23357,0,0,0-1.68115,1.4878,3.47818,3.47818,0,0,0-.74365,2.09765,2.62342,2.62342,0,0,0,.81836,1.99317,2.71286,2.71286,0,0,0,2.0083.78857,4.23675,4.23675,0,0,0,3.02-1.458,8.2371,8.2371,0,0,0,1.85986-2.88623,1.37793,1.37793,0,0,1,.35693.90772,2.05116,2.05116,0,0,1-.52051,1.19043,3.94815,3.94815,0,0,1-.98193.89257l1.47266,1.53223A4.07712,4.07712,0,0,0,66.5,27.42383a3.93307,3.93307,0,0,0,.66943-2.187,3.55608,3.55608,0,0,0-.55029-1.85938A3.44868,3.44868,0,0,0,65.17578,22.083Zm-5.86133,4.28467c-.26806,0-.3872-.13379-.3872-.40186,0-.26758.23828-.58008.729-.937a8.021,8.021,0,0,0,.3125,1.02637A.93365.93365,0,0,1,59.31445,26.36768Zm2.43946-1.77051c-.0293-.104-.05909-.26758-.11866-.50586a2.99039,2.99039,0,0,1,.49073-.11914A3.18949,3.18949,0,0,1,61.75391,24.59717Z"/>
            <path class="cls-3" d="M73.06445,19.40479l-2.06787-.62452a6.25151,6.25151,0,0,0-1.53222,4.21,5.97758,5.97758,0,0,0,1.42822,3.97266l2.02344-.89307a6.15551,6.15551,0,0,1,.14843-6.665Z"/>
            <path class="cls-3" d="M78.06348,18.81006l.47607,1.05615a3.02869,3.02869,0,0,1-.46142-.04443c-.22315-.65479-.43116-1.19043-.60987-1.62207l-2.2168.58056.47608,1.20508a9.16009,9.16009,0,0,0-2.5293.87744l.47656,1.96387a12.08156,12.08156,0,0,1,2.60352-.77344c.14844,1.04151.22314,1.5918.22314,1.68116a2.52987,2.52987,0,0,1-.81835,1.90429,3.17705,3.17705,0,0,1-1.96387.90723l.729,2.35058.38672.01514a3.59459,3.59459,0,0,0,2.03809-.68457,5.07548,5.07548,0,0,0,1.42822-1.666,5.47825,5.47825,0,0,0,.56543-2.60352,9.48144,9.48144,0,0,0-.22315-1.9043l.78858.13379.04443-1.83008.3125-.13379-.833-1.7705Z"/>
            <path class="cls-3" d="M69.49414,12.32813l1.99365,2.24658a17.88876,17.88876,0,0,0,3.79346-2.58887,13.51561,13.51561,0,0,1,2.88623,2.35059l1.91943-2.05274a13.9157,13.9157,0,0,0-2.93115-2.35058,4.25812,4.25812,0,0,0,.9375-2.67823,3.303,3.303,0,0,0-3.33252-3.33252A9.57766,9.57766,0,0,0,70.05957,5.291l.62451,2.82666A7.212,7.212,0,0,1,74.21,7.09131a.82342.82342,0,0,1,.56543.22314.78675.78675,0,0,1,.23828.56543.62074.62074,0,0,1-.05957.2378,6.8551,6.8551,0,0,1-2.38037,2.46972A18.28719,18.28719,0,0,1,69.49414,12.32813Z"/>
            <path class="cls-3" d="M60.86133,11.65869a5.01068,5.01068,0,0,1-2.51416-.71435L56.77,12.98291a6.8656,6.8656,0,0,0,4.24023,1.47266,5.7152,5.7152,0,0,0,1.66651-.22315,5.78512,5.78512,0,0,0,3.16845-2.812,13.103,13.103,0,0,0,1.50293-4.106L64.89307,6.5708A7.49832,7.49832,0,0,1,63.688,9.87354,3.414,3.414,0,0,1,60.86133,11.65869Z"/>
            <polygon class="cls-3" points="27.212 20.997 26.379 19.241 25.353 19.643 26.156 21.458 27.212 20.997"/>
            <polygon class="cls-3" points="28.715 20.789 27.896 19.033 26.855 19.435 27.673 21.25 28.715 20.789"/>
            <path class="cls-3" d="M11.23047,14.55957a4.65857,4.65857,0,0,0,2.64795-.90723,7.56325,7.56325,0,0,0,2.02344-1.99365L14.02734,10.1709a4.396,4.396,0,0,1-1.20507,1.36865,2.72676,2.72676,0,0,1-1.65137.63965,2.01172,2.01172,0,0,1-1.458-.59473,1.92774,1.92774,0,0,1-.625-1.44336,7.767,7.767,0,0,1,1.5918-4.86474L8.582,4.24951A8.82656,8.82656,0,0,0,6.648,9.814a4.71929,4.71929,0,0,0,1.29443,3.377A4.28008,4.28008,0,0,0,11.23047,14.55957Z"/>
            <path class="cls-3" d="M52.74951,21.25c.08936-.38721.2085-.96729.35742-1.75586l-2.36572-.60986a6.68316,6.68316,0,0,1-.34228,1.60693c-.29737-.02978-.58008-.05957-.8628-.05957a5.87308,5.87308,0,0,0-3.57031,1.23486,3.8836,3.8836,0,0,0-1.81543,3.19825,3.29707,3.29707,0,0,0,.8335,2.2915,2.74711,2.74711,0,0,0,2.17187.95215c1.60694,0,3.13916-1.39844,4.61182-4.2251a1.76623,1.76623,0,0,1,.417,1.13037,2.98118,2.98118,0,0,1-1.0415,2.02344l2.23144,1.10107a4.10737,4.10737,0,0,0,1.36865-3.10937A4.27434,4.27434,0,0,0,52.74951,21.25ZM48.376,24.478c-.55078.74414-.9375,1.11572-1.17578,1.11572a.3356.3356,0,0,1-.312-.16357.53272.53272,0,0,1-.13427-.35694.6075.6075,0,0,1,.01513-.14892,2.70243,2.70243,0,0,1,.8628-1.42823,2.25288,2.25288,0,0,1,1.50244-.5205h.19385A16.83209,16.83209,0,0,1,48.376,24.478Z"/>
            <path class="cls-3" d="M19.35693,8.8916a16.92127,16.92127,0,0,0-.29736,2.916l.01465.74365,2.39551-.29736a22.1793,22.1793,0,0,1,.29736-4.09131l1.36865-.41651L23.04688,5.544l-.81836.22314q.26733-1.04883.44628-1.60645H20.60693a14.13929,14.13929,0,0,0-.729,2.291l-1.25.37207.2085,2.23145Z"/>
            <path class="cls-3" d="M23.80518,20.68457a4.8039,4.8039,0,0,0-1.08594-.13428,5.32459,5.32459,0,0,0-2.42481.64014,7.34873,7.34873,0,0,0-1.99365,1.53223l1.39844,1.94873a3.4,3.4,0,0,1,2.87158-1.5918,5.68107,5.68107,0,0,1,2.90088,1.10107c.59521.40186,1.42822,1.07129,2.5293,1.99366l1.71093-1.83008c-.9375-.74365-1.88964-1.44287-2.85644-2.083A11.6159,11.6159,0,0,0,23.80518,20.68457Z"/>
            <path class="cls-3" d="M38.52344,25.90625a1.80034,1.80034,0,0,1-2.43994-.02979,1.57172,1.57172,0,0,1-.53565-1.20507c.68408.05957,1.75537.19336,3.1836.40185l.3125-2.06787a24.01963,24.01963,0,0,0-3.22852-.38672l.17871-.625c.69922.08936,1.74072.25293,3.13916.47608l.34229-1.91944c-.59522-.08886-1.50293-.25244-2.69288-.47558a6.94449,6.94449,0,0,1,.63965-1.02686l-2.45459-.92236a11.67289,11.67289,0,0,0-.9375,1.69629l-1.88916-.01514-.11914,1.9043,1.33887.04443-.14893.729H31.87305L31.75391,24.478l1.27978.02978c0,.50586.01465.81836.02979.9375a3.65358,3.65358,0,0,0,1.62158,2.79688,3.78754,3.78754,0,0,0,2.27588.74365,4.51149,4.51149,0,0,0,2.67822-.98193,6.29488,6.29488,0,0,0,1.85938-2.20166l-2.187-.98194A2.692,2.692,0,0,1,38.52344,25.90625Z"/>
            <path class="cls-3" d="M15.12842,19.12256c-.86328-.28272-1.72608-.53565-2.60352-.77393l.62451-.37207-1.91894-.90722c-1.07129.56543-2.12744,1.13037-3.1543,1.72558-1.041.59522-2.06787,1.22022-3.06445,1.84473l1.50244,1.74072c.17871-.13379.37207-.26758.56543-.4165.17871-.13379.37207-.26758.56543-.40186L7.794,22.6333l.71386-.25293a19.08358,19.08358,0,0,0-.35693,2.2168,14.2231,14.2231,0,0,0-.07471,2.24658c-.44629.104-.89258.22314-1.32373.34229-.44629.13378-.87793.28222-1.29443.43115l.74365,2.12744a23.49642,23.49642,0,0,1,3.19873-1.18994,25.84539,25.84539,0,0,1,3.34766-.74414l-.05957-.60987c.62451.35694,1.23486.729,1.85937,1.08594.61035.37207,1.22022.74414,1.83008,1.14551l1.39844-1.6958c-.38672-.22315-.78858-.43164-1.1753-.63965-.4165-.19336-.81836-.38672-1.21972-.56543.23779-.28271.50586-.56543.78808-.84814.26807-.26758.53565-.52051.81836-.77344l-1.47265-.35694a8.97669,8.97669,0,0,0-.08936-1.78564,9.99555,9.99555,0,0,0-.50586-1.72559c.35694.17871.71436.37207,1.07129.5503.34229.19336.68408.3872,1.0415.58056l.6543-2.11279C16.83936,19.73242,15.99121,19.41992,15.12842,19.12256Zm-2.187.9668c.208.104.40136.20849.60986.29736a3.76048,3.76048,0,0,1-.56543-.04443c-.208,0-.4165-.01514-.59521-.01514l-.08887-.52051C12.50977,19.91064,12.73291,20,12.94141,20.08936ZM11.022,19.271l.26807.11914-.49121.01465Zm-.43115,2.7373c.35693-.0293.71387-.05908,1.0708-.05908a8.44482,8.44482,0,0,1,1.05664.07422,2.07509,2.07509,0,0,1,.23779.07422,1.60461,1.60461,0,0,0,.14893.17871l.17822.32715c-.47558-.02979-.937-.02979-1.41308-.01465-.47608.02978-.95215.07422-1.41358.13379Zm-.25293,1.50293q.75879-.08936,1.51758-.13379c.50537-.01514,1.01123,0,1.50244.0293l.08936.37207c-.521-.02979-1.04151-.04443-1.5625-.02979-.53516.02979-1.07081.07471-1.5918.14893ZM9.43018,20.625c-.2378.05957-.47608.104-.69922.16357.20849-.14892.4165-.29736.63965-.44628.20849-.14893.43164-.28272.66943-.43165l.10449.58057Q9.76514,20.55786,9.43018,20.625Zm4.28466,4.67139a4.63816,4.63816,0,0,0-.37207.38672c-.32714-.11915-.65429-.22315-.98193-.34229-.32715-.11865-.66943-.23779-.99658-.35693l-1.04151.86279c.14893.07471.28272.14893.41651.22314a4.61031,4.61031,0,0,0,.40185.25293c-.16357.01514-.3125.02979-.46142.02979-.16358.02978-.32715.04492-.47608.07471a7.35418,7.35418,0,0,1,0-.80371v-.78809c.53565-.08936,1.07129-.16406,1.62207-.2085a11.7744,11.7744,0,0,1,1.62159.05957l-.05957.29737.74365-.04444A5.25913,5.25913,0,0,0,13.71484,25.29639Z"/>
            <path class="cls-3" d="M99.83691,9.457c.17823.23779.47608.60986.8628,1.08594a4.76779,4.76779,0,0,1-2.38037.729.60507.60507,0,0,1-.44629-.17871.56591.56591,0,0,1-.19336-.44629.65512.65512,0,0,1,.04443-.20849,26.19727,26.19727,0,0,1,2.70752-5.34082l-2.52881-.77344A20.5663,20.5663,0,0,0,94.83789,11.376a5.0641,5.0641,0,0,0-.08935.69922,1.62751,1.62751,0,0,0,.61035,1.354,2.18942,2.18942,0,0,0,1.47265.50586,14.93434,14.93434,0,0,0,5.32617-.99707,11.51822,11.51822,0,0,0,.49073,1.20508l2.48486-1.3833a18.26725,18.26725,0,0,0-3.03516-4.82032Z"/>
            <path class="cls-3" d="M115.43164,6.70459a7.42422,7.42422,0,0,1,1.13086.104l-.17871-2.187a10.61107,10.61107,0,0,0-1.16016-.07422,7.67307,7.67307,0,0,0-4.27,1.24952L112.0249,7.731A5.9338,5.9338,0,0,1,115.43164,6.70459Z"/>
            <path class="cls-3" d="M113.9292,11.56934a5.79688,5.79688,0,0,1-2.45459-.50586l-.80371,2.291a7.5669,7.5669,0,0,0,7.05224-.26758l-1.23486-2.03808A6.06094,6.06094,0,0,1,113.9292,11.56934Z"/>
            <polygon class="cls-3" points="79.388 18.542 80.206 20.357 81.098 19.94 80.265 18.17 79.388 18.542"/>
            <path class="cls-3" d="M110.49268,4.60693h-2.66309a14.059,14.059,0,0,0-.52051,3.88282,14.91935,14.91935,0,0,0,.89258,5.22216l2.30566-.95214a11.42709,11.42709,0,0,1-.69921-4.06153A11.98325,11.98325,0,0,1,110.49268,4.60693Z"/>
            <path class="cls-3" d="M102.09814,23.63037l.14893-.75879-1.5625-.22314-.17822.98193c-.38672.104-.729.19336-.99707.26758a13.11058,13.11058,0,0,1-.43115-1.29443l-1.69629.44628q.04467.20068.49121,1.51758a10.44117,10.44117,0,0,0-1.16065.65479l.55078,1.47265c.2378-.14892.62452-.34228,1.14551-.60986.11865.34229.52051,1.30908,1.18994,2.916l1.65137-.59522a25.81576,25.81576,0,0,1-1.21973-2.97558,3.833,3.833,0,0,1,1.29444-.41651.35491.35491,0,0,1,.40136.40186c0,.29736-.3125.59521-.937.90722l1.02637.87793c1.01172-.60986,1.51758-1.26464,1.51758-1.97851a1.74771,1.74771,0,0,0-.34229-1.04151A1.43055,1.43055,0,0,0,102.09814,23.63037Z"/>
            <path class="cls-3" d="M49.81885,14.72314l1.99365-1.97851a5.597,5.597,0,0,1-1.63672-1.42822,3.24261,3.24261,0,0,1-.84765-1.93409,3.55316,3.55316,0,0,1,.96679-2.15722,7.50151,7.50151,0,0,1,1.81494-1.62158L50.11621,3.86279A16.83536,16.83536,0,0,0,47.03662,6.9873a3.54021,3.54021,0,0,0-.729,2.12745,5.664,5.664,0,0,0,1.26465,3.0498A14.28386,14.28386,0,0,0,49.81885,14.72314Z"/>
            <path class="cls-3" d="M113.9292,20l-1.30908-1.97852-2.083.90723.84814,1.36914a11.67057,11.67057,0,0,0-3.4663,1.79981l1.1455,2.12744a6.22286,6.22286,0,0,1,3.95752-1.60645,1.90274,1.90274,0,0,1,1.1753.3418,1.33363,1.33363,0,0,1,.49072,1.10107c0,1.02637-.9668,1.96387-2.88623,2.82666l1.83008,2.14258a7.04394,7.04394,0,0,0,2.70752-2.05322,4.9644,4.9644,0,0,0,1.11572-3.169,3.92815,3.92815,0,0,0-.95215-2.67773A3.3257,3.3257,0,0,0,113.9292,20Z"/>
            <path class="cls-3" d="M34.86328,7.55273c-.08887.40137-.19336.80323-.28271,1.20459a5.743,5.743,0,0,0-.14844,1.20508,1.29688,1.29688,0,0,0,.28271.84815.92714.92714,0,0,0,.77344.34228,3.856,3.856,0,0,0,1.17529-.40185,3.57174,3.57174,0,0,1,1.2793-.40137.63609.63609,0,0,1,.47608.25293.79062.79062,0,0,1,.20849.50586c0,.28223-.28271.58008-.833.90723a5.82826,5.82826,0,0,1-1.23486.56542l1.02637,1.94874a6.33889,6.33889,0,0,0,2.41015-1.41309,3.3698,3.3698,0,0,0,1.1753-2.43994A2.22926,2.22926,0,0,0,40.398,8.96582a2.73525,2.73525,0,0,0-1.83008-.69922,3.79262,3.79262,0,0,0-1.2793.22315l.19336-1.08594a18.37641,18.37641,0,0,1,3.645.35693l.41651-2.26123c-.625-.08935-1.8003-.19336-3.55567-.3125.07422-.26758.208-.68457.40137-1.23486H35.875c-.08936.29736-.23779.729-.4165,1.30908-1.21973.10449-2.395.26807-3.52588.47607l.66943,2.27637C33.37549,7.835,34.13428,7.67139,34.86328,7.55273Z"/>
            <path class="cls-3" d="M82.29248,7.50781l.43164,2.36573a28.54075,28.54075,0,0,1,3.51123-.43165,4.16167,4.16167,0,0,1-.69922,1.93409,3.77347,3.77347,0,0,1-1.5625,1.33886l1.91944,1.51758A5.729,5.729,0,0,0,87.96094,12.209a6.077,6.077,0,0,0,.89258-2.752c.60986.04443,1.60693.16358,3.00537.37158l.40185-2.43994a24.04851,24.04851,0,0,0-4.58252-.44629A25.52726,25.52726,0,0,0,82.29248,7.50781Z"/>
            <path class="cls-3" d="M87.5293,6.61523a28.7334,28.7334,0,0,1,3.80859.25293l.3125-2.3208a26.61947,26.61947,0,0,0-8.64355.14893l.28271,2.24609A29.75411,29.75411,0,0,1,87.5293,6.61523Z"/>
            <path class="cls-3" d="M88.9873,18.12549H86.47314c-.08935.29736-.23779.729-.4165,1.30908-1.21973.10449-2.395.26807-3.52588.47607L83.2002,22.187c.77343-.17871,1.53222-.34228,2.26123-.46094-.08936.40137-.19336.80323-.28272,1.20508a5.73217,5.73217,0,0,0-.14844,1.20459,1.29689,1.29689,0,0,0,.28272.84815.92714.92714,0,0,0,.77344.34228,3.85611,3.85611,0,0,0,1.17529-.40185A3.57174,3.57174,0,0,1,88.541,24.523a.63607.63607,0,0,1,.47607.25293.79058.79058,0,0,1,.2085.50586c0,.28222-.28272.58008-.833.90722a5.8281,5.8281,0,0,1-1.23487.56543l1.02637,1.94874A6.33885,6.33885,0,0,0,90.59424,27.29a3.36979,3.36979,0,0,0,1.17529-2.43994,2.22926,2.22926,0,0,0-.77344-1.71094,2.7352,2.7352,0,0,0-1.83007-.69922,3.79258,3.79258,0,0,0-1.2793.22315l.19336-1.08594a18.37655,18.37655,0,0,1,3.645.35693l.4165-2.26123c-.625-.08935-1.80029-.19336-3.55566-.3125C88.66016,19.09277,88.794,18.67578,88.9873,18.12549Z"/>
          </g>
          <g>
            <path class="cls-4" d="M29.60742,21.10107,28.209,18.11084l-1.33886.55029-.16358-.34228-2.30615.95215.53565,1.13086a5.39513,5.39513,0,0,0-2.02344-.521,6.84287,6.84287,0,0,0-5.27686,2.61206l-.09039.29492L19.625,25.728c.937-1.33936,1.9043-2.02344,2.88623-2.02344a3.55636,3.55636,0,0,1,.937.13379q1.47291.42406,4.59717,3.2583l2.58887-2.812A31.26376,31.26376,0,0,0,27.65869,21.979ZM27.89648,19.0332l.81836,1.75537-1.0415.46143-.81787-1.81543Zm-1.51709.208.833,1.75586-1.05615.46094-.80371-1.81494Zm3.33252,5.103L28.001,26.17432c-1.10108-.92237-1.93409-1.5918-2.5293-1.99366a5.68107,5.68107,0,0,0-2.90088-1.10107,3.4,3.4,0,0,0-2.87158,1.5918l-1.39844-1.94873a7.34873,7.34873,0,0,1,1.99365-1.53223,5.32459,5.32459,0,0,1,2.42481-.64014,4.8039,4.8039,0,0,1,1.08594.13428,11.6159,11.6159,0,0,1,3.05029,1.57666C27.82227,22.90137,28.77441,23.60059,29.71191,24.34424Z"/>
            <g>
              <path class="cls-4" d="M11.29,15.21436a5.366,5.366,0,0,0,3.19824-1.14551,9.97874,9.97874,0,0,0,2.33594-2.54395L13.84863,9.15918a5.23823,5.23823,0,0,1-1.0708,1.51758,2.32664,2.32664,0,0,1-1.57715.833,1.46831,1.46831,0,0,1-1.0415-.37159,1.3345,1.3345,0,0,1-.40186-1.01172A7.52344,7.52344,0,0,1,11.69141,5.0083L8.35889,3.43164A9.47378,9.47378,0,0,0,5.97852,9.814a5.24732,5.24732,0,0,0,1.50293,3.853A5.06844,5.06844,0,0,0,11.29,15.21436ZM8.582,4.24951l2.09766,1.02686a7.767,7.767,0,0,0-1.5918,4.86474,1.92774,1.92774,0,0,0,.625,1.44336,2.01172,2.01172,0,0,0,1.458.59473,2.72676,2.72676,0,0,0,1.65137-.63965,4.396,4.396,0,0,0,1.20507-1.36865l1.87452,1.48779a7.56325,7.56325,0,0,1-2.02344,1.99365,4.65857,4.65857,0,0,1-2.64795.90723,4.28008,4.28008,0,0,1-3.28809-1.36865A4.71929,4.71929,0,0,1,6.648,9.814,8.82656,8.82656,0,0,1,8.582,4.24951Z"/>
              <path class="cls-4" d="M18.56836,9.814c-.11865,1.16016-.17822,2.06788-.17822,2.69288l.01465.81787,2.916-.38672a2.7645,2.7645,0,0,0,1.10108,1.5918,2.988,2.988,0,0,0,1.84472.61035,3.25659,3.25659,0,0,0,2.82666-1.8003q.66943.64674.98194.98194l2.12744-2.88623a7.84987,7.84987,0,0,0-2.5293-2.09766V9.30811a6.21365,6.21365,0,0,0,.59521.23779l1.22022-3.1836a33.02863,33.02863,0,0,0-5.46045-1.63671l-.32715.86328-.02978-.92237-.52051.14844a13.20991,13.20991,0,0,1,.40185-1.32373H20.16064a19.53591,19.53591,0,0,0-.81835,2.43945l-1.44336.417L18.271,9.918Zm5.877-4.32958a27.37242,27.37242,0,0,1,4.18018,1.25l-.729,1.96386-.95214-.35742c.04492.53564.0747,1.01172.0747,1.42822a6.95828,6.95828,0,0,1,2.33545,1.68116l-1.33886,1.83007a9.58034,9.58034,0,0,0-1.20508-.90771,3.35788,3.35788,0,0,1-.9668,1.47314,2.37109,2.37109,0,0,1-1.5918.63965,2.21793,2.21793,0,0,1-1.71093-.729,2.505,2.505,0,0,1-.68457-1.78516,2.29257,2.29257,0,0,1,.99658-1.88965,3.71915,3.71915,0,0,1,2.083-.74365c-.05958-.4165-.104-.74414-.13379-.96728l1.85937-.13379c-1.2793-.38672-2.26123-.65479-2.93066-.833Zm-.625,2.73779V8.08789a.74756.74756,0,0,0,.25293.07471,2.70315,2.70315,0,0,0,.11914.59472,4.21642,4.21642,0,0,0-1.94922.95215c.02979-.4165.07471-.77343.11914-1.041ZM19.87793,6.45166a14.13929,14.13929,0,0,1,.729-2.291H22.6748q-.17871.55739-.44628,1.60645l.81836-.22314.08886,2.20214-1.36865.41651a22.1793,22.1793,0,0,0-.29736,4.09131l-2.39551.29736-.01465-.74365a16.92127,16.92127,0,0,1,.29736-2.916l-.5205.16358-.2085-2.23145Z"/>
              <path class="cls-4" d="M24.14746,11.56934a.44416.44416,0,0,0-.25293.40185c0,.23779.11914.34229.38672.34229.11914,0,.25293-.1045.38721-.32764a1.53049,1.53049,0,0,0,.208-.52051,1.4415,1.4415,0,0,0-.25292-.02978A.84913.84913,0,0,0,24.14746,11.56934Z"/>
              <path class="cls-4" d="M34.01563,8.356a9.43092,9.43092,0,0,0-.25293,1.63623,1.80111,1.80111,0,0,0,.49072,1.26465,1.57177,1.57177,0,0,0,1.20508.53564,3.285,3.285,0,0,0,1.24951-.38672,3.92778,3.92778,0,0,1,1.10107-.37207c.01514,0,.02979.01514.04492.01514l.04444.05957v.05908a3.57829,3.57829,0,0,1-1.08594.59522,8.9149,8.9149,0,0,1-1.22021.43164l1.6665,3.13916a8.10674,8.10674,0,0,0,3.06445-1.65137,3.96592,3.96592,0,0,0,1.50293-2.99072A3.02537,3.02537,0,0,0,40.7251,8.34082a7.2667,7.2667,0,0,0,.9375.22314l.62451-3.61523A27.25422,27.25422,0,0,0,38.88037,4.562c.28272-.81787.43115-1.23486.43115-1.26465H35.39893a13.94818,13.94818,0,0,0-.44629,1.33936,38.0607,38.0607,0,0,0-3.83838.59473l1.02685,3.58544C32.55762,8.69824,33.18213,8.54932,34.01563,8.356ZM35.4585,5.26123c.17871-.58008.32714-1.01172.4165-1.30908h2.51416c-.19336.55029-.32715.96728-.40137,1.23486,1.75537.11914,2.93067.22315,3.55567.3125L41.127,7.76074a18.37641,18.37641,0,0,0-3.645-.35693l-.19336,1.08594a3.79262,3.79262,0,0,1,1.2793-.22315,2.73525,2.73525,0,0,1,1.83008.69922,2.22926,2.22926,0,0,1,.77344,1.71094,3.3698,3.3698,0,0,1-1.1753,2.43994,6.33889,6.33889,0,0,1-2.41015,1.41309l-1.02637-1.94874a5.82826,5.82826,0,0,0,1.23486-.56542c.5503-.32715.833-.625.833-.90723a.79062.79062,0,0,0-.20849-.50586.63609.63609,0,0,0-.47608-.25293,3.57174,3.57174,0,0,0-1.2793.40137,3.856,3.856,0,0,1-1.17529.40185.92714.92714,0,0,1-.77344-.34228,1.29688,1.29688,0,0,1-.28271-.84815,5.743,5.743,0,0,1,.14844-1.20508c.08935-.40136.19384-.80322.28271-1.20459-.729.11866-1.48779.28223-2.26123.46094L31.93262,5.7373C33.06348,5.5293,34.23877,5.36572,35.4585,5.26123Z"/>
              <path class="cls-4" d="M49.8335,15.63086l2.96093-2.97559a7.87354,7.87354,0,0,1-1.7705-1.39843,2.96769,2.96769,0,0,1-1.02637-1.88916A3.356,3.356,0,0,1,51.15771,7.2251a9.01054,9.01054,0,0,1,2.02344-1.562L50.17578,3a17.64061,17.64061,0,0,0-3.645,3.541,4.26132,4.26132,0,0,0-.87744,2.60351,6.3233,6.3233,0,0,0,1.48779,3.55567A17.50491,17.50491,0,0,0,49.8335,15.63086ZM47.03662,6.9873a16.83536,16.83536,0,0,1,3.07959-3.12451l1.99365,1.74073A7.50151,7.50151,0,0,0,50.29492,7.2251a3.55316,3.55316,0,0,0-.96679,2.15722,3.24261,3.24261,0,0,0,.84765,1.93409,5.597,5.597,0,0,0,1.63672,1.42822l-1.99365,1.97851a14.28386,14.28386,0,0,1-2.24658-2.55859,5.664,5.664,0,0,1-1.26465-3.0498A3.54021,3.54021,0,0,1,47.03662,6.9873Z"/>
              <path class="cls-4" d="M63.43506,9.09961A3.07315,3.07315,0,0,1,60.75732,11.019a3.16336,3.16336,0,0,1-1.20507-.23828l2.17236-1.85937-.14893-.14893,2.24659-1.75537L60.78711,3.53564l-2.15723,1.815-.04443-.07422-2.55908,2.3208,2.187,2.48437-2.291,2.93116a5.85288,5.85288,0,0,0,2.3208,1.57666,7.81908,7.81908,0,0,0,2.78223.50585,7.0179,7.0179,0,0,0,1.87451-.23779A6.32545,6.32545,0,0,0,66.5,11.59912a13.82746,13.82746,0,0,0,1.57715-4.76074l-3.8086-1.16065A7.142,7.142,0,0,1,63.43506,9.09961ZM60.72754,4.42822,62.87012,6.9126,61.26318,8.22217l-2.187-2.42529ZM56.94873,7.6416l1.5918-1.42822,2.26123,2.6333L59.21,10.26025Zm10.39941-.32715a13.103,13.103,0,0,1-1.50293,4.106,5.78512,5.78512,0,0,1-3.16845,2.812,5.7152,5.7152,0,0,1-1.66651.22315A6.8656,6.8656,0,0,1,56.77,12.98291l1.57715-2.03857a5.01068,5.01068,0,0,0,2.51416.71435A3.414,3.414,0,0,0,63.688,9.87354,7.49832,7.49832,0,0,0,64.89307,6.5708Z"/>
              <path class="cls-4" d="M73.6001,8.90625a16.12561,16.12561,0,0,1-5.1919,3.12451l2.93067,3.33252a22.735,22.735,0,0,0,4.00195-2.5293,9.76075,9.76075,0,0,1,2.75244,2.49952l2.81153-2.99073a12.12882,12.12882,0,0,0-2.85645-2.60351,5.01355,5.01355,0,0,0,.68457-2.54395A3.73976,3.73976,0,0,0,77.5127,4.32422a4.35843,4.35843,0,0,0-2.9751-1.05615,8.5734,8.5734,0,0,0-2.69287.53515,13.52858,13.52858,0,0,0-2.51416,1.14551l.89257,4.22559a9.501,9.501,0,0,1,1.85938-.98194A5.61046,5.61046,0,0,1,74.106,7.71631a.21885.21885,0,0,1,.23828.23779C74.34424,8.13281,74.09131,8.46,73.6001,8.90625Zm1.354-.78857a.62074.62074,0,0,0,.05957-.2378.78675.78675,0,0,0-.23828-.56543A.82342.82342,0,0,0,74.21,7.09131a7.212,7.212,0,0,0-3.52588,1.02637L70.05957,5.291a9.57766,9.57766,0,0,1,4.70117-1.36866,3.303,3.303,0,0,1,3.33252,3.33252,4.25812,4.25812,0,0,1-.9375,2.67823,13.9157,13.9157,0,0,1,2.93115,2.35058l-1.91943,2.05274a13.51561,13.51561,0,0,0-2.88623-2.35059,17.88876,17.88876,0,0,1-3.79346,2.58887l-1.99365-2.24658a18.28719,18.28719,0,0,0,3.07959-1.74073A6.8551,6.8551,0,0,0,74.9541,8.11768Z"/>
              <path class="cls-4" d="M92.39453,4.01172a30.95245,30.95245,0,0,0-4.70117-.37207,27.93848,27.93848,0,0,0-5.40088.53564l.3125,2.60352a5.42586,5.42586,0,0,0-1.02637.22314l.625,3.61524a28.00229,28.00229,0,0,1,3.228-.46094,3.28155,3.28155,0,0,1-1.10059,1.57666,3.07649,3.07649,0,0,1-1.78564.66943l3.2583,2.58887a6.674,6.674,0,0,0,2.41016-1.99365,6.46837,6.46837,0,0,0,1.21972-2.85645,21.904,21.904,0,0,1,2.9458.44629L93.019,6.88281c-.34179-.05908-.68408-.11865-1.01123-.19336Zm-4.6123.25293a27.99318,27.99318,0,0,1,3.86816.28271l-.3125,2.3208a28.7334,28.7334,0,0,0-3.80859-.25293,29.75411,29.75411,0,0,0-4.23975.32715l-.28271-2.24609A28.06405,28.06405,0,0,1,87.78223,4.26465Zm4.47851,3.124-.40185,2.43994c-1.39844-.208-2.39551-.32715-3.00537-.37158a6.077,6.077,0,0,1-.89258,2.752,5.729,5.729,0,0,1-2.06787,2.02344l-1.91944-1.51758a3.77347,3.77347,0,0,0,1.5625-1.33886,4.16167,4.16167,0,0,0,.69922-1.93409,28.54075,28.54075,0,0,0-3.51123.43165l-.43164-2.36573a25.52726,25.52726,0,0,1,5.38574-.56543A24.04851,24.04851,0,0,1,92.26074,7.38867Z"/>
              <path class="cls-4" d="M98.9292,9.21875a26.25945,26.25945,0,0,1,2.49951-4.50781L97.605,3.55029A32.086,32.086,0,0,0,95.35889,7.6416a11.46425,11.46425,0,0,0-1.26465,4.38916,2.42806,2.42806,0,0,0,.74365,1.78516,2.40261,2.40261,0,0,0,1.78516.77344,16.29715,16.29715,0,0,0,5.207-.833c.22363.75879.35742,1.19043.40185,1.32422l3.71924-2.02344a18.0557,18.0557,0,0,0-3.62988-6.01025ZM99.70264,10.29a5.19233,5.19233,0,0,1-1.33887.34228q.134-.40209.49121-1.20507C99.15234,9.70947,99.43506,9.99219,99.70264,10.29Zm2.9458,3.853a11.51822,11.51822,0,0,1-.49073-1.20508,14.93434,14.93434,0,0,1-5.32617.99707,2.18942,2.18942,0,0,1-1.47265-.50586,1.62751,1.62751,0,0,1-.61035-1.354,5.0641,5.0641,0,0,1,.08935-.69922,20.5663,20.5663,0,0,1,3.06494-7.05176l2.52881.77344a26.19727,26.19727,0,0,0-2.70752,5.34082.65512.65512,0,0,0-.04443.20849.56591.56591,0,0,0,.19336.44629.60507.60507,0,0,0,.44629.17871,4.76779,4.76779,0,0,0,2.38037-.729c-.38672-.47608-.68457-.84815-.8628-1.08594l2.26123-1.51758a18.26725,18.26725,0,0,1,3.03516,4.82032Z"/>
              <path class="cls-4" d="M113.91455,10.91455a5.27136,5.27136,0,0,1-2.82666-.78809l-.34228,1.041a10.70873,10.70873,0,0,1-.26807-2.55859,11.18832,11.18832,0,0,1,.17871-2.0083l1.16064,2.09765a5.69574,5.69574,0,0,1,3.67432-1.354,6.20462,6.20462,0,0,1,1.78565.28271l-.25293-3.55566a9.2473,9.2473,0,0,0-1.8003-.19336,8.56969,8.56969,0,0,0-4.16552,1.08594c.14843-.44629.28271-.78858.37158-1.02637h-4.09082a15.59011,15.59011,0,0,0-.68457,4.61182,15.93473,15.93473,0,0,0,1.16015,6.04l2.06836-.89258a8.12553,8.12553,0,0,0,4.06153,1.07129,8.22356,8.22356,0,0,0,4.70117-1.44336L116.75586,10.186A5.61464,5.61464,0,0,1,113.91455,10.91455Zm1.30908-6.36719a10.61107,10.61107,0,0,1,1.16016.07422l.17871,2.187a7.42422,7.42422,0,0,0-1.13086-.104A5.9338,5.9338,0,0,0,112.0249,7.731l-1.07129-1.93408A7.67307,7.67307,0,0,1,115.22363,4.54736Zm-7.022,9.16455a14.91935,14.91935,0,0,1-.89258-5.22216,14.059,14.059,0,0,1,.52051-3.88282h2.66309a11.98325,11.98325,0,0,0-.68457,4.09131,11.42709,11.42709,0,0,0,.69921,4.06153Zm5.72754.38672a7.26361,7.26361,0,0,1-3.2583-.74414l.80371-2.291a5.79688,5.79688,0,0,0,2.45459.50586,6.06094,6.06094,0,0,0,2.55908-.52051l1.23486,2.03808A7.32565,7.32565,0,0,1,113.9292,14.09863Z"/>
              <path class="cls-4" d="M13.2832,22.60352l-.17822-.32715a1.60461,1.60461,0,0,1-.14893-.17871,2.07509,2.07509,0,0,0-.23779-.07422,8.44482,8.44482,0,0,0-1.05664-.07422c-.35693,0-.71387.02978-1.0708.05908l-.13428.71436c.46143-.05957.9375-.104,1.41358-.13379C12.34619,22.57373,12.80762,22.57373,13.2832,22.60352Z"/>
              <polygon class="cls-4" points="11.022 19.271 10.799 19.405 11.29 19.39 11.022 19.271"/>
              <path class="cls-4" d="M12.98584,20.34229a3.76048,3.76048,0,0,0,.56543.04443c-.2085-.08887-.40186-.19336-.60986-.29736-.2085-.08936-.43164-.17872-.63965-.28272l.08887.52051C12.56934,20.32715,12.77783,20.34229,12.98584,20.34229Z"/>
              <path class="cls-4" d="M13.44727,23.77881l-.08936-.37207c-.49121-.0293-.99707-.04444-1.50244-.0293q-.75879.04395-1.51758.13379L10.293,23.898c.521-.07422,1.05664-.11914,1.5918-.14893C12.40576,23.73438,12.92627,23.749,13.44727,23.77881Z"/>
              <path class="cls-4" d="M9.37061,20.34229c-.22315.14892-.43116.29736-.63965.44628.22314-.05957.46142-.104.69922-.16357q.33471-.06738.71435-.13379L10.04,19.91064C9.80225,20.05957,9.5791,20.19336,9.37061,20.34229Z"/>
              <path class="cls-4" d="M13.44727,24.68652a11.7744,11.7744,0,0,0-1.62159-.05957c-.55078.04444-1.08642.11914-1.62207.2085v.78809a7.35418,7.35418,0,0,0,0,.80371c.14893-.02979.3125-.04493.47608-.07471.14892,0,.29785-.01465.46142-.02979a4.61031,4.61031,0,0,1-.40185-.25293c-.13379-.07421-.26758-.14843-.41651-.22314l1.04151-.86279c.32715.11914.66943.23828.99658.35693.32764.11914.65479.22314.98193.34229a4.63816,4.63816,0,0,1,.37207-.38672,5.25913,5.25913,0,0,1,.41651-.35694l-.74365.04444Z"/>
              <path class="cls-4" d="M17.63574,22.49292l.855-2.79028c-.71435-.3125-1.42822-.59522-2.15722-.8628-.74414-.26806-1.47315-.50586-2.2168-.729l.3125-.2085L11.23047,16.3252q-1.875.9375-3.66016,1.96386c-1.20459.68457-2.37988,1.41358-3.54052,2.187L6.45459,23.273l.68457-.58008.11914.75879.44629-.13379a10.85837,10.85837,0,0,0-.25293,1.47266,10.51245,10.51245,0,0,0-.05957,1.53222c-.47607.13428-.9375.26807-1.38379.417-.47607.14843-.92236.312-1.36865.49072l1.17529,3.42187A23.634,23.634,0,0,1,9.53418,29.1792a24.7576,24.7576,0,0,1,3.91309-.833c.50586.3125,1.01171.625,1.51709.95215q.75878.46875,1.51757.98193l2.291-2.7373c-.37158-.22315-.7583-.43164-1.14551-.63965-.38672-.19336-.78808-.38721-1.17529-.56543.26806-.3125.56543-.625.86328-.92236.29736-.28272.60986-.55078.937-.81836l-2.05322-.55029a8.16616,8.16616,0,0,0-.04443-.86329c-.02979-.28222-.08936-.56494-.14893-.86279.23828.14893.47607.28272.71435.43164.22315.14893.46094.29736.69922.44629l.12592-.41089-.07758-.10962C17.52258,22.61237,17.58026,22.55646,17.63574,22.49292Zm-.603-.32056c-.35742-.19336-.69921-.3872-1.0415-.58056-.35693-.17823-.71435-.37159-1.07129-.5503a9.99555,9.99555,0,0,1,.50586,1.72559,8.97669,8.97669,0,0,1,.08936,1.78564l1.47265.35694c-.28271.25293-.55029.50586-.81836.77344-.28222.28271-.55029.56543-.78808.84814.40136.17871.80322.37207,1.21972.56543.38672.208.78858.4165,1.1753.63965l-1.39844,1.6958c-.60986-.40137-1.21973-.77344-1.83008-1.14551-.62451-.35693-1.23486-.729-1.85937-1.08594l.05957.60987a25.84539,25.84539,0,0,0-3.34766.74414,23.49642,23.49642,0,0,0-3.19873,1.18994L5.458,27.61719c.4165-.14893.84814-.29737,1.29443-.43115.43115-.11915.87744-.23829,1.32373-.34229a14.2231,14.2231,0,0,1,.07471-2.24658,19.08358,19.08358,0,0,1,.35693-2.2168L7.794,22.6333,7.645,21.562c-.19336.13428-.38672.26807-.56543.40186-.19336.14892-.38672.28271-.56543.4165L5.01172,20.63965c.99658-.62451,2.02344-1.24951,3.06445-1.84473,1.02686-.59521,2.083-1.16015,3.1543-1.72558l1.91894.90722-.62451.37207c.87744.23828,1.74024.49121,2.60352.77393.86279.29736,1.71094.60986,2.55859.937Z"/>
              <path class="cls-4" d="M40.21924,20.05957c-1.04151-.23779-1.83008-.40186-2.35059-.50586a6.3,6.3,0,0,1,.59522-.833l-3.76416-1.38379A20.5108,20.5108,0,0,0,33.61377,19.167l-2.06787-.01513-.17871,2.67822h-.104l-.20849,3.2876,1.33886.01513a4.27038,4.27038,0,0,0,1.33936,3.1836,4.507,4.507,0,0,0,3.228,1.30908,5.11937,5.11937,0,0,0,3.27344-1.2793,6.95793,6.95793,0,0,0,2.1123-2.87109l-2.81152-1.27979C39.68359,23.03516,39.90674,21.6665,40.21924,20.05957Zm1.2793,5.74268a6.29488,6.29488,0,0,1-1.85938,2.20166,4.51149,4.51149,0,0,1-2.67822.98193,3.78754,3.78754,0,0,1-2.27588-.74365,3.65358,3.65358,0,0,1-1.62158-2.79688c-.01514-.11914-.02979-.43164-.02979-.9375L31.75391,24.478l.11914-1.99365h1.33886l.14893-.729L32.022,21.71094l.11914-1.9043,1.88916.01514a11.67289,11.67289,0,0,1,.9375-1.69629l2.45459.92236a6.94449,6.94449,0,0,0-.63965,1.02686c1.18995.22314,2.09766.38672,2.69288.47558l-.34229,1.91944c-1.39844-.22315-2.43994-.38672-3.13916-.47608l-.17871.625a24.01963,24.01963,0,0,1,3.22852.38672l-.3125,2.06787c-1.42823-.20849-2.49952-.34228-3.1836-.40185a1.57172,1.57172,0,0,0,.53565,1.20507,1.80034,1.80034,0,0,0,2.43994.02979,2.692,2.692,0,0,0,.78808-1.08594Zm-3.62989-.22315a.99612.99612,0,0,1-.56543.16358.88147.88147,0,0,1-.75879-.34229Z"/>
              <path class="cls-4" d="M53.5083,20.96729c.11914-.86329.23828-1.51758.32764-1.96387l-3.645-.95215c-.10449.78857-.19336,1.36865-.28272,1.72559a7.04926,7.04926,0,0,0-4.28466,1.30908A4.56432,4.56432,0,0,0,43.481,24.86475a3.92473,3.92473,0,0,0,1.02685,2.72265,3.37209,3.37209,0,0,0,2.6333,1.19043,4.72477,4.72477,0,0,0,3.24317-1.65137l-.08936.22315,3.15381,1.57666a4.83461,4.83461,0,0,0,1.93408-3.97217A4.91268,4.91268,0,0,0,53.5083,20.96729Zm-.13379,7.17089-2.23144-1.10107a2.98118,2.98118,0,0,0,1.0415-2.02344,1.76623,1.76623,0,0,0-.417-1.13037c-1.47266,2.82666-3.00488,4.2251-4.61182,4.2251a2.74711,2.74711,0,0,1-2.17187-.95215,3.29707,3.29707,0,0,1-.8335-2.2915,3.8836,3.8836,0,0,1,1.81543-3.19825,5.87308,5.87308,0,0,1,3.57031-1.23486c.28272,0,.56543.02979.8628.05957a6.68316,6.68316,0,0,0,.34228-1.60693l2.36572.60986c-.14892.78857-.26806,1.36865-.35742,1.75586a4.27434,4.27434,0,0,1,1.99365,3.77881A4.10737,4.10737,0,0,1,53.37451,28.13818Z"/>
              <path class="cls-4" d="M47.63184,23.49609a2.70243,2.70243,0,0,0-.8628,1.42823.6075.6075,0,0,0-.01513.14892.53272.53272,0,0,0,.13427.35694.3356.3356,0,0,0,.312.16357c.23828,0,.625-.37158,1.17578-1.11572a16.83209,16.83209,0,0,0,.95215-1.50244h-.19385A2.25288,2.25288,0,0,0,47.63184,23.49609Z"/>
              <path class="cls-4" d="M66.54443,22.09766l.86328-3.377a16.5209,16.5209,0,0,0-4.98388-.80322l.19336-.56543-3.73438-.05957c-.08935.4165-.14892.729-.19336.937a11.73739,11.73739,0,0,0-2.3955.69922l.71435,3.541c.625-.23828,1.11572-.43164,1.44287-.5503v.11866A5.24928,5.24928,0,0,0,56.77,23.68945a4.091,4.091,0,0,0-.69922,2.23194,3.24039,3.24039,0,0,0,.99707,2.48437,3.53969,3.53969,0,0,0,2.544.9668A4.79309,4.79309,0,0,0,62.855,27.88525l1.72607,1.78516a4.70761,4.70761,0,0,0,3.228-4.478,4.07493,4.07493,0,0,0-1.48779-3.16894Zm.07471,1.27978a3.55608,3.55608,0,0,1,.55029,1.85938,3.93307,3.93307,0,0,1-.66943,2.187,4.07712,4.07712,0,0,1-1.74072,1.48779l-1.47266-1.53223a3.94815,3.94815,0,0,0,.98193-.89257,2.05116,2.05116,0,0,0,.52051-1.19043,1.37793,1.37793,0,0,0-.35693-.90772,8.2371,8.2371,0,0,1-1.85986,2.88623,4.23675,4.23675,0,0,1-3.02,1.458,2.71286,2.71286,0,0,1-2.0083-.78857,2.62342,2.62342,0,0,1-.81836-1.99317,3.47818,3.47818,0,0,1,.74365-2.09765,5.23357,5.23357,0,0,1,1.68115-1.4878,7.91381,7.91381,0,0,1-.05908-.9375c0-.08935,0-.208.01465-.38672a8.93361,8.93361,0,0,0-1.60694.5503l-.46093-2.26123a12.73477,12.73477,0,0,1,2.24658-.5503,2.74677,2.74677,0,0,1,.14844-.83349l2.2915.04492a2.17336,2.17336,0,0,0-.13428.56543,18.9954,18.9954,0,0,1,5.02881.60986l-.521,2.083a12.16062,12.16062,0,0,0-3.67431-.64014c-.29785,0-.66992.01514-1.08643.04493a3.16954,3.16954,0,0,0-.04443.50585,2.34067,2.34067,0,0,0,.02978.50586c.81836-.05957,1.3833-.10449,1.6958-.10449l.17872-.71387,2.15722.34229-.17871.89258A3.44868,3.44868,0,0,1,66.61914,23.37744Z"/>
              <path class="cls-4" d="M61.75391,24.59717a3.18949,3.18949,0,0,0,.37207-.625,2.99039,2.99039,0,0,0-.49073.11914C61.69482,24.32959,61.72461,24.49316,61.75391,24.59717Z"/>
              <path class="cls-4" d="M58.92725,25.96582c0,.26807.11914.40186.3872.40186a.93365.93365,0,0,0,.6543-.3125,8.021,8.021,0,0,1-.3125-1.02637C59.16553,25.38574,58.92725,25.69824,58.92725,25.96582Z"/>
              <path class="cls-4" d="M79.19385,17.84277,79.0752,17.605l-.96729.4165c-.104-.20849-.208-.40185-.3125-.60986l-3.481.92236a7.04256,7.04256,0,0,1,.53565,1.1753,12.40527,12.40527,0,0,0-1.39893.47607,6.41659,6.41659,0,0,1,.729-.92236l-3.377-1.05664a6.88655,6.88655,0,0,0-2.0083,4.96924,6.78937,6.78937,0,0,0,1.93408,4.835L73.07959,26.71l.81836,2.79688a6.49314,6.49314,0,0,0,.7583.05957,4.42406,4.42406,0,0,0,3.5708-1.72608A5.94029,5.94029,0,0,0,79.53613,24.002a10.81628,10.81628,0,0,0-.07422-1.11572c.208.05957.43116.11914.6543.17871l.01514-1.93408,1.75537-.77393-1.44287-3.07959Zm-8.30127,9.12012a5.97758,5.97758,0,0,1-1.42822-3.97266,6.25151,6.25151,0,0,1,1.53222-4.21l2.06787.62452a6.15551,6.15551,0,0,0-.14843,6.665Zm1.77051-4.03174a5.81388,5.81388,0,0,1,.08886-.99707l.49121,1.81494a10.0781,10.0781,0,0,1,2.49952-.89257,5.43558,5.43558,0,0,1,.07421.89257,1.959,1.959,0,0,1-.68457,1.50293,2.238,2.238,0,0,1-1.57666.60987A5.15181,5.15181,0,0,1,72.66309,22.93115Zm6.81347-2.57422L79.43213,22.187l-.78858-.13379a9.48144,9.48144,0,0,1,.22315,1.9043,5.47825,5.47825,0,0,1-.56543,2.60352,5.07548,5.07548,0,0,1-1.42822,1.666,3.59459,3.59459,0,0,1-2.03809.68457l-.38672-.01514-.729-2.35058a3.17705,3.17705,0,0,0,1.96387-.90723,2.52987,2.52987,0,0,0,.81835-1.90429c0-.08936-.0747-.63965-.22314-1.68116a12.08156,12.08156,0,0,0-2.60352.77344l-.47656-1.96387a9.16009,9.16009,0,0,1,2.5293-.87744l-.47608-1.20508,2.2168-.58056c.17871.43164.38672.96728.60987,1.62207a3.02869,3.02869,0,0,0,.46142.04443l-.47607-1.05615.89257-.35742.833,1.7705Zm.729,0L79.3877,18.542l.87744-.37158.833,1.77Z"/>
              <path class="cls-4" d="M92.88525,19.12256a27.15336,27.15336,0,0,0-3.40673-.38721c.28271-.81787.43115-1.23486.43115-1.26465h-3.9126a13.951,13.951,0,0,0-.44629,1.33936,38.08269,38.08269,0,0,0-3.83838.59473l1.02686,3.58544c.4165-.11865,1.041-.26757,1.87451-.46093a9.432,9.432,0,0,0-.25293,1.63623,1.80111,1.80111,0,0,0,.49072,1.26465,1.57013,1.57013,0,0,0,1.20508.53564,3.28737,3.28737,0,0,0,1.24951-.38672,3.92279,3.92279,0,0,1,1.10108-.37207c.01513,0,.02978.01514.04492.01514l.04443.05957v.05908a3.57815,3.57815,0,0,1-1.08594.59522,8.91443,8.91443,0,0,1-1.22021.43164l1.6665,3.13916a8.10678,8.10678,0,0,0,3.06446-1.65137,3.96592,3.96592,0,0,0,1.50293-2.99072,3.02535,3.02535,0,0,0-1.10108-2.35059,7.26753,7.26753,0,0,0,.9375.22314ZM91.7251,21.93408a18.37655,18.37655,0,0,0-3.645-.35693l-.19336,1.08594a3.79258,3.79258,0,0,1,1.2793-.22315,2.7352,2.7352,0,0,1,1.83007.69922,2.22926,2.22926,0,0,1,.77344,1.71094A3.36979,3.36979,0,0,1,90.59424,27.29a6.33885,6.33885,0,0,1-2.41016,1.41309l-1.02637-1.94874a5.8281,5.8281,0,0,0,1.23487-.56543c.55029-.32714.833-.625.833-.90722a.79058.79058,0,0,0-.2085-.50586A.63607.63607,0,0,0,88.541,24.523a3.57174,3.57174,0,0,0-1.2793.40137,3.85611,3.85611,0,0,1-1.17529.40185.92714.92714,0,0,1-.77344-.34228,1.29689,1.29689,0,0,1-.28272-.84815,5.73217,5.73217,0,0,1,.14844-1.20459c.08936-.40185.19336-.80371.28272-1.20508-.729.11866-1.4878.28223-2.26123.46094l-.66944-2.27637c1.13086-.208,2.30615-.37158,3.52588-.47607.17871-.58008.32715-1.01172.4165-1.30908H88.9873c-.19335.55029-.32714.96728-.40136,1.23486,1.75537.11914,2.93066.22315,3.55566.3125Z"/>
              <path class="cls-4" d="M102.87158,23.21338l.14893-.89258-2.916-.4165-.08935,1.13086-.104.02978a4.60848,4.60848,0,0,1-.38672-1.25l-2.916.81836a6.28658,6.28658,0,0,0,.44629,1.62158,10.17,10.17,0,0,0-1.1753.71436l1.04151,2.70752c.50586-.29737.87744-.53565,1.13037-.71387a21.821,21.821,0,0,0,1.22021,2.84131l2.8711-1.0415a2.56683,2.56683,0,0,1-.35694-.75879c1.458-.833,2.20166-1.77,2.20166-2.81153A2.2424,2.2424,0,0,0,102.87158,23.21338Zm-1.05615,3.9873-1.02637-.87793c.62451-.312.937-.60986.937-.90722a.35491.35491,0,0,0-.40136-.40186,3.833,3.833,0,0,0-1.29444.41651A25.81576,25.81576,0,0,0,101.25,28.40576l-1.65137.59522c-.66943-1.60694-1.07129-2.57373-1.18994-2.916-.521.26758-.90771.46094-1.14551.60986l-.55078-1.47265a10.44117,10.44117,0,0,1,1.16065-.65479q-.44678-1.31689-.49121-1.51758l1.69629-.44628a13.11058,13.11058,0,0,0,.43115,1.29443c.26806-.07422.61035-.16357.99707-.26758l.17822-.98193,1.5625.22314-.14893.75879a1.43055,1.43055,0,0,1,.89258.55029,1.74771,1.74771,0,0,1,.34229,1.04151C103.333,25.936,102.82715,26.59082,101.81543,27.20068Z"/>
              <path class="cls-4" d="M114.31592,19.375l-1.44287-2.17187L109.585,18.63135l.8335,1.32422a10.77949,10.77949,0,0,0-3.34766,1.96386l1.83008,3.39161a6.45,6.45,0,0,1,1.84473-1.42774,4.70228,4.70228,0,0,1,2.23144-.625q1.07154,0,1.07129.75879c0,.50586-.44629,1.0415-1.32422,1.62158a6.62914,6.62914,0,0,1-2.02344.95215l2.708,3.18359a6.532,6.532,0,0,0,2.5586-1.44287,6.38438,6.38438,0,0,0,1.72607-2.38037,5.63107,5.63107,0,0,0,.40137-2.15722,4.57234,4.57234,0,0,0-1.02637-3.00538A3.90146,3.90146,0,0,0,114.31592,19.375Zm2.02344,7.60254a7.04394,7.04394,0,0,1-2.70752,2.05322l-1.83008-2.14258c1.91943-.86279,2.88623-1.80029,2.88623-2.82666a1.33363,1.33363,0,0,0-.49072-1.10107,1.90274,1.90274,0,0,0-1.1753-.3418,6.22286,6.22286,0,0,0-3.95752,1.60645l-1.1455-2.12744a11.67057,11.67057,0,0,1,3.4663-1.79981l-.84814-1.36914,2.083-.90723L113.9292,20a3.3257,3.3257,0,0,1,2.57373,1.13086,3.92815,3.92815,0,0,1,.95215,2.67773A4.9644,4.9644,0,0,1,116.33936,26.97754Z"/>
            </g>
          </g>
        </g>
      </g>
    </g>
  </g>
</svg>
