<?xml version="1.0" encoding="UTF-8" standalone="no"?>
<!DOCTYPE svg PUBLIC "-//W3C//DTD SVG 1.1//EN" "http://www.w3.org/Graphics/SVG/1.1/DTD/svg11.dtd">
<svg width="100%" height="100%" viewBox="0 0 300 80" version="1.1" xmlns="http://www.w3.org/2000/svg" xmlns:xlink="http://www.w3.org/1999/xlink" xml:space="preserve" xmlns:serif="http://www.serif.com/" style="fill-rule:evenodd;clip-rule:evenodd;stroke-linecap:round;stroke-linejoin:round;stroke-miterlimit:1.5;">
    <g transform="matrix(1,0,0,1,0,-320)">
        <g id="patreon">
            <g id="background" transform="matrix(0.923304,0,0,0.695652,24.7729,416.696)">
                <rect x="-16" y="-24" width="339" height="115" style="fill:white;"/>
            </g>
            <g id="accent" transform="matrix(0.384615,0,0,0.689655,6.15385,408.966)">
                <rect x="-16" y="-13" width="26" height="116" style="fill:rgb(255,66,77);"/>
            </g>
        </g>
        <g id="esa" transform="matrix(1,0,0,1,-4.08562e-14,-80)">
            <g id="background1" serif:id="background" transform="matrix(0.923304,0,0,0.695652,24.7729,416.696)">
                <rect x="-16" y="-24" width="339" height="115" style="fill:rgb(51,62,72);stroke:rgb(19,25,33);stroke-width:1.22px;"/>
            </g>
            <g id="accent1" serif:id="accent" transform="matrix(0.384615,0,0,0.689655,6.15385,408.966)">
                <rect x="-16" y="-13" width="26" height="116" style="fill:rgb(255,153,0);"/>
            </g>
            <g transform="matrix(1,0,0,1,9,396)">
                <g id="text">
                    <g transform="matrix(24,0,0,24,15,43.1641)">
                        <path d="M0.02,-0L0.133,-0.715L0.546,-0.715L0.52,-0.551L0.298,-0.551L0.279,-0.433L0.487,-0.433L0.462,-0.279L0.255,-0.279L0.211,-0L0.02,-0Z" style="fill:white;fill-rule:nonzero;"/>
                    </g>
                    <g transform="matrix(24,0,0,24,27.9844,43.1641)">
                        <path d="M0.39,-0.305C0.389,-0.332 0.38,-0.353 0.363,-0.369C0.347,-0.384 0.326,-0.392 0.299,-0.392C0.275,-0.392 0.253,-0.384 0.234,-0.369C0.215,-0.354 0.201,-0.333 0.191,-0.305L0.39,-0.305ZM0.179,-0.205L0.179,-0.194C0.179,-0.163 0.187,-0.139 0.203,-0.123C0.219,-0.106 0.242,-0.098 0.273,-0.098C0.294,-0.098 0.315,-0.103 0.334,-0.112C0.353,-0.121 0.373,-0.135 0.395,-0.155L0.489,-0.06C0.461,-0.033 0.428,-0.013 0.392,-0C0.355,0.013 0.314,0.02 0.269,0.02C0.189,0.02 0.126,-0.001 0.082,-0.044C0.037,-0.087 0.015,-0.147 0.015,-0.224C0.015,-0.308 0.042,-0.377 0.094,-0.43C0.147,-0.482 0.216,-0.509 0.3,-0.509C0.376,-0.509 0.437,-0.486 0.484,-0.439C0.53,-0.392 0.553,-0.331 0.553,-0.254C0.553,-0.247 0.552,-0.235 0.55,-0.217C0.55,-0.211 0.549,-0.207 0.549,-0.205L0.179,-0.205Z" style="fill:white;fill-rule:nonzero;"/>
                    </g>
                    <g transform="matrix(24,0,0,24,42.3164,43.1641)">
                        <path d="M0.39,-0.305C0.389,-0.332 0.38,-0.353 0.363,-0.369C0.347,-0.384 0.326,-0.392 0.299,-0.392C0.275,-0.392 0.253,-0.384 0.234,-0.369C0.215,-0.354 0.201,-0.333 0.191,-0.305L0.39,-0.305ZM0.179,-0.205L0.179,-0.194C0.179,-0.163 0.187,-0.139 0.203,-0.123C0.219,-0.106 0.242,-0.098 0.273,-0.098C0.294,-0.098 0.315,-0.103 0.334,-0.112C0.353,-0.121 0.373,-0.135 0.395,-0.155L0.489,-0.06C0.461,-0.033 0.428,-0.013 0.392,-0C0.355,0.013 0.314,0.02 0.269,0.02C0.189,0.02 0.126,-0.001 0.082,-0.044C0.037,-0.087 0.015,-0.147 0.015,-0.224C0.015,-0.308 0.042,-0.377 0.094,-0.43C0.147,-0.482 0.216,-0.509 0.3,-0.509C0.376,-0.509 0.437,-0.486 0.484,-0.439C0.53,-0.392 0.553,-0.331 0.553,-0.254C0.553,-0.247 0.552,-0.235 0.55,-0.217C0.55,-0.211 0.549,-0.207 0.549,-0.205L0.179,-0.205Z" style="fill:white;fill-rule:nonzero;"/>
                    </g>
                    <g transform="matrix(24,0,0,24,56.6484,43.1641)">
                        <path d="M0.202,-0.232C0.202,-0.2 0.212,-0.175 0.231,-0.156C0.25,-0.137 0.276,-0.127 0.307,-0.127C0.342,-0.127 0.37,-0.14 0.394,-0.167C0.417,-0.194 0.428,-0.228 0.428,-0.268C0.428,-0.299 0.419,-0.323 0.399,-0.343C0.38,-0.362 0.355,-0.371 0.324,-0.371C0.289,-0.371 0.26,-0.358 0.237,-0.332C0.214,-0.306 0.202,-0.272 0.202,-0.232ZM0.664,-0.757L0.545,-0L0.381,-0L0.391,-0.064C0.367,-0.036 0.34,-0.015 0.311,-0.001C0.282,0.013 0.25,0.02 0.217,0.02C0.16,0.02 0.114,-0.001 0.077,-0.044C0.041,-0.087 0.023,-0.142 0.023,-0.21C0.023,-0.295 0.047,-0.366 0.096,-0.422C0.145,-0.478 0.207,-0.506 0.281,-0.506C0.314,-0.506 0.344,-0.499 0.371,-0.485C0.398,-0.471 0.423,-0.45 0.447,-0.42L0.447,-0.434C0.447,-0.444 0.447,-0.454 0.448,-0.465C0.449,-0.475 0.451,-0.486 0.452,-0.497L0.493,-0.757L0.664,-0.757Z" style="fill:white;fill-rule:nonzero;"/>
                    </g>
                    <g transform="matrix(24,0,0,24,80.0039,43.1641)">
                        <path d="M0.603,-0.647C0.58,-0.662 0.557,-0.678 0.534,-0.693C0.535,-0.689 0.536,-0.684 0.537,-0.68C0.534,-0.682 0.532,-0.684 0.53,-0.688C0.53,-0.687 0.53,-0.687 0.529,-0.687L0.525,-0.687C0.525,-0.685 0.526,-0.684 0.527,-0.682L0.525,-0.681C0.526,-0.679 0.527,-0.677 0.529,-0.676C0.527,-0.675 0.526,-0.674 0.525,-0.674C0.522,-0.676 0.518,-0.678 0.514,-0.679C0.513,-0.677 0.512,-0.676 0.512,-0.676C0.514,-0.674 0.515,-0.673 0.515,-0.671C0.511,-0.673 0.508,-0.674 0.505,-0.674C0.506,-0.672 0.507,-0.67 0.507,-0.668C0.506,-0.667 0.505,-0.666 0.504,-0.667C0.505,-0.665 0.505,-0.664 0.504,-0.663C0.503,-0.662 0.503,-0.663 0.503,-0.664C0.499,-0.661 0.496,-0.662 0.493,-0.665C0.492,-0.663 0.491,-0.661 0.49,-0.66C0.485,-0.656 0.48,-0.652 0.477,-0.648C0.434,-0.61 0.384,-0.589 0.327,-0.584L0.327,-0.582C0.323,-0.581 0.318,-0.581 0.314,-0.581C0.312,-0.58 0.31,-0.577 0.309,-0.574C0.306,-0.572 0.302,-0.571 0.298,-0.571C0.295,-0.569 0.293,-0.568 0.29,-0.567C0.287,-0.566 0.285,-0.565 0.282,-0.565L0.282,-0.562C0.28,-0.558 0.276,-0.557 0.272,-0.559C0.274,-0.555 0.276,-0.552 0.278,-0.55C0.287,-0.534 0.299,-0.521 0.313,-0.51C0.326,-0.501 0.339,-0.493 0.351,-0.483C0.368,-0.469 0.384,-0.455 0.401,-0.441C0.388,-0.4 0.379,-0.36 0.374,-0.319C0.374,-0.308 0.373,-0.297 0.37,-0.287L0.369,-0.287C0.37,-0.281 0.369,-0.275 0.368,-0.269C0.368,-0.269 0.368,-0.27 0.369,-0.271L0.37,-0.271C0.369,-0.271 0.369,-0.272 0.37,-0.272C0.37,-0.271 0.371,-0.269 0.372,-0.267C0.373,-0.272 0.374,-0.279 0.375,-0.286C0.375,-0.285 0.375,-0.285 0.376,-0.285C0.376,-0.288 0.376,-0.292 0.377,-0.296C0.377,-0.295 0.377,-0.294 0.378,-0.293C0.373,-0.261 0.376,-0.229 0.385,-0.197C0.387,-0.193 0.387,-0.189 0.387,-0.184C0.379,-0.203 0.374,-0.223 0.372,-0.243L0.372,-0.241C0.371,-0.24 0.37,-0.239 0.369,-0.239C0.368,-0.244 0.367,-0.248 0.367,-0.253C0.369,-0.254 0.369,-0.256 0.368,-0.259L0.368,-0.267L0.368,-0.259C0.367,-0.257 0.366,-0.257 0.366,-0.257C0.367,-0.245 0.368,-0.233 0.369,-0.221C0.37,-0.212 0.373,-0.203 0.377,-0.194C0.377,-0.19 0.378,-0.186 0.38,-0.184C0.38,-0.178 0.377,-0.175 0.372,-0.173C0.332,-0.168 0.293,-0.159 0.256,-0.144C0.25,-0.142 0.244,-0.141 0.239,-0.14C0.232,-0.138 0.226,-0.136 0.221,-0.134C0.215,-0.131 0.211,-0.129 0.207,-0.127C0.203,-0.128 0.2,-0.127 0.198,-0.125C0.192,-0.122 0.187,-0.12 0.182,-0.117C0.18,-0.117 0.177,-0.115 0.174,-0.112C0.169,-0.11 0.165,-0.109 0.161,-0.107C0.159,-0.105 0.156,-0.104 0.154,-0.104C0.154,-0.102 0.153,-0.102 0.152,-0.103C0.154,-0.102 0.154,-0.101 0.153,-0.101C0.154,-0.101 0.155,-0.102 0.156,-0.104C0.16,-0.105 0.162,-0.104 0.164,-0.103C0.154,-0.099 0.146,-0.094 0.14,-0.088C0.138,-0.087 0.138,-0.087 0.139,-0.086C0.13,-0.081 0.122,-0.074 0.115,-0.065L0.116,-0.064C0.114,-0.061 0.111,-0.058 0.109,-0.056C0.109,-0.052 0.11,-0.05 0.11,-0.048C0.11,-0.047 0.111,-0.045 0.111,-0.044L0.11,-0.043C0.11,-0.04 0.111,-0.038 0.113,-0.035C0.118,-0.031 0.122,-0.027 0.127,-0.024C0.132,-0.025 0.137,-0.024 0.143,-0.022C0.152,-0.022 0.158,-0.017 0.162,-0.009C0.165,-0.007 0.167,-0.007 0.17,-0.007C0.176,-0.002 0.184,0.001 0.193,0.002C0.199,0.005 0.206,0.006 0.213,0.004C0.219,0.004 0.226,0.004 0.234,0.005C0.244,0.007 0.255,0.007 0.266,0.007L0.266,0.008C0.267,0.008 0.269,0.007 0.271,0.006C0.274,0.008 0.277,0.008 0.281,0.006C0.283,0.005 0.284,0.003 0.284,0.002C0.285,0.003 0.287,0.003 0.288,0.003C0.289,0.003 0.291,0.004 0.293,0.007C0.293,0.006 0.293,0.005 0.294,0.003C0.297,0.002 0.301,0.001 0.305,-0.001C0.307,-0.003 0.31,-0.006 0.312,-0.009C0.315,-0.011 0.317,-0.013 0.319,-0.017C0.323,-0.022 0.326,-0.027 0.331,-0.032C0.332,-0.032 0.332,-0.032 0.333,-0.031C0.334,-0.033 0.335,-0.034 0.335,-0.036L0.336,-0.037C0.336,-0.039 0.337,-0.041 0.338,-0.042C0.339,-0.043 0.34,-0.045 0.342,-0.046C0.342,-0.045 0.342,-0.044 0.342,-0.045C0.343,-0.046 0.345,-0.047 0.347,-0.047C0.349,-0.048 0.35,-0.048 0.35,-0.047C0.351,-0.047 0.352,-0.048 0.353,-0.05C0.352,-0.049 0.352,-0.049 0.352,-0.05C0.352,-0.052 0.354,-0.052 0.355,-0.052L0.355,-0.051C0.357,-0.053 0.361,-0.055 0.365,-0.056L0.365,-0.055L0.366,-0.055C0.366,-0.055 0.367,-0.056 0.367,-0.057L0.368,-0.055C0.369,-0.055 0.369,-0.056 0.37,-0.058C0.372,-0.06 0.374,-0.061 0.377,-0.061L0.376,-0.059C0.377,-0.061 0.379,-0.062 0.382,-0.062C0.381,-0.061 0.38,-0.061 0.379,-0.061C0.379,-0.06 0.379,-0.06 0.38,-0.06C0.38,-0.06 0.38,-0.061 0.381,-0.062C0.383,-0.063 0.386,-0.064 0.39,-0.063L0.387,-0.063C0.389,-0.063 0.39,-0.063 0.392,-0.065C0.392,-0.065 0.393,-0.065 0.393,-0.064C0.393,-0.067 0.395,-0.068 0.398,-0.067C0.398,-0.066 0.398,-0.066 0.397,-0.066L0.398,-0.066L0.398,-0.065C0.402,-0.067 0.405,-0.067 0.408,-0.067L0.41,-0.068L0.41,-0.067C0.411,-0.068 0.411,-0.068 0.412,-0.068L0.412,-0.067C0.415,-0.069 0.419,-0.07 0.422,-0.07C0.423,-0.071 0.424,-0.072 0.425,-0.074L0.425,-0.071C0.426,-0.073 0.427,-0.074 0.429,-0.076C0.429,-0.076 0.429,-0.075 0.43,-0.075C0.43,-0.076 0.43,-0.076 0.432,-0.076C0.432,-0.076 0.433,-0.076 0.434,-0.075C0.432,-0.073 0.43,-0.072 0.43,-0.071L0.429,-0.071C0.429,-0.071 0.429,-0.07 0.431,-0.07C0.433,-0.072 0.435,-0.074 0.438,-0.076C0.44,-0.077 0.444,-0.079 0.448,-0.082C0.45,-0.082 0.451,-0.081 0.451,-0.08C0.45,-0.079 0.449,-0.078 0.447,-0.077C0.447,-0.076 0.448,-0.076 0.449,-0.077C0.45,-0.079 0.451,-0.081 0.454,-0.082C0.454,-0.081 0.454,-0.079 0.455,-0.078C0.454,-0.079 0.454,-0.081 0.455,-0.082C0.456,-0.082 0.458,-0.082 0.459,-0.081C0.46,-0.082 0.461,-0.082 0.462,-0.083C0.463,-0.083 0.463,-0.082 0.463,-0.081C0.465,-0.084 0.469,-0.085 0.473,-0.084C0.471,-0.083 0.471,-0.082 0.471,-0.081C0.472,-0.082 0.473,-0.084 0.475,-0.086C0.475,-0.085 0.476,-0.084 0.478,-0.084C0.479,-0.085 0.481,-0.086 0.485,-0.087L0.492,-0.087C0.491,-0.085 0.489,-0.084 0.485,-0.084C0.491,-0.085 0.496,-0.086 0.501,-0.087L0.502,-0.086C0.506,-0.087 0.51,-0.088 0.515,-0.088C0.513,-0.088 0.512,-0.088 0.512,-0.087L0.516,-0.087C0.518,-0.088 0.521,-0.089 0.524,-0.091C0.525,-0.09 0.526,-0.09 0.526,-0.09C0.526,-0.089 0.525,-0.089 0.525,-0.089C0.527,-0.088 0.53,-0.088 0.532,-0.089L0.531,-0.089C0.533,-0.09 0.535,-0.091 0.538,-0.091C0.536,-0.09 0.535,-0.089 0.534,-0.088C0.534,-0.087 0.533,-0.088 0.533,-0.089C0.533,-0.088 0.533,-0.088 0.534,-0.087C0.534,-0.087 0.535,-0.088 0.535,-0.089C0.536,-0.088 0.536,-0.088 0.536,-0.087C0.537,-0.088 0.539,-0.088 0.54,-0.087L0.54,-0.086C0.542,-0.088 0.545,-0.089 0.548,-0.09L0.55,-0.09C0.548,-0.089 0.547,-0.088 0.546,-0.087L0.547,-0.087C0.548,-0.088 0.549,-0.089 0.551,-0.09L0.553,-0.09L0.554,-0.092C0.554,-0.09 0.554,-0.09 0.556,-0.09L0.554,-0.09L0.558,-0.09C0.556,-0.089 0.555,-0.088 0.554,-0.087C0.554,-0.087 0.555,-0.087 0.556,-0.088L0.556,-0.087C0.557,-0.088 0.558,-0.089 0.56,-0.09C0.564,-0.09 0.569,-0.091 0.575,-0.092C0.575,-0.091 0.574,-0.091 0.573,-0.091C0.578,-0.09 0.583,-0.09 0.588,-0.092C0.59,-0.091 0.593,-0.091 0.595,-0.092L0.596,-0.092C0.596,-0.09 0.595,-0.09 0.595,-0.091C0.595,-0.09 0.596,-0.09 0.598,-0.092C0.6,-0.091 0.601,-0.091 0.602,-0.093C0.606,-0.093 0.611,-0.093 0.616,-0.095C0.616,-0.094 0.617,-0.094 0.617,-0.094C0.618,-0.095 0.62,-0.095 0.621,-0.094L0.619,-0.094L0.632,-0.094C0.631,-0.093 0.63,-0.093 0.629,-0.093C0.63,-0.092 0.632,-0.092 0.634,-0.093C0.633,-0.093 0.633,-0.094 0.634,-0.094L0.645,-0.094C0.649,-0.093 0.654,-0.093 0.658,-0.094L0.657,-0.093C0.66,-0.092 0.662,-0.092 0.664,-0.092C0.659,-0.09 0.654,-0.09 0.648,-0.089C0.648,-0.09 0.649,-0.09 0.649,-0.091C0.652,-0.09 0.654,-0.088 0.656,-0.087C0.66,-0.088 0.662,-0.089 0.663,-0.091C0.663,-0.09 0.663,-0.089 0.664,-0.088L0.664,-0.089L0.668,-0.089L0.667,-0.088C0.672,-0.088 0.677,-0.089 0.683,-0.09C0.685,-0.089 0.688,-0.089 0.692,-0.089C0.694,-0.089 0.694,-0.089 0.694,-0.088C0.696,-0.087 0.696,-0.087 0.694,-0.087L0.694,-0.088C0.695,-0.089 0.696,-0.089 0.696,-0.09C0.7,-0.089 0.702,-0.088 0.703,-0.086C0.701,-0.085 0.699,-0.085 0.697,-0.085C0.698,-0.084 0.699,-0.083 0.699,-0.083L0.701,-0.083C0.702,-0.082 0.703,-0.082 0.706,-0.083L0.709,-0.083C0.708,-0.082 0.708,-0.082 0.708,-0.081C0.71,-0.08 0.713,-0.081 0.716,-0.083C0.715,-0.082 0.715,-0.082 0.715,-0.083C0.715,-0.086 0.718,-0.086 0.722,-0.084L0.72,-0.083C0.719,-0.083 0.719,-0.083 0.719,-0.084C0.719,-0.083 0.719,-0.083 0.72,-0.083C0.718,-0.082 0.717,-0.082 0.717,-0.081C0.719,-0.08 0.721,-0.08 0.723,-0.082C0.723,-0.081 0.723,-0.08 0.724,-0.079C0.726,-0.078 0.727,-0.079 0.728,-0.081C0.729,-0.081 0.73,-0.081 0.732,-0.08C0.73,-0.079 0.729,-0.078 0.728,-0.079L0.732,-0.079L0.732,-0.076C0.735,-0.079 0.738,-0.079 0.74,-0.078C0.739,-0.076 0.738,-0.076 0.737,-0.077L0.737,-0.076C0.739,-0.076 0.741,-0.077 0.743,-0.078C0.748,-0.078 0.754,-0.078 0.761,-0.077C0.759,-0.076 0.758,-0.076 0.757,-0.076C0.757,-0.076 0.757,-0.075 0.758,-0.075L0.754,-0.075L0.754,-0.074L0.763,-0.074C0.763,-0.075 0.764,-0.075 0.766,-0.075L0.766,-0.072C0.766,-0.073 0.767,-0.074 0.769,-0.075C0.771,-0.075 0.772,-0.075 0.773,-0.073C0.771,-0.073 0.771,-0.072 0.771,-0.07C0.772,-0.07 0.773,-0.07 0.773,-0.069C0.775,-0.069 0.776,-0.07 0.776,-0.071C0.776,-0.07 0.777,-0.069 0.778,-0.069C0.782,-0.065 0.786,-0.062 0.789,-0.058C0.803,-0.042 0.811,-0.024 0.813,-0.005C0.795,0.013 0.775,0.027 0.752,0.037C0.75,0.039 0.747,0.04 0.744,0.04L0.744,0.041C0.743,0.042 0.743,0.043 0.742,0.043C0.76,0.038 0.777,0.032 0.795,0.023C0.811,0.015 0.827,0.009 0.844,0.006C0.848,0.007 0.852,0.006 0.856,0.005C0.864,0.011 0.871,0.013 0.879,0.012C0.882,0.013 0.883,0.015 0.885,0.017C0.887,0.019 0.889,0.02 0.892,0.019C0.896,0.019 0.9,0.021 0.902,0.024C0.905,0.026 0.907,0.026 0.909,0.023C0.913,0.023 0.917,0.022 0.92,0.021L0.929,0.021C0.93,0.023 0.931,0.023 0.932,0.021C0.933,0.021 0.934,0.022 0.936,0.022C0.936,0.021 0.936,0.02 0.937,0.018C0.935,0.011 0.933,0.004 0.931,-0.003C0.931,-0.004 0.933,-0.005 0.935,-0.004L0.935,-0.007C0.932,-0.011 0.929,-0.015 0.925,-0.019C0.925,-0.026 0.922,-0.032 0.917,-0.038C0.914,-0.044 0.91,-0.049 0.904,-0.055C0.891,-0.069 0.877,-0.083 0.861,-0.097L0.861,-0.098C0.841,-0.111 0.822,-0.125 0.805,-0.139C0.806,-0.136 0.808,-0.133 0.81,-0.131C0.8,-0.135 0.793,-0.14 0.786,-0.146C0.787,-0.144 0.79,-0.142 0.793,-0.141C0.792,-0.14 0.791,-0.139 0.79,-0.139C0.78,-0.146 0.769,-0.152 0.758,-0.156C0.758,-0.154 0.758,-0.153 0.76,-0.153C0.759,-0.153 0.759,-0.153 0.759,-0.152C0.748,-0.155 0.738,-0.158 0.729,-0.162L0.728,-0.161C0.715,-0.163 0.703,-0.165 0.69,-0.167C0.687,-0.167 0.685,-0.168 0.684,-0.17L0.684,-0.169C0.682,-0.168 0.68,-0.169 0.68,-0.171L0.682,-0.171C0.679,-0.17 0.675,-0.17 0.671,-0.17C0.663,-0.171 0.657,-0.171 0.653,-0.172C0.649,-0.173 0.648,-0.174 0.648,-0.175L0.647,-0.174L0.645,-0.174C0.645,-0.175 0.645,-0.175 0.646,-0.175C0.641,-0.174 0.638,-0.174 0.636,-0.174C0.635,-0.175 0.634,-0.175 0.635,-0.176L0.634,-0.175C0.632,-0.174 0.631,-0.174 0.63,-0.176C0.63,-0.177 0.631,-0.177 0.633,-0.177C0.63,-0.177 0.628,-0.177 0.626,-0.179L0.627,-0.177C0.625,-0.176 0.624,-0.176 0.624,-0.176C0.623,-0.177 0.623,-0.177 0.624,-0.179C0.62,-0.178 0.617,-0.178 0.613,-0.179C0.613,-0.179 0.614,-0.18 0.614,-0.181L0.613,-0.181L0.613,-0.18C0.61,-0.179 0.607,-0.18 0.604,-0.182C0.595,-0.182 0.586,-0.183 0.576,-0.185C0.574,-0.185 0.571,-0.186 0.569,-0.188L0.571,-0.188C0.561,-0.188 0.553,-0.188 0.547,-0.189C0.541,-0.19 0.538,-0.191 0.539,-0.191C0.538,-0.19 0.537,-0.19 0.536,-0.19C0.535,-0.19 0.535,-0.191 0.535,-0.191L0.493,-0.191C0.49,-0.193 0.489,-0.196 0.49,-0.198C0.478,-0.213 0.471,-0.23 0.47,-0.248C0.47,-0.264 0.475,-0.28 0.484,-0.295C0.486,-0.299 0.488,-0.304 0.489,-0.309C0.489,-0.309 0.49,-0.311 0.492,-0.313C0.492,-0.307 0.491,-0.302 0.488,-0.297C0.491,-0.303 0.493,-0.31 0.494,-0.315C0.495,-0.315 0.495,-0.316 0.496,-0.318C0.496,-0.323 0.499,-0.326 0.504,-0.327C0.495,-0.302 0.488,-0.275 0.484,-0.248C0.489,-0.28 0.498,-0.311 0.511,-0.342C0.517,-0.349 0.522,-0.357 0.526,-0.365C0.526,-0.364 0.527,-0.363 0.527,-0.362C0.529,-0.361 0.53,-0.361 0.532,-0.362L0.532,-0.365C0.534,-0.367 0.535,-0.368 0.538,-0.369C0.538,-0.366 0.54,-0.365 0.543,-0.366C0.545,-0.368 0.547,-0.368 0.55,-0.367C0.556,-0.372 0.563,-0.374 0.571,-0.373C0.578,-0.376 0.584,-0.379 0.591,-0.383C0.592,-0.383 0.593,-0.385 0.594,-0.387C0.597,-0.385 0.599,-0.387 0.601,-0.391L0.6,-0.391C0.601,-0.391 0.603,-0.392 0.605,-0.394C0.604,-0.39 0.603,-0.387 0.602,-0.384C0.608,-0.397 0.618,-0.408 0.63,-0.417C0.635,-0.42 0.639,-0.424 0.642,-0.429C0.653,-0.44 0.664,-0.452 0.676,-0.464L0.676,-0.466C0.682,-0.471 0.686,-0.477 0.689,-0.484C0.691,-0.486 0.693,-0.489 0.693,-0.492C0.694,-0.493 0.694,-0.493 0.694,-0.494C0.696,-0.495 0.698,-0.498 0.7,-0.501L0.7,-0.5C0.7,-0.502 0.7,-0.504 0.699,-0.507C0.7,-0.509 0.701,-0.51 0.704,-0.512L0.703,-0.511L0.701,-0.51C0.701,-0.512 0.701,-0.516 0.702,-0.52C0.703,-0.523 0.705,-0.524 0.706,-0.524C0.705,-0.525 0.705,-0.526 0.706,-0.526C0.705,-0.525 0.705,-0.524 0.704,-0.522C0.703,-0.526 0.703,-0.53 0.705,-0.534L0.705,-0.531C0.706,-0.533 0.706,-0.535 0.704,-0.536C0.707,-0.539 0.709,-0.542 0.71,-0.547C0.711,-0.551 0.71,-0.555 0.706,-0.559C0.705,-0.563 0.704,-0.568 0.703,-0.573C0.699,-0.58 0.693,-0.588 0.687,-0.595C0.684,-0.595 0.682,-0.596 0.68,-0.6C0.654,-0.616 0.628,-0.632 0.603,-0.647ZM0.407,-0.294C0.406,-0.28 0.406,-0.266 0.407,-0.251C0.407,-0.25 0.406,-0.248 0.406,-0.246C0.406,-0.247 0.406,-0.247 0.405,-0.248C0.402,-0.263 0.403,-0.278 0.407,-0.294ZM0.411,-0.292L0.413,-0.292C0.412,-0.263 0.417,-0.234 0.426,-0.207C0.424,-0.206 0.423,-0.205 0.423,-0.204C0.421,-0.208 0.419,-0.212 0.418,-0.216C0.412,-0.235 0.409,-0.254 0.408,-0.274C0.409,-0.278 0.41,-0.282 0.41,-0.286L0.41,-0.294C0.41,-0.293 0.41,-0.292 0.411,-0.292ZM0.422,-0.23C0.42,-0.238 0.419,-0.247 0.418,-0.257C0.419,-0.247 0.421,-0.238 0.422,-0.23ZM0.414,-0.202C0.413,-0.201 0.411,-0.202 0.41,-0.203C0.406,-0.215 0.403,-0.228 0.402,-0.241C0.406,-0.229 0.41,-0.216 0.414,-0.202ZM0.401,-0.197C0.401,-0.197 0.4,-0.196 0.4,-0.195C0.397,-0.204 0.395,-0.213 0.395,-0.222C0.394,-0.224 0.394,-0.225 0.394,-0.227C0.395,-0.216 0.397,-0.206 0.401,-0.197ZM0.396,-0.193C0.392,-0.204 0.389,-0.214 0.388,-0.225C0.39,-0.214 0.393,-0.204 0.396,-0.193Z" style="fill:white;fill-rule:nonzero;"/>
                    </g>
                    <g transform="matrix(24,0,0,24,104.004,43.1641)">
                        <path d="M0.719,-0.776C0.71,-0.777 0.702,-0.777 0.693,-0.777C0.689,-0.776 0.686,-0.776 0.682,-0.776C0.676,-0.774 0.67,-0.772 0.664,-0.771C0.664,-0.769 0.664,-0.768 0.665,-0.768C0.664,-0.766 0.662,-0.765 0.661,-0.765C0.66,-0.763 0.66,-0.761 0.659,-0.76C0.657,-0.761 0.655,-0.762 0.652,-0.762L0.652,-0.761C0.65,-0.756 0.647,-0.753 0.646,-0.752C0.641,-0.75 0.637,-0.747 0.634,-0.743C0.632,-0.743 0.631,-0.741 0.631,-0.739C0.628,-0.737 0.624,-0.736 0.621,-0.736L0.623,-0.736L0.623,-0.734C0.626,-0.727 0.626,-0.719 0.623,-0.711C0.624,-0.693 0.626,-0.676 0.629,-0.658C0.627,-0.646 0.623,-0.636 0.618,-0.626C0.618,-0.625 0.617,-0.623 0.616,-0.622C0.615,-0.619 0.614,-0.617 0.613,-0.615C0.612,-0.613 0.61,-0.611 0.608,-0.609C0.609,-0.607 0.609,-0.606 0.607,-0.605C0.613,-0.609 0.618,-0.612 0.623,-0.614C0.628,-0.617 0.632,-0.618 0.637,-0.619C0.639,-0.619 0.642,-0.62 0.645,-0.621C0.646,-0.62 0.647,-0.619 0.648,-0.618C0.647,-0.582 0.644,-0.548 0.64,-0.514C0.638,-0.497 0.635,-0.481 0.633,-0.466C0.626,-0.465 0.62,-0.464 0.614,-0.463C0.613,-0.465 0.611,-0.467 0.608,-0.469C0.609,-0.466 0.61,-0.465 0.612,-0.464C0.595,-0.461 0.577,-0.46 0.56,-0.461C0.56,-0.462 0.56,-0.463 0.561,-0.464C0.567,-0.474 0.573,-0.485 0.579,-0.495C0.58,-0.497 0.582,-0.5 0.583,-0.503C0.585,-0.506 0.586,-0.508 0.586,-0.512C0.576,-0.498 0.567,-0.485 0.559,-0.473C0.555,-0.466 0.55,-0.461 0.544,-0.458C0.519,-0.454 0.494,-0.45 0.469,-0.444C0.467,-0.448 0.468,-0.452 0.47,-0.455C0.47,-0.46 0.47,-0.465 0.471,-0.471C0.469,-0.475 0.467,-0.48 0.465,-0.485L0.465,-0.489C0.464,-0.493 0.464,-0.496 0.465,-0.501C0.463,-0.504 0.461,-0.506 0.459,-0.508C0.46,-0.508 0.46,-0.508 0.459,-0.51C0.456,-0.519 0.451,-0.527 0.446,-0.535C0.446,-0.536 0.447,-0.536 0.447,-0.537C0.443,-0.54 0.439,-0.545 0.438,-0.55C0.433,-0.553 0.43,-0.558 0.428,-0.563C0.424,-0.565 0.422,-0.569 0.421,-0.573C0.392,-0.598 0.361,-0.618 0.327,-0.634C0.323,-0.634 0.318,-0.636 0.314,-0.638C0.311,-0.638 0.309,-0.637 0.308,-0.635C0.307,-0.634 0.307,-0.634 0.307,-0.636C0.306,-0.635 0.305,-0.635 0.305,-0.635C0.305,-0.63 0.304,-0.625 0.303,-0.621C0.299,-0.621 0.295,-0.623 0.292,-0.626L0.293,-0.626L0.292,-0.625C0.292,-0.624 0.293,-0.624 0.294,-0.623C0.295,-0.622 0.294,-0.62 0.293,-0.619C0.29,-0.618 0.288,-0.618 0.286,-0.621C0.287,-0.619 0.287,-0.618 0.287,-0.616C0.286,-0.614 0.286,-0.614 0.285,-0.615C0.285,-0.613 0.284,-0.61 0.282,-0.607C0.279,-0.607 0.276,-0.606 0.274,-0.604L0.275,-0.604C0.275,-0.602 0.274,-0.602 0.273,-0.602C0.272,-0.568 0.272,-0.534 0.272,-0.501C0.27,-0.466 0.27,-0.432 0.271,-0.398C0.273,-0.396 0.273,-0.395 0.271,-0.394C0.265,-0.392 0.259,-0.39 0.254,-0.387C0.249,-0.385 0.244,-0.384 0.241,-0.382C0.235,-0.379 0.229,-0.376 0.225,-0.375C0.222,-0.375 0.22,-0.375 0.219,-0.374C0.199,-0.364 0.18,-0.356 0.16,-0.35C0.16,-0.348 0.161,-0.346 0.162,-0.346C0.161,-0.344 0.161,-0.344 0.16,-0.344C0.154,-0.341 0.149,-0.338 0.146,-0.335L0.145,-0.335C0.142,-0.334 0.14,-0.332 0.139,-0.331L0.139,-0.332C0.133,-0.326 0.128,-0.322 0.121,-0.32C0.122,-0.314 0.124,-0.309 0.127,-0.303C0.126,-0.301 0.126,-0.3 0.127,-0.3C0.133,-0.29 0.14,-0.282 0.148,-0.275C0.159,-0.269 0.17,-0.264 0.181,-0.262C0.19,-0.259 0.199,-0.256 0.209,-0.253C0.21,-0.252 0.212,-0.251 0.215,-0.25C0.215,-0.251 0.215,-0.251 0.217,-0.252C0.221,-0.25 0.225,-0.249 0.229,-0.248C0.233,-0.247 0.238,-0.246 0.242,-0.245C0.247,-0.246 0.253,-0.246 0.259,-0.244C0.266,-0.24 0.273,-0.237 0.281,-0.236C0.282,-0.235 0.283,-0.234 0.284,-0.234C0.286,-0.234 0.288,-0.234 0.29,-0.233C0.291,-0.233 0.291,-0.232 0.292,-0.232C0.291,-0.233 0.292,-0.234 0.293,-0.234C0.293,-0.232 0.294,-0.231 0.296,-0.231C0.298,-0.233 0.3,-0.235 0.303,-0.237C0.305,-0.237 0.306,-0.238 0.308,-0.239C0.316,-0.228 0.326,-0.217 0.337,-0.208C0.347,-0.195 0.361,-0.185 0.377,-0.179C0.382,-0.175 0.387,-0.176 0.393,-0.18C0.393,-0.178 0.394,-0.176 0.395,-0.176C0.397,-0.176 0.399,-0.177 0.401,-0.18C0.406,-0.182 0.411,-0.185 0.418,-0.187C0.421,-0.186 0.424,-0.188 0.428,-0.192L0.432,-0.192L0.432,-0.203C0.434,-0.206 0.435,-0.21 0.435,-0.214C0.431,-0.22 0.43,-0.227 0.431,-0.234C0.431,-0.239 0.432,-0.244 0.434,-0.249C0.433,-0.252 0.434,-0.256 0.438,-0.261C0.439,-0.261 0.441,-0.263 0.443,-0.266L0.442,-0.266C0.444,-0.267 0.445,-0.269 0.445,-0.271C0.445,-0.275 0.446,-0.278 0.447,-0.282C0.447,-0.284 0.448,-0.284 0.45,-0.284C0.451,-0.289 0.453,-0.295 0.455,-0.301C0.465,-0.316 0.476,-0.33 0.487,-0.345C0.494,-0.35 0.501,-0.357 0.506,-0.365C0.509,-0.365 0.512,-0.366 0.516,-0.368C0.521,-0.369 0.526,-0.371 0.53,-0.375C0.537,-0.377 0.545,-0.377 0.552,-0.376C0.552,-0.378 0.553,-0.379 0.556,-0.378C0.555,-0.377 0.554,-0.376 0.554,-0.376L0.567,-0.376C0.567,-0.377 0.567,-0.377 0.568,-0.378C0.569,-0.378 0.57,-0.377 0.57,-0.376C0.574,-0.375 0.578,-0.375 0.583,-0.376C0.584,-0.375 0.586,-0.375 0.588,-0.376C0.593,-0.375 0.599,-0.375 0.604,-0.376L0.604,-0.378C0.607,-0.379 0.61,-0.379 0.614,-0.379C0.608,-0.348 0.6,-0.317 0.59,-0.288C0.579,-0.253 0.564,-0.22 0.546,-0.188C0.524,-0.149 0.497,-0.114 0.465,-0.083L0.464,-0.083C0.45,-0.069 0.435,-0.058 0.42,-0.048L0.42,-0.047C0.419,-0.046 0.418,-0.047 0.418,-0.048C0.418,-0.047 0.418,-0.047 0.419,-0.047C0.392,-0.029 0.363,-0.015 0.334,-0.004C0.33,-0.002 0.326,-0 0.322,0.001C0.312,0.004 0.302,0.005 0.292,0.006C0.288,0.008 0.286,0.006 0.286,0.001C0.286,0.003 0.286,0.005 0.285,0.006C0.281,0.009 0.277,0.008 0.273,0.003C0.27,0.003 0.267,0.004 0.265,0.005C0.263,0.004 0.262,0.002 0.262,0.001C0.258,0.003 0.256,0.004 0.254,0.005L0.254,0.006C0.253,0.007 0.253,0.007 0.252,0.006C0.252,0.007 0.252,0.007 0.253,0.007L0.252,0.008L0.248,0.008C0.249,0.01 0.25,0.012 0.249,0.014C0.247,0.014 0.246,0.014 0.245,0.012C0.244,0.012 0.244,0.012 0.244,0.013L0.243,0.012C0.239,0.01 0.237,0.006 0.237,0.001C0.235,0.006 0.231,0.009 0.228,0.012C0.227,0.012 0.227,0.011 0.227,0.01C0.227,0.011 0.227,0.012 0.228,0.012C0.227,0.012 0.226,0.013 0.225,0.013L0.225,0.016C0.223,0.017 0.222,0.018 0.222,0.02C0.22,0.022 0.219,0.023 0.218,0.023C0.218,0.024 0.218,0.025 0.219,0.025C0.219,0.029 0.219,0.033 0.22,0.037C0.218,0.036 0.217,0.035 0.215,0.035C0.214,0.033 0.214,0.03 0.215,0.027C0.214,0.029 0.213,0.031 0.212,0.033C0.213,0.037 0.216,0.04 0.221,0.042C0.223,0.042 0.225,0.041 0.227,0.039L0.227,0.037C0.233,0.039 0.239,0.038 0.244,0.034C0.248,0.033 0.251,0.032 0.253,0.03C0.255,0.029 0.256,0.028 0.257,0.027C0.257,0.028 0.257,0.028 0.258,0.028C0.26,0.029 0.262,0.028 0.264,0.026C0.271,0.027 0.278,0.026 0.286,0.023C0.287,0.023 0.288,0.023 0.289,0.021C0.29,0.021 0.292,0.02 0.295,0.02C0.296,0.021 0.296,0.021 0.296,0.02C0.323,0.014 0.35,0.006 0.377,-0.005C0.402,-0.012 0.426,-0.021 0.45,-0.033C0.453,-0.034 0.455,-0.035 0.458,-0.038L0.459,-0.038C0.468,-0.043 0.477,-0.047 0.486,-0.052C0.489,-0.051 0.491,-0.052 0.491,-0.055L0.491,-0.054C0.491,-0.054 0.492,-0.055 0.493,-0.056C0.498,-0.058 0.505,-0.06 0.512,-0.062C0.51,-0.061 0.509,-0.061 0.508,-0.062C0.508,-0.062 0.508,-0.063 0.509,-0.063C0.511,-0.064 0.512,-0.064 0.514,-0.064C0.513,-0.064 0.513,-0.065 0.514,-0.066C0.515,-0.066 0.516,-0.066 0.517,-0.064C0.519,-0.066 0.522,-0.067 0.526,-0.068C0.526,-0.067 0.527,-0.066 0.527,-0.066C0.527,-0.067 0.527,-0.068 0.528,-0.068L0.527,-0.068C0.527,-0.069 0.528,-0.069 0.529,-0.069C0.528,-0.069 0.527,-0.07 0.526,-0.07C0.526,-0.072 0.527,-0.073 0.528,-0.073C0.534,-0.075 0.538,-0.077 0.543,-0.08L0.544,-0.08C0.545,-0.08 0.547,-0.081 0.548,-0.082L0.548,-0.081C0.546,-0.078 0.544,-0.076 0.542,-0.075C0.545,-0.077 0.549,-0.08 0.554,-0.083C0.559,-0.086 0.565,-0.09 0.571,-0.094C0.564,-0.086 0.557,-0.079 0.55,-0.072C0.537,-0.059 0.522,-0.05 0.506,-0.046L0.506,-0.045C0.507,-0.046 0.509,-0.046 0.513,-0.047C0.515,-0.047 0.517,-0.048 0.52,-0.049C0.527,-0.052 0.535,-0.057 0.541,-0.063C0.545,-0.065 0.549,-0.068 0.553,-0.072C0.555,-0.075 0.558,-0.077 0.562,-0.08C0.567,-0.084 0.571,-0.088 0.575,-0.091C0.58,-0.094 0.586,-0.098 0.591,-0.103C0.592,-0.102 0.593,-0.102 0.595,-0.104C0.595,-0.102 0.596,-0.101 0.596,-0.101L0.597,-0.102C0.6,-0.104 0.603,-0.106 0.606,-0.108C0.608,-0.11 0.61,-0.111 0.611,-0.113L0.612,-0.112C0.613,-0.113 0.614,-0.114 0.616,-0.115C0.616,-0.115 0.617,-0.114 0.617,-0.113C0.615,-0.113 0.614,-0.112 0.616,-0.111C0.615,-0.111 0.614,-0.11 0.613,-0.11L0.614,-0.11C0.613,-0.109 0.612,-0.108 0.613,-0.107C0.613,-0.106 0.614,-0.106 0.614,-0.107C0.615,-0.107 0.616,-0.106 0.616,-0.105C0.618,-0.107 0.619,-0.109 0.62,-0.111C0.624,-0.117 0.629,-0.121 0.634,-0.126C0.633,-0.124 0.632,-0.122 0.631,-0.121C0.632,-0.122 0.634,-0.124 0.636,-0.126C0.636,-0.125 0.636,-0.125 0.637,-0.125C0.631,-0.113 0.623,-0.103 0.613,-0.094C0.623,-0.104 0.632,-0.114 0.639,-0.125C0.642,-0.128 0.645,-0.131 0.648,-0.134C0.649,-0.137 0.652,-0.14 0.656,-0.143C0.658,-0.145 0.66,-0.147 0.664,-0.149C0.669,-0.157 0.675,-0.163 0.683,-0.169C0.684,-0.172 0.687,-0.174 0.691,-0.175C0.693,-0.175 0.694,-0.176 0.694,-0.176C0.699,-0.182 0.703,-0.189 0.708,-0.195C0.71,-0.199 0.712,-0.202 0.715,-0.207C0.715,-0.206 0.715,-0.206 0.716,-0.206C0.716,-0.205 0.715,-0.204 0.715,-0.203C0.714,-0.203 0.714,-0.203 0.714,-0.204C0.714,-0.201 0.713,-0.2 0.711,-0.199L0.712,-0.199C0.715,-0.2 0.717,-0.201 0.719,-0.204L0.717,-0.204C0.716,-0.205 0.716,-0.205 0.718,-0.206C0.716,-0.206 0.715,-0.206 0.715,-0.207C0.716,-0.208 0.717,-0.21 0.719,-0.212C0.72,-0.213 0.721,-0.214 0.723,-0.217C0.723,-0.22 0.724,-0.223 0.726,-0.227L0.725,-0.227C0.725,-0.23 0.726,-0.234 0.729,-0.236C0.731,-0.237 0.732,-0.238 0.733,-0.239C0.731,-0.239 0.73,-0.238 0.729,-0.236C0.729,-0.239 0.73,-0.241 0.733,-0.243C0.733,-0.244 0.734,-0.244 0.734,-0.245C0.737,-0.248 0.738,-0.251 0.738,-0.256L0.738,-0.255L0.738,-0.258C0.74,-0.261 0.742,-0.265 0.744,-0.27C0.745,-0.27 0.746,-0.272 0.746,-0.275C0.745,-0.274 0.745,-0.273 0.744,-0.273C0.745,-0.277 0.747,-0.282 0.75,-0.287C0.753,-0.295 0.755,-0.303 0.756,-0.312C0.758,-0.315 0.76,-0.319 0.761,-0.325C0.762,-0.331 0.764,-0.337 0.767,-0.344C0.767,-0.35 0.769,-0.355 0.774,-0.359C0.779,-0.359 0.783,-0.358 0.787,-0.357C0.79,-0.356 0.794,-0.356 0.798,-0.357L0.812,-0.357C0.822,-0.359 0.833,-0.359 0.845,-0.357C0.854,-0.357 0.864,-0.354 0.874,-0.348C0.879,-0.346 0.883,-0.344 0.888,-0.341C0.892,-0.34 0.896,-0.338 0.9,-0.335C0.904,-0.336 0.907,-0.338 0.91,-0.341C0.911,-0.343 0.914,-0.345 0.917,-0.347C0.921,-0.351 0.923,-0.357 0.923,-0.365C0.924,-0.366 0.926,-0.367 0.928,-0.367C0.933,-0.372 0.934,-0.379 0.93,-0.386C0.924,-0.394 0.92,-0.402 0.916,-0.41C0.902,-0.425 0.886,-0.439 0.87,-0.451C0.851,-0.459 0.833,-0.47 0.816,-0.483C0.817,-0.481 0.817,-0.48 0.817,-0.479C0.815,-0.48 0.814,-0.481 0.813,-0.483L0.813,-0.482C0.812,-0.482 0.812,-0.483 0.812,-0.483L0.812,-0.479C0.809,-0.48 0.807,-0.48 0.806,-0.48C0.805,-0.479 0.805,-0.478 0.805,-0.478C0.803,-0.478 0.802,-0.478 0.802,-0.479L0.802,-0.478C0.796,-0.478 0.791,-0.48 0.786,-0.485C0.784,-0.484 0.781,-0.484 0.779,-0.485C0.781,-0.496 0.782,-0.506 0.783,-0.516C0.784,-0.52 0.784,-0.523 0.783,-0.526C0.784,-0.527 0.784,-0.528 0.784,-0.529C0.784,-0.532 0.785,-0.535 0.785,-0.539C0.785,-0.538 0.784,-0.538 0.784,-0.538C0.784,-0.543 0.785,-0.549 0.786,-0.554C0.789,-0.571 0.792,-0.589 0.797,-0.607C0.798,-0.613 0.8,-0.619 0.804,-0.626C0.808,-0.637 0.812,-0.648 0.816,-0.659C0.798,-0.711 0.766,-0.75 0.719,-0.776ZM0.469,-0.348C0.466,-0.345 0.465,-0.343 0.467,-0.341L0.467,-0.342C0.465,-0.34 0.464,-0.337 0.463,-0.333L0.462,-0.333C0.459,-0.33 0.456,-0.326 0.455,-0.323C0.454,-0.323 0.454,-0.322 0.454,-0.322C0.453,-0.321 0.453,-0.32 0.452,-0.318L0.453,-0.318C0.452,-0.316 0.45,-0.314 0.448,-0.313L0.45,-0.313L0.448,-0.313C0.443,-0.302 0.438,-0.293 0.432,-0.284C0.428,-0.281 0.425,-0.279 0.421,-0.279C0.42,-0.284 0.42,-0.288 0.421,-0.292C0.424,-0.302 0.426,-0.312 0.429,-0.322C0.431,-0.324 0.434,-0.327 0.438,-0.33L0.438,-0.337L0.441,-0.337C0.446,-0.342 0.452,-0.347 0.459,-0.351C0.46,-0.352 0.462,-0.353 0.465,-0.354C0.468,-0.353 0.469,-0.351 0.469,-0.348ZM0.224,0.008C0.223,0.007 0.223,0.005 0.225,0.003C0.217,0.011 0.212,0.02 0.207,0.028L0.204,0.028C0.204,0.029 0.204,0.029 0.205,0.029C0.203,0.031 0.202,0.033 0.201,0.035C0.202,0.036 0.201,0.038 0.2,0.04C0.199,0.039 0.199,0.038 0.201,0.037C0.199,0.04 0.197,0.042 0.195,0.044C0.195,0.043 0.194,0.043 0.193,0.044C0.192,0.048 0.19,0.051 0.188,0.055C0.19,0.057 0.191,0.058 0.192,0.059C0.198,0.061 0.205,0.061 0.212,0.058C0.21,0.059 0.209,0.059 0.208,0.057C0.208,0.057 0.208,0.058 0.209,0.058C0.204,0.06 0.199,0.06 0.195,0.059C0.193,0.059 0.192,0.058 0.191,0.056C0.19,0.056 0.189,0.055 0.189,0.055L0.19,0.055C0.191,0.053 0.193,0.051 0.195,0.049C0.197,0.051 0.199,0.053 0.201,0.055C0.206,0.056 0.21,0.055 0.214,0.052C0.211,0.054 0.208,0.054 0.206,0.052C0.209,0.051 0.213,0.05 0.218,0.049L0.214,0.049C0.216,0.048 0.218,0.047 0.222,0.046C0.217,0.045 0.213,0.044 0.209,0.042C0.21,0.041 0.211,0.041 0.212,0.041L0.211,0.041C0.211,0.04 0.211,0.04 0.212,0.039C0.211,0.04 0.21,0.039 0.209,0.038C0.209,0.033 0.211,0.028 0.214,0.022C0.215,0.021 0.216,0.019 0.218,0.017C0.218,0.016 0.219,0.015 0.22,0.014L0.22,0.016C0.221,0.014 0.222,0.013 0.223,0.012C0.222,0.01 0.223,0.007 0.227,0.005C0.225,0.006 0.224,0.007 0.224,0.008ZM0.208,0.045L0.208,0.046C0.205,0.042 0.203,0.04 0.201,0.04C0.201,0.045 0.204,0.048 0.209,0.049C0.208,0.05 0.206,0.051 0.204,0.051C0.202,0.049 0.202,0.049 0.203,0.049L0.195,0.049C0.196,0.048 0.196,0.048 0.196,0.047C0.197,0.045 0.198,0.043 0.199,0.04C0.199,0.041 0.2,0.041 0.2,0.041C0.201,0.039 0.202,0.037 0.203,0.036C0.203,0.039 0.205,0.042 0.208,0.045Z" style="fill:white;fill-rule:nonzero;"/>
                    </g>
                </g>
            </g>
        </g>
        <g id="twitter" transform="matrix(1,0,0,1,-3.37508e-14,-160)">
            <g id="background2" serif:id="background" transform="matrix(0.923304,0,0,0.695652,24.7729,416.696)">
                <rect x="-16" y="-24" width="339" height="115" style="fill:white;"/>
            </g>
            <g id="accent2" serif:id="accent" transform="matrix(0.384615,0,0,0.689655,6.15385,408.966)">
                <rect x="-16" y="-13" width="26" height="116" style="fill:rgb(0,157,247);"/>
            </g>
            <g id="text1" serif:id="text">
            </g>
        </g>
        <g id="discord">
        </g>
        <g id="soundcloud">
        </g>
        <g id="activity_pub">
        </g>
    </g>
</svg>
