<?xml version="1.0" encoding="UTF-8" standalone="no"?>
<!DOCTYPE svg PUBLIC "-//W3C//DTD SVG 1.1//EN" "http://www.w3.org/Graphics/SVG/1.1/DTD/svg11.dtd">
<svg width="190px" height="80px" version="1.1" xmlns="http://www.w3.org/2000/svg" xmlns:xlink="http://www.w3.org/1999/xlink" xml:space="preserve" xmlns:serif="http://www.serif.com/" style="fill-rule:evenodd;clip-rule:evenodd;stroke-linejoin:round;stroke-miterlimit:2;">
    <g transform="matrix(1,0,0,1,0,-400)">
        <g id="bg" transform="matrix(0.519031,0,0,0.781759,65.917,68.013)">
            <rect x="-127" y="-87" width="578" height="614" style="fill:rgb(251,251,245);"/>
        </g>
        <g id="patreon">
            <g id="accent" transform="matrix(0.384615,0,0,0.689655,6.15385,408.966)">
                <rect x="-16" y="-13" width="26" height="116" style="fill:rgb(255,66,77);"/>
            </g>
            <g transform="matrix(1,0,0,1,9,403)">
                <g id="text" transform="matrix(24,0,0,24,15,43.1641)">
                    <path d="M0.274,-0.401L0.292,-0.401C0.354,-0.401 0.396,-0.407 0.417,-0.42C0.439,-0.433 0.45,-0.456 0.45,-0.487C0.45,-0.513 0.441,-0.532 0.422,-0.545C0.403,-0.557 0.374,-0.563 0.334,-0.563L0.3,-0.563L0.274,-0.401ZM0.02,-0L0.134,-0.715L0.33,-0.715C0.384,-0.715 0.425,-0.713 0.453,-0.708C0.48,-0.704 0.504,-0.696 0.524,-0.686C0.56,-0.667 0.588,-0.642 0.606,-0.61C0.624,-0.578 0.633,-0.539 0.633,-0.494C0.633,-0.45 0.623,-0.408 0.604,-0.37C0.584,-0.332 0.558,-0.303 0.525,-0.282C0.505,-0.27 0.482,-0.262 0.456,-0.257C0.429,-0.252 0.387,-0.249 0.33,-0.249L0.25,-0.249L0.21,-0L0.02,-0Z" style="fill:rgb(58,42,16);fill-rule:nonzero;"/>
                </g>
                <g transform="matrix(24,0,0,24,30.0352,43.1641)">
                    <path d="M0.198,-0.229C0.198,-0.197 0.208,-0.172 0.227,-0.153C0.246,-0.134 0.272,-0.124 0.303,-0.124C0.338,-0.124 0.366,-0.137 0.389,-0.164C0.412,-0.191 0.424,-0.225 0.424,-0.265C0.424,-0.296 0.414,-0.321 0.395,-0.34C0.376,-0.359 0.351,-0.368 0.32,-0.368C0.285,-0.368 0.256,-0.355 0.233,-0.329C0.21,-0.302 0.198,-0.269 0.198,-0.229ZM0.39,-0.066C0.366,-0.038 0.34,-0.017 0.311,-0.003C0.282,0.011 0.25,0.018 0.217,0.018C0.16,0.018 0.114,-0.003 0.077,-0.046C0.041,-0.089 0.023,-0.144 0.023,-0.212C0.023,-0.297 0.048,-0.368 0.097,-0.424C0.146,-0.481 0.207,-0.509 0.281,-0.509C0.315,-0.509 0.346,-0.502 0.373,-0.488C0.4,-0.473 0.424,-0.451 0.446,-0.422L0.457,-0.493L0.622,-0.493L0.544,-0L0.382,-0L0.39,-0.066Z" style="fill:rgb(58,42,16);fill-rule:nonzero;"/>
                </g>
                <g transform="matrix(24,0,0,24,46.043,43.1641)">
                    <path d="M0.028,-0L0.086,-0.367L0.004,-0.367L0.024,-0.493L0.106,-0.493L0.128,-0.636L0.302,-0.636L0.279,-0.493L0.367,-0.493L0.347,-0.367L0.259,-0.367L0.201,-0L0.028,-0Z" style="fill:rgb(58,42,16);fill-rule:nonzero;"/>
                </g>
                <g transform="matrix(24,0,0,24,54.3047,43.1641)">
                    <path d="M0.005,-0L0.083,-0.493L0.25,-0.493L0.238,-0.409C0.253,-0.44 0.274,-0.464 0.299,-0.48C0.325,-0.497 0.355,-0.505 0.389,-0.505C0.393,-0.505 0.397,-0.505 0.401,-0.504C0.406,-0.504 0.413,-0.503 0.423,-0.501L0.388,-0.346C0.377,-0.349 0.367,-0.351 0.357,-0.352C0.348,-0.353 0.34,-0.354 0.331,-0.354C0.298,-0.354 0.271,-0.344 0.252,-0.323C0.232,-0.302 0.219,-0.269 0.212,-0.225L0.177,-0L0.005,-0Z" style="fill:rgb(58,42,16);fill-rule:nonzero;"/>
                </g>
                <g transform="matrix(24,0,0,24,64.3125,43.1641)">
                    <path d="M0.39,-0.305C0.389,-0.332 0.38,-0.353 0.363,-0.369C0.347,-0.384 0.326,-0.392 0.299,-0.392C0.275,-0.392 0.253,-0.384 0.234,-0.369C0.215,-0.354 0.201,-0.333 0.191,-0.305L0.39,-0.305ZM0.179,-0.205L0.179,-0.194C0.179,-0.163 0.187,-0.139 0.203,-0.123C0.219,-0.106 0.242,-0.098 0.273,-0.098C0.294,-0.098 0.315,-0.103 0.334,-0.112C0.353,-0.121 0.373,-0.135 0.395,-0.155L0.489,-0.06C0.461,-0.033 0.428,-0.013 0.392,-0C0.355,0.013 0.314,0.02 0.269,0.02C0.189,0.02 0.126,-0.001 0.082,-0.044C0.037,-0.087 0.015,-0.147 0.015,-0.224C0.015,-0.308 0.042,-0.377 0.094,-0.43C0.147,-0.482 0.216,-0.509 0.3,-0.509C0.376,-0.509 0.437,-0.486 0.484,-0.439C0.53,-0.392 0.553,-0.331 0.553,-0.254C0.553,-0.247 0.552,-0.235 0.55,-0.217C0.55,-0.211 0.549,-0.207 0.549,-0.205L0.179,-0.205Z" style="fill:rgb(58,42,16);fill-rule:nonzero;"/>
                </g>
                <g transform="matrix(24,0,0,24,78.6445,43.1641)">
                    <path d="M0.302,-0.368C0.268,-0.368 0.239,-0.354 0.216,-0.325C0.192,-0.297 0.18,-0.262 0.18,-0.221C0.18,-0.191 0.189,-0.167 0.206,-0.149C0.223,-0.131 0.246,-0.122 0.275,-0.122C0.311,-0.122 0.341,-0.136 0.364,-0.163C0.387,-0.191 0.399,-0.226 0.399,-0.269C0.399,-0.3 0.39,-0.324 0.373,-0.342C0.355,-0.359 0.332,-0.368 0.302,-0.368ZM0.013,-0.223C0.013,-0.307 0.041,-0.375 0.095,-0.429C0.15,-0.483 0.22,-0.51 0.305,-0.51C0.384,-0.51 0.447,-0.487 0.494,-0.443C0.541,-0.398 0.565,-0.339 0.565,-0.264C0.565,-0.181 0.537,-0.113 0.482,-0.06C0.427,-0.007 0.355,0.02 0.268,0.02C0.191,0.02 0.129,-0.002 0.083,-0.046C0.036,-0.091 0.013,-0.15 0.013,-0.223Z" style="fill:rgb(58,42,16);fill-rule:nonzero;"/>
                </g>
                <g transform="matrix(24,0,0,24,93.3516,43.1641)">
                    <path d="M0.005,-0L0.083,-0.493L0.25,-0.493L0.238,-0.416C0.265,-0.449 0.292,-0.472 0.318,-0.487C0.345,-0.501 0.374,-0.509 0.406,-0.509C0.457,-0.509 0.497,-0.495 0.525,-0.468C0.553,-0.44 0.567,-0.402 0.567,-0.352C0.567,-0.335 0.564,-0.307 0.558,-0.268C0.558,-0.264 0.557,-0.261 0.557,-0.259L0.516,-0L0.342,-0L0.383,-0.261C0.384,-0.269 0.385,-0.276 0.386,-0.283C0.387,-0.29 0.387,-0.297 0.387,-0.302C0.387,-0.323 0.382,-0.34 0.37,-0.351C0.359,-0.362 0.342,-0.367 0.32,-0.367C0.29,-0.367 0.266,-0.356 0.249,-0.334C0.232,-0.313 0.219,-0.278 0.212,-0.23L0.177,-0L0.005,-0Z" style="fill:rgb(58,42,16);fill-rule:nonzero;"/>
                </g>
            </g>
        </g>
        <g id="esa" transform="matrix(1,0,0,1,-5.68434e-14,-80)">
            <g id="accent1" serif:id="accent" transform="matrix(0.384615,0,0,0.689655,6.15385,408.966)">
                <rect x="-16" y="-13" width="26" height="116" style="fill:rgb(255,153,0);"/>
            </g>
            <g id="text1" serif:id="text">
            </g>
        </g>
        <g id="twitter">
        </g>
        <g id="discord">
        </g>
        <g id="soundcloud">
        </g>
        <g id="activity_pub">
        </g>
    </g>
</svg>
