<svg xmlns="http://www.w3.org/2000/svg" viewBox="0 0 150 40">
  <defs>
    <style>
      .cls-1 {
        fill: #fa5524;
      }

      .cls-2 {
        fill: none;
        stroke: #f68127;
        stroke-miterlimit: 10;
        stroke-width: 3.54px;
      }

      .cls-3 {
        fill: #fff;
      }
    </style>
  </defs>
  <title>link_soundcloud</title>
  <g id="レイヤー_2" data-name="レイヤー 2">
    <g id="レイヤー_1-2" data-name="レイヤー 1">
      <g>
        <rect class="cls-1" width="150" height="40"/>
        <line class="cls-2" y1="35" x2="150" y2="35"/>
        <g>
          <path class="cls-3" d="M6,20.13A6.91,6.91,0,0,0,9.49,21.2a1.89,1.89,0,0,0,2.11-1.83c0-.77-.3-1.13-2-2.33a21.71,21.71,0,0,1-2.22-1.71A4,4,0,0,1,6,12.17a5.22,5.22,0,0,1,5.45-5.25A7.3,7.3,0,0,1,16,8.4l-1.53,3a5.77,5.77,0,0,0-3-1.12,1.57,1.57,0,0,0-1.76,1.53c0,.79.28,1.07,2,2.19,2.73,1.74,3.58,2.89,3.58,4.93A5.72,5.72,0,0,1,9.33,24.6c-1.63,0-2.7-.34-5-1.61Z"/>
          <path class="cls-3" d="M28,18.93a5.59,5.59,0,0,1-5.74,5.67c-3.35,0-5.62-2.12-5.62-5.26a5.7,5.7,0,0,1,5.85-5.71A5.18,5.18,0,0,1,28,18.93Zm-8,.38a2.21,2.21,0,0,0,2.14,2.5c1.46,0,2.48-1.22,2.48-2.95a2.17,2.17,0,0,0-2.17-2.45A2.63,2.63,0,0,0,20,19.31Z"/>
          <path class="cls-3" d="M33.59,14l-.66,5.48a7.42,7.42,0,0,0-.08.82,1.54,1.54,0,0,0,1.76,1.61c1.25,0,1.76-.67,2-2.61l.64-5.3h3.14l-.67,5.38a6.84,6.84,0,0,1-1.1,3.6c-.86,1.15-2.14,1.66-4.15,1.66-3.07,0-4.75-1.43-4.75-4,0-.4.05-1,.1-1.5l.64-5.1Z"/>
          <path class="cls-3" d="M42.85,14H46l-.18,1.55c1.27-1.48,2-1.91,3.39-1.91a3.58,3.58,0,0,1,2.45.84,2.36,2.36,0,0,1,.64,1.89c0,.38,0,.74-.05,1.1l-.87,6.83H48.24l.69-5.66a6.62,6.62,0,0,0,.07-.89c0-.87-.46-1.3-1.4-1.3a2,2,0,0,0-1.81,1,5.66,5.66,0,0,0-.41,1.71l-.64,5.1H41.58Z"/>
          <path class="cls-3" d="M64.46,24.26H61.35l.2-1.55A4.05,4.05,0,0,1,58,24.6c-2.57,0-4.23-1.89-4.23-4.85,0-3.5,2.19-6.12,5.15-6.12a3.86,3.86,0,0,1,3.47,1.83l1.23-9.79h3.11Zm-7.27-4.89c0,1.5.84,2.5,2.12,2.5A3,3,0,0,0,62,18.63a2.15,2.15,0,0,0-2.14-2.45A2.93,2.93,0,0,0,57.19,19.37Z"/>
          <path class="cls-3" d="M79.57,23.47a7.54,7.54,0,0,1-4.11,1.13,8.09,8.09,0,0,1-5.72-2.38,8,8,0,0,1-2.19-5.87c0-5.45,3.8-9.43,9.06-9.43a8.4,8.4,0,0,1,4.82,1.35L81,12a6.56,6.56,0,0,0-4.31-1.71c-3.09,0-5.46,2.6-5.46,6,0,2.88,1.86,4.87,4.54,4.87a6.91,6.91,0,0,0,4.31-1.68Z"/>
          <path class="cls-3" d="M83.85,5.67H87l-2.3,18.59H81.55Z"/>
          <path class="cls-3" d="M98.52,18.93a5.59,5.59,0,0,1-5.74,5.67c-3.34,0-5.61-2.12-5.61-5.26A5.7,5.7,0,0,1,93,13.63,5.18,5.18,0,0,1,98.52,18.93Zm-8,.38a2.21,2.21,0,0,0,2.15,2.5c1.45,0,2.47-1.22,2.47-2.95A2.17,2.17,0,0,0,93,16.41,2.63,2.63,0,0,0,90.53,19.31Z"/>
          <path class="cls-3" d="M104.11,14l-.67,5.48a6.8,6.8,0,0,0-.07.82c0,1,.63,1.61,1.76,1.61s1.76-.67,2-2.61l.64-5.3h3.14l-.66,5.38a6.93,6.93,0,0,1-1.1,3.6c-.87,1.15-2.15,1.66-4.16,1.66-3.06,0-4.75-1.43-4.75-4,0-.4,0-1,.11-1.5L101,14Z"/>
          <path class="cls-3" d="M122.73,24.26h-3.11l.2-1.55a4.06,4.06,0,0,1-3.52,1.89c-2.58,0-4.23-1.89-4.23-4.85,0-3.5,2.19-6.12,5.15-6.12a3.86,3.86,0,0,1,3.47,1.83l1.22-9.79H125Zm-7.27-4.89c0,1.5.84,2.5,2.12,2.5a3,3,0,0,0,2.7-3.24,2.15,2.15,0,0,0-2.14-2.45A2.93,2.93,0,0,0,115.46,19.37Z"/>
        </g>
      </g>
    </g>
  </g>
</svg>
