<?xml version="1.0" encoding="UTF-8" standalone="no"?>
<!DOCTYPE svg PUBLIC "-//W3C//DTD SVG 1.1//EN" "http://www.w3.org/Graphics/SVG/1.1/DTD/svg11.dtd">
<svg width="190px" height="80px" version="1.1" xmlns="http://www.w3.org/2000/svg" xmlns:xlink="http://www.w3.org/1999/xlink" xml:space="preserve" xmlns:serif="http://www.serif.com/" style="fill-rule:evenodd;clip-rule:evenodd;stroke-linejoin:round;stroke-miterlimit:2;">
    <g transform="matrix(1,0,0,1,0,-80)">
        <g id="bg" transform="matrix(0.519031,0,0,0.781759,65.917,68.013)">
            <rect x="-127" y="-87" width="578" height="614" style="fill:rgb(251,251,245);"/>
        </g>
        <g id="patreon">
        </g>
        <g id="esa">
        </g>
        <g id="twitter">
        </g>
        <g transform="matrix(0.384615,0,0,0.689655,6.15385,168.966)">
            <g id="discord">
                <rect id="accent" x="-16" y="-13" width="26" height="116" style="fill:rgb(88,101,242);"/>
            </g>
        </g>
        <g id="soundcloud" transform="matrix(1,0,0,1,0,-320)">
            <g id="accent1" serif:id="accent" transform="matrix(0.384615,0,0,0.689655,6.15385,408.966)">
                <rect x="-16" y="-13" width="26" height="116" style="fill:rgb(255,85,0);"/>
            </g>
            <g transform="matrix(1,0,0,1,9,403)">
                <g id="text" transform="matrix(24,0,0,24,15,43.1641)">
                    <path d="M0.084,-0.246C0.114,-0.214 0.142,-0.19 0.17,-0.176C0.197,-0.161 0.225,-0.154 0.254,-0.154C0.278,-0.154 0.297,-0.16 0.312,-0.171C0.326,-0.183 0.333,-0.199 0.333,-0.218C0.333,-0.244 0.304,-0.272 0.246,-0.302C0.241,-0.305 0.236,-0.307 0.233,-0.309C0.177,-0.338 0.138,-0.367 0.117,-0.394C0.096,-0.421 0.086,-0.453 0.086,-0.492C0.086,-0.563 0.11,-0.621 0.157,-0.666C0.205,-0.71 0.267,-0.733 0.342,-0.733C0.382,-0.733 0.42,-0.726 0.456,-0.712C0.493,-0.698 0.528,-0.677 0.56,-0.65L0.478,-0.509C0.452,-0.531 0.429,-0.547 0.408,-0.558C0.387,-0.569 0.367,-0.574 0.349,-0.574C0.33,-0.574 0.313,-0.569 0.3,-0.557C0.287,-0.546 0.281,-0.532 0.281,-0.516C0.281,-0.496 0.305,-0.473 0.354,-0.448C0.371,-0.439 0.385,-0.432 0.394,-0.427C0.444,-0.399 0.479,-0.371 0.499,-0.342C0.518,-0.313 0.528,-0.277 0.528,-0.234C0.528,-0.157 0.501,-0.096 0.448,-0.051C0.395,-0.005 0.323,0.018 0.232,0.018C0.184,0.018 0.139,0.008 0.098,-0.012C0.056,-0.033 0.018,-0.063 -0.015,-0.103L0.084,-0.246Z" style="fill:rgb(58,42,16);fill-rule:nonzero;"/>
                </g>
                <g transform="matrix(24,0,0,24,28.7813,43.1641)">
                    <path d="M0.302,-0.368C0.268,-0.368 0.239,-0.354 0.216,-0.325C0.192,-0.297 0.18,-0.262 0.18,-0.221C0.18,-0.191 0.189,-0.167 0.206,-0.149C0.223,-0.131 0.246,-0.122 0.275,-0.122C0.311,-0.122 0.341,-0.136 0.364,-0.163C0.387,-0.191 0.399,-0.226 0.399,-0.269C0.399,-0.3 0.39,-0.324 0.373,-0.342C0.355,-0.359 0.332,-0.368 0.302,-0.368ZM0.013,-0.223C0.013,-0.307 0.041,-0.375 0.095,-0.429C0.15,-0.483 0.22,-0.51 0.305,-0.51C0.384,-0.51 0.447,-0.487 0.494,-0.443C0.541,-0.398 0.565,-0.339 0.565,-0.264C0.565,-0.181 0.537,-0.113 0.482,-0.06C0.427,-0.007 0.355,0.02 0.268,0.02C0.191,0.02 0.129,-0.002 0.083,-0.046C0.036,-0.091 0.013,-0.15 0.013,-0.223Z" style="fill:rgb(58,42,16);fill-rule:nonzero;"/>
                </g>
                <g transform="matrix(24,0,0,24,43.4883,43.1641)">
                    <path d="M0.074,-0.493L0.247,-0.493L0.215,-0.289C0.211,-0.262 0.208,-0.24 0.206,-0.221C0.203,-0.203 0.202,-0.192 0.202,-0.186C0.202,-0.163 0.208,-0.145 0.219,-0.132C0.23,-0.12 0.247,-0.114 0.268,-0.114C0.318,-0.114 0.352,-0.171 0.37,-0.284C0.371,-0.29 0.371,-0.295 0.372,-0.298L0.403,-0.493L0.576,-0.493L0.541,-0.27L0.54,-0.26C0.522,-0.154 0.495,-0.083 0.459,-0.048C0.436,-0.026 0.408,-0.009 0.374,0.002C0.341,0.013 0.303,0.019 0.261,0.019C0.189,0.019 0.131,0.003 0.09,-0.03C0.048,-0.063 0.027,-0.108 0.027,-0.164C0.027,-0.177 0.028,-0.193 0.03,-0.213C0.033,-0.233 0.037,-0.263 0.044,-0.304L0.074,-0.493Z" style="fill:rgb(58,42,16);fill-rule:nonzero;"/>
                </g>
                <g transform="matrix(24,0,0,24,58.1484,43.1641)">
                    <path d="M0.005,-0L0.083,-0.493L0.25,-0.493L0.238,-0.416C0.265,-0.449 0.292,-0.472 0.318,-0.487C0.345,-0.501 0.374,-0.509 0.406,-0.509C0.457,-0.509 0.497,-0.495 0.525,-0.468C0.553,-0.44 0.567,-0.402 0.567,-0.352C0.567,-0.335 0.564,-0.307 0.558,-0.268C0.558,-0.264 0.557,-0.261 0.557,-0.259L0.516,-0L0.342,-0L0.383,-0.261C0.384,-0.269 0.385,-0.276 0.386,-0.283C0.387,-0.29 0.387,-0.297 0.387,-0.302C0.387,-0.323 0.382,-0.34 0.37,-0.351C0.359,-0.362 0.342,-0.367 0.32,-0.367C0.29,-0.367 0.266,-0.356 0.249,-0.334C0.232,-0.313 0.219,-0.278 0.212,-0.23L0.177,-0L0.005,-0Z" style="fill:rgb(58,42,16);fill-rule:nonzero;"/>
                </g>
                <g transform="matrix(24,0,0,24,73.2656,43.1641)">
                    <path d="M0.202,-0.232C0.202,-0.2 0.212,-0.175 0.231,-0.156C0.25,-0.137 0.276,-0.127 0.307,-0.127C0.342,-0.127 0.37,-0.14 0.394,-0.167C0.417,-0.194 0.428,-0.228 0.428,-0.268C0.428,-0.299 0.419,-0.323 0.399,-0.343C0.38,-0.362 0.355,-0.371 0.324,-0.371C0.289,-0.371 0.26,-0.358 0.237,-0.332C0.214,-0.306 0.202,-0.272 0.202,-0.232ZM0.664,-0.757L0.545,-0L0.381,-0L0.391,-0.064C0.367,-0.036 0.34,-0.015 0.311,-0.001C0.282,0.013 0.25,0.02 0.217,0.02C0.16,0.02 0.114,-0.001 0.077,-0.044C0.041,-0.087 0.023,-0.142 0.023,-0.21C0.023,-0.295 0.047,-0.366 0.096,-0.422C0.145,-0.478 0.207,-0.506 0.281,-0.506C0.314,-0.506 0.344,-0.499 0.371,-0.485C0.398,-0.471 0.423,-0.45 0.447,-0.42L0.447,-0.434C0.447,-0.444 0.447,-0.454 0.448,-0.465C0.449,-0.475 0.451,-0.486 0.452,-0.497L0.493,-0.757L0.664,-0.757Z" style="fill:rgb(58,42,16);fill-rule:nonzero;"/>
                </g>
                <g transform="matrix(24,0,0,24,89.2734,43.1641)">
                    <path d="M0.664,-0.681L0.632,-0.484C0.604,-0.508 0.575,-0.526 0.542,-0.538C0.51,-0.55 0.477,-0.556 0.442,-0.556C0.383,-0.556 0.334,-0.535 0.295,-0.494C0.257,-0.453 0.238,-0.4 0.238,-0.336C0.238,-0.278 0.254,-0.233 0.286,-0.201C0.318,-0.17 0.364,-0.154 0.423,-0.154C0.448,-0.154 0.474,-0.157 0.501,-0.163C0.528,-0.169 0.556,-0.179 0.586,-0.191L0.556,-0.006C0.532,0.002 0.505,0.008 0.475,0.012C0.446,0.016 0.414,0.018 0.38,0.018C0.278,0.018 0.196,-0.014 0.135,-0.077C0.074,-0.14 0.043,-0.224 0.043,-0.328C0.043,-0.379 0.051,-0.427 0.067,-0.472C0.082,-0.518 0.106,-0.56 0.136,-0.597C0.172,-0.641 0.217,-0.674 0.27,-0.697C0.324,-0.72 0.384,-0.732 0.45,-0.732C0.488,-0.732 0.525,-0.728 0.56,-0.719C0.596,-0.711 0.63,-0.698 0.664,-0.681Z" style="fill:rgb(58,42,16);fill-rule:nonzero;"/>
                </g>
                <g transform="matrix(24,0,0,24,104.941,43.1641)">
                    <path d="M0.133,-0.757L0.308,-0.757L0.187,-0L0.012,-0L0.133,-0.757Z" style="fill:rgb(58,42,16);fill-rule:nonzero;"/>
                </g>
                <g transform="matrix(24,0,0,24,112.43,43.1641)">
                    <path d="M0.302,-0.368C0.268,-0.368 0.239,-0.354 0.216,-0.325C0.192,-0.297 0.18,-0.262 0.18,-0.221C0.18,-0.191 0.189,-0.167 0.206,-0.149C0.223,-0.131 0.246,-0.122 0.275,-0.122C0.311,-0.122 0.341,-0.136 0.364,-0.163C0.387,-0.191 0.399,-0.226 0.399,-0.269C0.399,-0.3 0.39,-0.324 0.373,-0.342C0.355,-0.359 0.332,-0.368 0.302,-0.368ZM0.013,-0.223C0.013,-0.307 0.041,-0.375 0.095,-0.429C0.15,-0.483 0.22,-0.51 0.305,-0.51C0.384,-0.51 0.447,-0.487 0.494,-0.443C0.541,-0.398 0.565,-0.339 0.565,-0.264C0.565,-0.181 0.537,-0.113 0.482,-0.06C0.427,-0.007 0.355,0.02 0.268,0.02C0.191,0.02 0.129,-0.002 0.083,-0.046C0.036,-0.091 0.013,-0.15 0.013,-0.223Z" style="fill:rgb(58,42,16);fill-rule:nonzero;"/>
                </g>
                <g transform="matrix(24,0,0,24,127.137,43.1641)">
                    <path d="M0.074,-0.493L0.247,-0.493L0.215,-0.289C0.211,-0.262 0.208,-0.24 0.206,-0.221C0.203,-0.203 0.202,-0.192 0.202,-0.186C0.202,-0.163 0.208,-0.145 0.219,-0.132C0.23,-0.12 0.247,-0.114 0.268,-0.114C0.318,-0.114 0.352,-0.171 0.37,-0.284C0.371,-0.29 0.371,-0.295 0.372,-0.298L0.403,-0.493L0.576,-0.493L0.541,-0.27L0.54,-0.26C0.522,-0.154 0.495,-0.083 0.459,-0.048C0.436,-0.026 0.408,-0.009 0.374,0.002C0.341,0.013 0.303,0.019 0.261,0.019C0.189,0.019 0.131,0.003 0.09,-0.03C0.048,-0.063 0.027,-0.108 0.027,-0.164C0.027,-0.177 0.028,-0.193 0.03,-0.213C0.033,-0.233 0.037,-0.263 0.044,-0.304L0.074,-0.493Z" style="fill:rgb(58,42,16);fill-rule:nonzero;"/>
                </g>
                <g transform="matrix(24,0,0,24,141.797,43.1641)">
                    <path d="M0.202,-0.232C0.202,-0.2 0.212,-0.175 0.231,-0.156C0.25,-0.137 0.276,-0.127 0.307,-0.127C0.342,-0.127 0.37,-0.14 0.394,-0.167C0.417,-0.194 0.428,-0.228 0.428,-0.268C0.428,-0.299 0.419,-0.323 0.399,-0.343C0.38,-0.362 0.355,-0.371 0.324,-0.371C0.289,-0.371 0.26,-0.358 0.237,-0.332C0.214,-0.306 0.202,-0.272 0.202,-0.232ZM0.664,-0.757L0.545,-0L0.381,-0L0.391,-0.064C0.367,-0.036 0.34,-0.015 0.311,-0.001C0.282,0.013 0.25,0.02 0.217,0.02C0.16,0.02 0.114,-0.001 0.077,-0.044C0.041,-0.087 0.023,-0.142 0.023,-0.21C0.023,-0.295 0.047,-0.366 0.096,-0.422C0.145,-0.478 0.207,-0.506 0.281,-0.506C0.314,-0.506 0.344,-0.499 0.371,-0.485C0.398,-0.471 0.423,-0.45 0.447,-0.42L0.447,-0.434C0.447,-0.444 0.447,-0.454 0.448,-0.465C0.449,-0.475 0.451,-0.486 0.452,-0.497L0.493,-0.757L0.664,-0.757Z" style="fill:rgb(58,42,16);fill-rule:nonzero;"/>
                </g>
            </g>
        </g>
        <g id="activity_pub" transform="matrix(1,0,0,1,0,-400)">
            <g id="accent2" serif:id="accent" transform="matrix(0.384615,0,0,0.689655,6.15385,408.966)">
                <rect x="-16" y="-13" width="26" height="116" style="fill:rgb(119,181,140);"/>
            </g>
            <g id="text1" serif:id="text">
            </g>
        </g>
    </g>
</svg>
