<svg xmlns="http://www.w3.org/2000/svg" viewBox="0 0 150 40">
  <defs>
    <style>
      .cls-1 {
        fill: #1da1f2;
      }

      .cls-2 {
        fill: none;
        stroke: #aab8c2;
        stroke-miterlimit: 10;
        stroke-width: 3.54px;
      }

      .cls-3 {
        fill: #fff;
      }
    </style>
  </defs>
  <title>link_twitter</title>
  <g id="レイヤー_2" data-name="レイヤー 2">
    <g id="レイヤー_1-2" data-name="レイヤー 1">
      <g>
        <rect class="cls-1" width="150" height="40"/>
        <line class="cls-2" y1="35" x2="150" y2="35"/>
        <g>
          <path class="cls-3" d="M8.64,10.39H5.15l.38-3.14H15.66l-.38,3.14H12L10.33,24.26H6.93Z"/>
          <path class="cls-3" d="M16.73,14l1.05,4a8.54,8.54,0,0,1,.35,2.25,3,3,0,0,1-.05.64l.21,0a9.39,9.39,0,0,1,1.12-2.66L21.86,14h2.5l1.05,4a10.92,10.92,0,0,1,.3,2.3v.61l.2,0a9.15,9.15,0,0,1,1.2-2.81L29.49,14H32.7l-5.92,10.3h-2.5l-1.07-4.13a9.2,9.2,0,0,1-.41-2.52l0-.57-.21,0a8.65,8.65,0,0,1-1.14,2.73l-2.61,4.51h-2.5L13.64,14Z"/>
          <path class="cls-3" d="M35.63,24.26H32.5L33.77,14h3.11Zm2-14.21a1.88,1.88,0,1,1-1.84-1.86A1.88,1.88,0,0,1,37.68,10.05Z"/>
          <path class="cls-3" d="M39.21,16.35H37.9L38.21,14h1.3l.44-3.5h3.11L42.65,14H44l-.28,2.39H42.34l-1,7.91H38.24Z"/>
          <path class="cls-3" d="M45.76,16.35h-1.3L44.77,14h1.3l.43-3.5h3.11l-.4,3.5h1.37l-.28,2.39H48.9l-1,7.91H44.79Z"/>
          <path class="cls-3" d="M60.74,22.25a5.11,5.11,0,0,1-4.67,2.35,4.92,4.92,0,0,1-5.31-5.21,5.54,5.54,0,0,1,5.74-5.76c3.06,0,4.93,2,4.93,5.23a5.8,5.8,0,0,1-.06.94H53.82a2.66,2.66,0,0,0,.46,1.33,2.46,2.46,0,0,0,1.86.76A2.92,2.92,0,0,0,58,21.18Zm-2.15-4.57A1.69,1.69,0,0,0,56.71,16a2.68,2.68,0,0,0-2.61,1.73Z"/>
          <path class="cls-3" d="M63.82,14h3.12l-.23,2c1.27-1.87,2-2.35,3.29-2.35l.53,0-.38,3.21A4,4,0,0,0,69,16.66c-1.74,0-2.45.79-2.73,3l-.56,4.64H62.55Z"/>
        </g>
      </g>
    </g>
  </g>
</svg>
