<?xml version="1.0" encoding="UTF-8" standalone="no"?>
<!DOCTYPE svg PUBLIC "-//W3C//DTD SVG 1.1//EN" "http://www.w3.org/Graphics/SVG/1.1/DTD/svg11.dtd">
<svg width="190px" height="80px" version="1.1" xmlns="http://www.w3.org/2000/svg" xmlns:xlink="http://www.w3.org/1999/xlink" xml:space="preserve" xmlns:serif="http://www.serif.com/" style="fill-rule:evenodd;clip-rule:evenodd;stroke-linejoin:round;stroke-miterlimit:2;">
    <g transform="matrix(1,0,0,1,0,-240)">
        <g id="bg" transform="matrix(0.519031,0,0,0.781759,65.917,68.013)">
            <rect x="-127" y="-87" width="578" height="614" style="fill:rgb(251,251,245);"/>
        </g>
        <g id="patreon">
        </g>
        <g transform="matrix(0.384615,0,0,0.689655,6.15385,328.966)">
            <g id="esa">
                <rect id="accent" x="-16" y="-13" width="26" height="116" style="fill:rgb(255,153,0);"/>
            </g>
        </g>
        <g id="twitter" transform="matrix(1,0,0,1,-5.68434e-14,-160)">
            <g id="accent1" serif:id="accent" transform="matrix(0.384615,0,0,0.689655,6.15385,408.966)">
                <rect x="-16" y="-13" width="26" height="116" style="fill:rgb(0,157,247);"/>
            </g>
            <g transform="matrix(1,0,0,1,9,403)">
                <g id="text" transform="matrix(24,0,0,24,15,43.1641)">
                    <path d="M0.119,-0L0.206,-0.549L0.046,-0.549L0.073,-0.715L0.578,-0.715L0.551,-0.549L0.398,-0.549L0.311,-0L0.119,-0Z" style="fill:rgb(58,42,16);fill-rule:nonzero;"/>
                </g>
                <g transform="matrix(24,0,0,24,26.3555,43.1641)">
                    <path d="M0.134,-0L-0.012,-0.493L0.161,-0.493L0.211,-0.269C0.214,-0.257 0.216,-0.244 0.219,-0.23C0.221,-0.217 0.223,-0.201 0.225,-0.184C0.232,-0.207 0.243,-0.234 0.258,-0.265C0.26,-0.268 0.261,-0.27 0.261,-0.271L0.369,-0.493L0.488,-0.493L0.541,-0.269C0.545,-0.251 0.548,-0.236 0.551,-0.222C0.553,-0.209 0.555,-0.196 0.556,-0.184C0.562,-0.205 0.573,-0.232 0.589,-0.265L0.592,-0.271L0.702,-0.493L0.881,-0.493L0.614,-0L0.48,-0L0.425,-0.228C0.422,-0.24 0.42,-0.253 0.417,-0.266C0.415,-0.28 0.413,-0.294 0.411,-0.309C0.408,-0.299 0.404,-0.288 0.398,-0.275C0.393,-0.263 0.385,-0.246 0.375,-0.225L0.266,-0L0.134,-0Z" style="fill:rgb(58,42,16);fill-rule:nonzero;"/>
                </g>
                <g transform="matrix(24,0,0,24,46.875,43.1641)">
                    <path d="M0.104,-0.64C0.104,-0.666 0.113,-0.687 0.131,-0.706C0.149,-0.724 0.171,-0.733 0.197,-0.733C0.224,-0.733 0.246,-0.724 0.264,-0.707C0.282,-0.689 0.291,-0.667 0.291,-0.64C0.291,-0.614 0.282,-0.591 0.264,-0.573C0.245,-0.555 0.223,-0.546 0.197,-0.546C0.171,-0.546 0.149,-0.555 0.131,-0.573C0.113,-0.592 0.104,-0.614 0.104,-0.64ZM0.013,-0L0.091,-0.493L0.266,-0.493L0.188,-0L0.013,-0Z" style="fill:rgb(58,42,16);fill-rule:nonzero;"/>
                </g>
                <g transform="matrix(24,0,0,24,54.3633,43.1641)">
                    <path d="M0.028,-0L0.086,-0.367L0.004,-0.367L0.024,-0.493L0.106,-0.493L0.128,-0.636L0.302,-0.636L0.279,-0.493L0.367,-0.493L0.347,-0.367L0.259,-0.367L0.201,-0L0.028,-0Z" style="fill:rgb(58,42,16);fill-rule:nonzero;"/>
                </g>
                <g transform="matrix(24,0,0,24,62.625,43.1641)">
                    <path d="M0.028,-0L0.086,-0.367L0.004,-0.367L0.024,-0.493L0.106,-0.493L0.128,-0.636L0.302,-0.636L0.279,-0.493L0.367,-0.493L0.347,-0.367L0.259,-0.367L0.201,-0L0.028,-0Z" style="fill:rgb(58,42,16);fill-rule:nonzero;"/>
                </g>
                <g transform="matrix(24,0,0,24,70.8867,43.1641)">
                    <path d="M0.39,-0.305C0.389,-0.332 0.38,-0.353 0.363,-0.369C0.347,-0.384 0.326,-0.392 0.299,-0.392C0.275,-0.392 0.253,-0.384 0.234,-0.369C0.215,-0.354 0.201,-0.333 0.191,-0.305L0.39,-0.305ZM0.179,-0.205L0.179,-0.194C0.179,-0.163 0.187,-0.139 0.203,-0.123C0.219,-0.106 0.242,-0.098 0.273,-0.098C0.294,-0.098 0.315,-0.103 0.334,-0.112C0.353,-0.121 0.373,-0.135 0.395,-0.155L0.489,-0.06C0.461,-0.033 0.428,-0.013 0.392,-0C0.355,0.013 0.314,0.02 0.269,0.02C0.189,0.02 0.126,-0.001 0.082,-0.044C0.037,-0.087 0.015,-0.147 0.015,-0.224C0.015,-0.308 0.042,-0.377 0.094,-0.43C0.147,-0.482 0.216,-0.509 0.3,-0.509C0.376,-0.509 0.437,-0.486 0.484,-0.439C0.53,-0.392 0.553,-0.331 0.553,-0.254C0.553,-0.247 0.552,-0.235 0.55,-0.217C0.55,-0.211 0.549,-0.207 0.549,-0.205L0.179,-0.205Z" style="fill:rgb(58,42,16);fill-rule:nonzero;"/>
                </g>
                <g transform="matrix(24,0,0,24,85.2188,43.1641)">
                    <path d="M0.005,-0L0.083,-0.493L0.25,-0.493L0.238,-0.409C0.253,-0.44 0.274,-0.464 0.299,-0.48C0.325,-0.497 0.355,-0.505 0.389,-0.505C0.393,-0.505 0.397,-0.505 0.401,-0.504C0.406,-0.504 0.413,-0.503 0.423,-0.501L0.388,-0.346C0.377,-0.349 0.367,-0.351 0.357,-0.352C0.348,-0.353 0.34,-0.354 0.331,-0.354C0.298,-0.354 0.271,-0.344 0.252,-0.323C0.232,-0.302 0.219,-0.269 0.212,-0.225L0.177,-0L0.005,-0Z" style="fill:rgb(58,42,16);fill-rule:nonzero;"/>
                </g>
            </g>
        </g>
        <g id="discord" transform="matrix(1,0,0,1,0,-240)">
            <g id="accent2" serif:id="accent" transform="matrix(0.384615,0,0,0.689655,6.15385,408.966)">
                <rect x="-16" y="-13" width="26" height="116" style="fill:rgb(88,101,242);"/>
            </g>
            <g id="text1" serif:id="text">
            </g>
        </g>
        <g id="soundcloud">
        </g>
        <g id="activity_pub">
        </g>
    </g>
</svg>
