<svg viewBox="0 0 172 38" xmlns="http://www.w3.org/2000/svg">
  <defs>
    <style>
      .cls-1 {
        fill: #82b38e;
      }

      .cls-2 {
        fill: #3a2a10;
      }
    </style>
  </defs>
  <title>site_logo</title>
  <g data-name="レイヤー 2" id="レイヤー_2">
    <g data-name="レイヤー 1" id="レイヤー_1-2">
      <g>
        <rect class="cls-1" height="38" width="172"/>
        <g>
          <path class="cls-2"
                d="M11.43213,25.17505a.22215.22215,0,0,1-.09375.03125A.23572.23572,0,0,1,11.167,25.113a11.97148,11.97148,0,0,1,0-14.00391.23622.23622,0,0,1,.17139-.09375.22215.22215,0,0,1,.09375.03125l.31152.187a.12385.12385,0,0,1,.07813.10938.54579.54579,0,0,1-.09375.21826,13.76618,13.76618,0,0,0-1.66846,6.5498A13.97742,13.97742,0,0,0,11.728,24.66089a.54285.54285,0,0,1,.09375.21826.12377.12377,0,0,1-.07813.10889Zm7.25146-3.49317H14.78467v1.38819c0,.312.01562,1.15381.03125,1.63721v.0625c0,.14013-.03125.17138-.15576.17138a.96145.96145,0,0,1-.20313-.01562,5.50338,5.50338,0,0,0-.73291-.04639,2.49567,2.49567,0,0,0-.52978.04639,1.15457,1.15457,0,0,1-.1875.03125c-.187,0-.187-.12451-.187-.28076.01563-.38965.04688-1.30957.04688-1.606V18.62573c0-.04687.01562-.42138.01562-.4834a7.9472,7.9472,0,0,1-1.79345,1.59034c-.187,0-.499-.40528-.499-.59229a.11935.11935,0,0,1,.03125-.07812,13.36,13.36,0,0,0,2.88477-4.585H13.4126c-.85791.01563-1.856.03125-2.07422.0625H11.2915c-.09326,0-.10888-.03125-.10888-.07812A1.23487,1.23487,0,0,1,11.229,14.259a.90463.90463,0,0,0,.04688-.29638,1.91171,1.91171,0,0,0-.03125-.31153,2.22367,2.22367,0,0,1-.04639-.24951c0-.0625.01514-.09375.12451-.09375h.04688c.312.03125,1.38769.12451,2.21435.12451h.20264a10.4716,10.4716,0,0,0,.4209-1.88672c.01562-.12451.03125-.187.10937-.187a.305.305,0,0,1,.10938.01563,5.35284,5.35284,0,0,0,1.43457.21826,3.35591,3.35591,0,0,0,.43652-.03125c.04688,0,.07813-.01563.10938-.01563.14014,0,.17139.0625.17139.15577a6.02711,6.02711,0,0,1-.5459,1.731h1.96484c1.731,0,3.00977-.04638,3.44629-.09326H21.459c.0625,0,.07813.03125.07813.07813a1.39291,1.39291,0,0,1-.04688.21826,1.13639,1.13639,0,0,0-.04687.34277.59105.59105,0,0,0,.04687.24951.4074.4074,0,0,1,.04688.17188c0,.07763-.03125.12451-.10938.12451-.51416-.01563-1.71533-.04688-3.44628-.04688H15.64258c-.26514.53028-.5459,1.04493-.84229,1.5127h3.96094c.65527,0,1.35693-.03125,1.731-.0625h.07812c.09375,0,.12451.03125.12451.17188-.01513.499-.03076,1.0913-.03076,1.31005v4.834c0,.14062.03076.67041.03076,1.29443,0,.499-.32714,1.32569-1.62158,1.32569a6.98112,6.98112,0,0,1-2.3706-.4834c-.07764-.03125-.10889-.17188-.10889-.34326,0-.26514.09375-.6084.24951-.6084h.03125a4.17246,4.17246,0,0,0,1.16944.21875c.624,0,.63964-.125.63964-.53028Zm0-4.66259H14.78467V18.2981h3.89892Zm0,2.26123H14.78467v1.40332h3.89892ZM21.00684,24.988a.12377.12377,0,0,1-.07813-.10889.54285.54285,0,0,1,.09375-.21826,13.97754,13.97754,0,0,0,1.66846-6.54981,13.76045,13.76045,0,0,0-1.66846-6.5498.54579.54579,0,0,1-.09375-.21826.12385.12385,0,0,1,.07813-.10938l.312-.187a.22215.22215,0,0,1,.09375-.03125.238.238,0,0,1,.17138.09375,11.97148,11.97148,0,0,1,0,14.00391.23753.23753,0,0,1-.17138.09326.22215.22215,0,0,1-.09375-.03125Z"/>
          <path class="cls-2"
                d="M43.19824,19.655a7.94209,7.94209,0,0,1-.36279,1.45117,10.49667,10.49667,0,0,1-1.72315,2.49414,9.21971,9.21971,0,0,1-6.59814,3.1294,8.89907,8.89907,0,0,1-4.17236-.79395,4.53206,4.53206,0,0,1-2.3125-4.3081c0-.5669.02246-1.76856.09033-3.62793.09082-2.78907.13623-4.69336.13623-5.73633,0-.2041-.06787-.771-.15869-1.67822a1.78209,1.78209,0,0,1,.771-1.3379l.81641.04541a2.78885,2.78885,0,0,1,2.49414,1.76856c-.11377,2.69824-.18164,4.46728-.22705,5.32861q-.20361,3.67309-.2041,3.80957a4.02457,4.02457,0,0,0,.54443,2.42627,2.82908,2.82908,0,0,0,2.29.77051,7.85347,7.85347,0,0,0,3.96826-1.24707,15.88826,15.88826,0,0,0,3.333-2.99268,11.9148,11.9148,0,0,0,1.043-1.20214l-.15869.8164.18115-.04541.04541.24951v.34034l.29492-.34034Z"/>
          <path class="cls-2"
                d="M54.10693,14.25854c-.65771.02295-1.63281.06788-2.90234.1587a27.89949,27.89949,0,0,1-2.60742,6.19043c-1.06592,1.65527-1.97315,2.49414-2.74365,2.49414-.95264,0-1.542-.61231-1.79151-1.79151a3.12472,3.12472,0,0,1-.04541-.58935,1.62472,1.62472,0,0,1,.29492-.63477,5.33227,5.33227,0,0,1,.63477-.63525,12.0913,12.0913,0,0,0,2.585-4.73877c-.92969.11328-1.519.18115-1.76855.18115a2.12311,2.12311,0,0,1-1.72315-1.85937,2.811,2.811,0,0,1,.33984-1.26954.69175.69175,0,0,1,.43116-.18164h.33984c.15869,0,.29492.02295.4082.02295.29493,0,1.26954-.09082,2.90235-.24951a8.00863,8.00863,0,0,0,.2041-1.519l-.04541-.4082c0-.09083.02246-.20411.02246-.3628a1.57316,1.57316,0,0,1,1.13379-.54443,3.92873,3.92873,0,0,1,1.49658.34033,1.52344,1.52344,0,0,1,.90723,1.1792,5.61166,5.61166,0,0,1-.13623,1.043c.06787,0,.29492-.02295.65771-.04541s.61231-.02246.748-.02246a1.42948,1.42948,0,0,1,1.06592.31738,2.12511,2.12511,0,0,1,.70263,1.5415C55.10449,13.75952,54.7417,14.21313,54.10693,14.25854Zm5.94092,11.83594a1.63154,1.63154,0,0,1-1.13379-.38525A12.058,12.058,0,0,1,57.57617,24.281a4.10527,4.10527,0,0,1-3.99072,3.01562,5.44256,5.44256,0,0,1-3.42383-1.02051,3.35588,3.35588,0,0,1-1.36084-2.78906A3.54334,3.54334,0,0,1,50.479,20.38062a5.88255,5.88255,0,0,1,3.4917-1.02,8.46118,8.46118,0,0,1,1.043.04492,15.08793,15.08793,0,0,0-.13574-2.81153l-.04541-.6123a1.1965,1.1965,0,0,1,.2041-.45313,2.50665,2.50665,0,0,1,1.26953-.18164,2.3861,2.3861,0,0,1,1.51953.47608,1.41574,1.41574,0,0,1,.45313,1.02051q0,.13623-.06787.88427c-.04541.52149-.06787.83887-.06787.92969l-.09082,1.85938c2.40332,1.40576,3.62793,2.585,3.62793,3.58252C61.68018,25.41431,61.13574,26.09448,60.04785,26.09448Zm-5.91846-3.8999c-.09033,0-.18115-.02246-.29443-.02246a1.209,1.209,0,0,0-.24951-.02295,2.70541,2.70541,0,0,0-1.11133.27246,1.071,1.071,0,0,0-.61182.92969,1.24068,1.24068,0,0,0,.33985.97461,1.44493,1.44493,0,0,0,.99756.38574q1.42894,0,1.70068-2.24512A5.45624,5.45624,0,0,0,54.12939,22.19458Zm6.59864-6.666c-.18164,0-.40821-.02294-.68018-.04541-.65771-.27246-1.49658-1.31543-2.54-3.1748a5.49781,5.49781,0,0,0-.88427-.79346l-.272-.2041.29492-.15869-.18164-.04541c-.04492-.06787-.13574-.11328-.31738-.11328l.43115-.2041-.18164-.15869a3.87033,3.87033,0,0,0,.58936-.22657l.9751-.04541.90722.11328a3.64065,3.64065,0,0,1,3.061,2.78907l.04541.52148A1.91789,1.91789,0,0,1,60.728,15.52856Z"/>
          <path class="cls-2"
                d="M77.05615,25.73218a7.68148,7.68148,0,0,1-5.16943,1.63232,9.09418,9.09418,0,0,1-4.85254-1.31494l-.09082-.227-.49854-.38525.33985.02246.15869.02295-.2041-.27246.95263.38574-.34033-.272.40821.09034-.31739-.22657.65723.11329-.49854-.22657-.272-.15869h.22656l.34034-.02295.22656.04541.24951.09082.2041-.09082L67.374,24.57544l.90723.02295,1.1792.38525a12.71691,12.71691,0,0,0,3.67334-.38525A2.81049,2.81049,0,0,0,75.333,21.85474a2.39751,2.39751,0,0,0-.5669-1.65528,2.00184,2.00184,0,0,0-1.5874-.63525,7.22282,7.22282,0,0,0-4.44385,1.65527,12.80812,12.80812,0,0,0-1.0205.86182,2.09124,2.09124,0,0,1-1.20166.47607,1.79429,1.79429,0,0,1-1.1792-.43066,2.07469,2.07469,0,0,1-.47608-1.36035,5.48231,5.48231,0,0,1,.65772-1.7461,25.85335,25.85335,0,0,0,1.40576-4.104,19.22087,19.22087,0,0,1-2.40381.272,1.76213,1.76213,0,0,1-1.7002-2.01806,3.43944,3.43944,0,0,1,.18116-.83887.88146.88146,0,0,1,.83886-.4082c.54444-.02247,1.83692-.11329,3.855-.24952a18.77733,18.77733,0,0,0,.22657-2.10839,1.271,1.271,0,0,1,.13623-.499,1.75324,1.75324,0,0,1,.77051-.34033,3.33007,3.33007,0,0,1,1.769.74854,1.28411,1.28411,0,0,1,.61181.97509,5.24868,5.24868,0,0,1-.13574.92969l5.0791-.522a6.94662,6.94662,0,0,1,1.043-.04492,2.66819,2.66819,0,0,1,1.02051.49853,2.221,2.221,0,0,1,.43066,1.1792c-.02246.771-.22656,1.20166-.63476,1.33789a9.2346,9.2346,0,0,1-1.99561.29492c-1.3833.11328-3.333.272-5.85009.49854l-.83887,3.19726a8.76271,8.76271,0,0,1,3.62793-1.08838c.24951,0,.68017-.02294,1.29248-.04541a4.855,4.855,0,0,1,3.31055,1.49659,4.57141,4.57141,0,0,1,1.29248,3.26513A5.444,5.444,0,0,1,77.05615,25.73218Z"/>
          <path class="cls-2"
                d="M92.0459,26.97925a1.2259,1.2259,0,0,1-1.02051.63476,1.92581,1.92581,0,0,1-1.22412-.70312c-.22705-.272-.58984-.63477-1.06592-1.13379A49.8468,49.8468,0,0,0,82.65869,20.449c-.95264-.70312-1.42871-1.36084-1.42871-1.9956a2.698,2.698,0,0,1,.72559-1.72315,19.603,19.603,0,0,1,1.9956-1.9956c1.56446-1.45117,2.97022-2.834,4.19483-4.19483A5.33588,5.33588,0,0,0,89.37012,8.386,2.71558,2.71558,0,0,1,91.6377,9.429a3.78748,3.78748,0,0,1,.771,2.42626c0,.49854-.45361.9751-1.31494,1.42823A42.499,42.499,0,0,0,85.53809,17.093c-.72559.54394-1.08838.9751-1.08838,1.33789,0,.272.499.65722,1.51953,1.1333a32.63331,32.63331,0,0,1,4.98828,2.69873,3.47263,3.47263,0,0,1,1.5874,2.99268A3.19484,3.19484,0,0,1,92.0459,26.97925Z"/>
          <path class="cls-2"
                d="M100.75537,18.92944a1.42735,1.42735,0,0,1-.47607.18164c-.04541,0-.11328-.023-.18164-.023H99.9165c-1.043-.22656-2.35839-1.42822-3.8999-3.605.06787-.70312.5669-1.043,1.519-1.043a4.87838,4.87838,0,0,1,4.104,1.99511c0,.04541,0,.22657.02295.499,0,.272.02246.47607.02246.6123A1.5466,1.5466,0,0,1,100.75537,18.92944Zm11.76807-2.13134q-.33984.51049-1.02051,1.36035c-.22656.22705-.58936.65771-1.1333,1.24707l-.771.68066-3.40136,2.90235a36.35506,36.35506,0,0,1-5.39649,3.74121,2.07147,2.07147,0,0,1-.70312.2041,5.26273,5.26273,0,0,1-.63477-.04541c-.72559-.13623-1.519-.9751-2.40332-2.49414v-.58985c.09082-.54394.70264-.90673,1.791-1.13379a7.69767,7.69767,0,0,0,2.1997-.83886l3.832-2.17676c1.42823-.81641,3.4917-2.19922,6.16748-4.104l1.13379-.52149.249-.06787-.2041.52148.4082-.02294a4.57488,4.57488,0,0,0-.249.70312,1.55766,1.55766,0,0,1,.40771.04541Zm-9.20606-3.03858a1.78372,1.78372,0,0,1-.65722.36328,1.724,1.724,0,0,1-.61231-.11377c-1.26953-.49853-2.42627-1.85937-3.4917-4.03613l-.06836-.272c.18164-.3628.54444-.52149,1.13379-.52149H99.939a4.639,4.639,0,0,1,3.94532,2.3584l.13623.74805A2.69936,2.69936,0,0,1,103.31738,13.75952Z"/>
          <path class="cls-2"
                d="M128.82813,25.66382a.94424.94424,0,0,1-.499.54443l-.88428.36279a4.3992,4.3992,0,0,1-.45361.04542,3.1501,3.1501,0,0,1-.36279-.04542,9.79169,9.79169,0,0,1-2.01807-1.95019c-.45361-.544-1.06543-1.20166-1.791-1.99512a13.16248,13.16248,0,0,0-1.45118-1.08838,12.0525,12.0525,0,0,1-7.8457,4.44385l-1.33789-.13574h-.36279c-.11328-.02295-.272-.06836-.49854-.11328a1.95676,1.95676,0,0,1,.49854-.27246l-.58936-.2041.15869-.1587-.29492-.04541.45361-.2041-.24951-.13574a19.75354,19.75354,0,0,0,5.66895-3.40137,18.07444,18.07444,0,0,0,3.08349-3.6958c.11329-.2041.58985-1.15625,1.45118-2.87988a1.5283,1.5283,0,0,1,.02295-.272v-.24952a1.39748,1.39748,0,0,0-.1587-.31738,1.0803,1.0803,0,0,0-.58984-.13623c-.31738,0-2.26758.36328-5.80469,1.11133a2.47708,2.47708,0,0,1-2.04052-1.5874,3.54325,3.54325,0,0,1,.11328-.83887l.09082-.45361a.87719.87719,0,0,1,.49853-.63477h.27246c.15869,0,.29444.02295.38526.02295q.34058,0,3.12939-.4082a49.78293,49.78293,0,0,1,5.73633-.65772,3.37651,3.37651,0,0,1,1.11133.15869A5.83413,5.83413,0,0,1,125.835,12.1272a1.59122,1.59122,0,0,1,.22656.83886c0,.1587-.04541.43116-.09082.81641a24.37336,24.37336,0,0,1-3.19677,5.8501,16.35127,16.35127,0,0,1,5.57763,3.356,2.30508,2.30508,0,0,1,.63526,1.58691A3.94313,3.94313,0,0,1,128.82813,25.66382Z"/>
          <path class="cls-2"
                d="M146.60693,18.884a1.10478,1.10478,0,0,1-.83886.40821l-.771-.06787c-1.5415-.13624-2.62988-.20411-3.24219-.20411h-1.88183a1.29473,1.29473,0,0,1,.47607.92969,9.86,9.86,0,0,1-.65771,2.13135,8.63527,8.63527,0,0,1-2.65284,3.62793,8.05155,8.05155,0,0,1-4.19482,1.42871,11.28988,11.28988,0,0,0-1.3833-.13623l-.36279-.11328.499-.227-.65772-.15869.29493-.20411-.38575-.04492.34034-.15918-.272-.11328,1.99512-.81592a7.36522,7.36522,0,0,0,2.3584-2.06347,8.81936,8.81936,0,0,0,1.29248-3.94532c-.54443,0-1.76855.11329-3.71875.3628l-2.19971.272-.748-.13623a2.39976,2.39976,0,0,1-1.043-1.38281l.09082-.61231a3.97808,3.97808,0,0,1,.83886-1.542,4.70325,4.70325,0,0,0,.68018.09082,7.00719,7.00719,0,0,1,.83887-.04541l1.90478-.09082,8.63916-.43066c1.36035-.06788,2.35791-.09082,2.97022-.09082a2.73617,2.73617,0,0,1,1.542.38525,2.25018,2.25018,0,0,1,.70264,1.542A2.09105,2.09105,0,0,1,146.60693,18.884Zm-4.12646-5.16943-1.15625.04492c-.58984-.04492-.92969-.04492-1.02051-.04492-.15869,0-1.33789.04492-3.56006.15869-.99756.04541-1.85937.09033-2.585.18115l-.68017.06836a1.76411,1.76411,0,0,1-1.24707-.63525l-.31739-.47608a3.16157,3.16157,0,0,1-.43066-1.2246,2.07455,2.07455,0,0,1,.81592-1.292,6.63008,6.63008,0,0,0,1.36084.18116c.43066,0,2.42578-.11329,5.96338-.31739a18.54378,18.54378,0,0,0,1.92724-.18164,2.0565,2.0565,0,0,1,2.22217,1.33789l.04541.70313A1.60329,1.60329,0,0,1,142.48047,13.7146Z"/>
          <path class="cls-2"
                d="M161.37109,26.43481l-.70312.04541A3.50339,3.50339,0,0,1,158.6499,24.281c-1.90478.40771-5.2832,1.08789-10.13574,2.01757-.272.04541-.68018.09082-1.17871.18164a1.86362,1.86362,0,0,1-1.40576-1.06591,3.43717,3.43717,0,0,1-.27246-1.33741v-.65771a1.92894,1.92894,0,0,1,.65771-1.519l.61231.22656.748.04541a70.70058,70.70058,0,0,0,4.73926-12.28955l.47608-.4082h.72558a4.78856,4.78856,0,0,1,2.44873,1.92724,1.79686,1.79686,0,0,1,.15869.72559,2.002,2.002,0,0,1-.36279,1.06592l-1.542,2.97021-2.99268,5.82715,1.49658-.11328c.68018-.06787,1.65479-.18116,2.94727-.3628l1.7915-.272-.38525-1.74609-.36279-1.99512a1.44172,1.44172,0,0,1,.15869-.771l.56689.04541q3.36694,1.56446,5.50977,6.73438l.04541.65723v.31738C163.09424,25.25562,162.50439,25.89087,161.37109,26.43481Z"/>
        </g>
      </g>
    </g>
  </g>
</svg>
